SplineFontDB: 3.0
FontName: Lexington-Oblique
FullName: Lexington Oblique
FamilyName: Lexington
Weight: Book
Copyright: Copyright csyde 2015
Version: 1.0
ItalicAngle: 0
UnderlinePosition: 75
UnderlineWidth: 49
Ascent: 823
Descent: 201
InvalidEm: 0
sfntRevision: 0x00010000
LayerCount: 2
Layer: 0 1 "Back" 1
Layer: 1 1 "Fore" 0
XUID: [1021 273 464692840 3201285]
FSType: 4
OS2Version: 2
OS2_WeightWidthSlopeOnly: 0
OS2_UseTypoMetrics: 1
CreationTime: 1428114007
ModificationTime: 1455261046
PfmFamily: 81
TTFWeight: 400
TTFWidth: 5
LineGap: 0
VLineGap: 0
Panose: 0 0 4 0 0 0 0 0 0 0
OS2TypoAscent: 512
OS2TypoAOffset: 0
OS2TypoDescent: -128
OS2TypoDOffset: 0
OS2TypoLinegap: 0
OS2WinAscent: 672
OS2WinAOffset: 0
OS2WinDescent: 128
OS2WinDOffset: 0
HheadAscent: 672
HheadAOffset: 0
HheadDescent: -128
HheadDOffset: 0
OS2SubXSize: 512
OS2SubYSize: 512
OS2SubXOff: 0
OS2SubYOff: -64
OS2SupXSize: 512
OS2SupYSize: 512
OS2SupXOff: 0
OS2SupYOff: 512
OS2StrikeYSize: 51
OS2StrikeYPos: 204
OS2CapHeight: 596
OS2XHeight: 335
OS2Vendor: 'FSTR'
OS2CodePages: 000001fb.00000000
OS2UnicodeRanges: a0000007.4000000a.00000000.00000000
MacStyle: 2
MarkAttachClasses: 1
DEI: 91125
ShortTable: maxp 16
  1
  0
  215
  60
  5
  0
  0
  2
  0
  0
  0
  0
  0
  0
  0
  0
EndShort
LangName: 1033 "" "" "" "FontStruct Lexington Oblique" "" "Version 1.0" "" "FontStruct is a trademark of FSI FontShop International GmbH" "http://fontstruct.com" "csyde" "+IBoAxAD6-Lexington Gothic+IBoAxAD5 was built with FontStruct+AAoA" "http://www.fontshop.com" "http://fontstruct.com/fontstructions/show/1134409" "Creative Commons Attribution Share Alike" "http://creativecommons.org/licenses/by-sa/3.0/" "" "" "" "" "Vexed, Steve Wozniak beta tests yet more cold gefilte fish just prior to quiet. "
GaspTable: 1 65535 2 0
Encoding: UnicodeBmp
UnicodeInterp: none
NameList: AGL For New Fonts
DisplaySize: -48
AntiAlias: 1
FitToEm: 1
WidthSeparation: 165
WinInfo: 64 16 7
BeginPrivate: 0
EndPrivate
BeginChars: 65539 215

StartChar: .notdef
Encoding: 65536 -1 0
Width: 15
Flags: W
LayerCount: 2
Back
Fore
SplineSet
258.5390625 11 m 1,0,-1
 283.473632812 119 l 1,1,-1
 174.473632812 119 l 1,2,-1
 149.5390625 11 l 1,3,-1
 258.5390625 11 l 1,0,-1
397.090820312 139 m 1,4,-1
 422.024414062 247 l 1,5,-1
 204.024414062 247 l 1,6,-1
 179.090820312 139 l 1,7,-1
 397.090820312 139 l 1,4,-1
316.94921875 264 m 1,8,-1
 342.114257812 373 l 1,9,-1
 233.114257812 373 l 1,10,-1
 207.94921875 264 l 1,11,-1
 316.94921875 264 l 1,8,-1
455.0390625 390 m 1,12,-1
 479.97265625 498 l 1,13,-1
 370.97265625 498 l 2,14,15
 325.97265625 498 325.97265625 498 287.815429688 467 c 256,16,17
 248.658203125 436 248.658203125 436 237.0390625 390 c 1,18,-1
 455.0390625 390 l 1,12,-1
-104.624023438 -85 m 1,19,-1
 52.828125 597 l 1,20,-1
 734.828125 597 l 1,21,-1
 577.375976562 -85 l 1,22,-1
 -104.624023438 -85 l 1,19,-1
EndSplineSet
EndChar

StartChar: exclam
Encoding: 33 33 4
Width: 248
GlyphClass: 2
Flags: W
LayerCount: 2
Back
Fore
SplineSet
103 0 m 2,0,1
 93 0 93 0 88.154296875 5 c 0,2,3
 83.5390625 11 83.5390625 11 85.8486328125 21 c 2,4,-1
 95.3134765625 62 l 2,5,6
 97.3916015625 71 97.3916015625 71 105.23828125 79 c 256,7,8
 112.854492188 86 112.854492188 86 122.624023438 85 c 2,9,-1
 163.624023438 85 l 2,10,11
 171.624023438 85 171.624023438 85 179.23828125 79 c 256,12,13
 184.622070312 72 184.622070312 72 181.313476562 62 c 2,14,-1
 171.848632812 21 l 2,15,16
 169.5390625 11 169.5390625 11 162.154296875 5 c 0,17,18
 154 0 154 0 144 0 c 2,19,-1
 103 0 l 2,0,1
110.08984375 126 m 1,20,-1
 237.990234375 680 l 5,21,-1
 323.990234375 680 l 1,22,-1
 196.08984375 126 l 1,23,-1
 110.08984375 126 l 1,20,-1
EndSplineSet
EndChar

StartChar: quotedbl
Encoding: 34 34 5
Width: 357
GlyphClass: 2
Flags: W
LayerCount: 2
Back
Fore
SplineSet
212.358398438 517 m 5,0,-1
 221.82421875 558 l 5,1,-1
 210.982421875 602 l 5,2,-1
 225.7578125 666 l 6,3,4
 227.60546875 674 227.60546875 674 233.990234375 680 c 4,5,6
 242.606445312 687 242.606445312 687 251.606445312 687 c 6,7,-1
 292.606445312 687 l 6,8,9
 300.606445312 687 300.606445312 687 307.990234375 680 c 4,10,11
 313.60546875 674 313.60546875 674 310.52734375 665 c 6,12,-1
 295.982421875 602 l 5,13,-1
 262.82421875 558 l 5,14,-1
 253.358398438 517 l 5,15,-1
 212.358398438 517 l 5,0,-1
340.358398438 517 m 5,16,-1
 349.82421875 558 l 5,17,-1
 336.982421875 602 l 5,18,-1
 351.7578125 666 l 6,19,20
 353.60546875 674 353.60546875 674 360.990234375 680 c 4,21,22
 368.606445312 687 368.606445312 687 379.606445312 687 c 6,23,-1
 422.606445312 687 l 6,24,25
 430.606445312 687 430.606445312 687 433.990234375 680 c 4,26,27
 438.60546875 674 438.60546875 674 437.52734375 665 c 6,28,-1
 422.982421875 602 l 5,29,-1
 392.82421875 558 l 5,30,-1
 383.358398438 517 l 5,31,-1
 340.358398438 517 l 5,16,-1
EndSplineSet
EndChar

StartChar: numbersign
Encoding: 35 35 6
Width: 633
GlyphClass: 2
Flags: W
LayerCount: 2
Back
Fore
SplineSet
451.40625 214 m 5,0,-1
 520.204101562 512 l 5,1,-1
 350.204101562 512 l 5,2,-1
 281.40625 214 l 5,3,-1
 451.40625 214 l 5,0,-1
167.854492188 86 m 5,4,-1
 187.478515625 171 l 5,5,-1
 101.478515625 171 l 5,6,-1
 111.40625 214 l 5,7,-1
 197.40625 214 l 5,8,-1
 266.204101562 512 l 5,9,-1
 180.204101562 512 l 5,10,-1
 189.901367188 554 l 5,11,-1
 275.901367188 554 l 5,12,-1
 295.755859375 640 l 5,13,-1
 379.755859375 640 l 5,14,-1
 359.901367188 554 l 5,15,-1
 529.901367188 554 l 5,16,-1
 549.755859375 640 l 5,17,-1
 635.755859375 640 l 5,18,-1
 615.901367188 554 l 5,19,-1
 699.901367188 554 l 5,20,-1
 690.204101562 512 l 5,21,-1
 606.204101562 512 l 5,22,-1
 537.40625 214 l 5,23,-1
 621.40625 214 l 5,24,-1
 611.478515625 171 l 5,25,-1
 527.478515625 171 l 5,26,-1
 507.854492188 86 l 5,27,-1
 421.854492188 86 l 5,28,-1
 441.478515625 171 l 5,29,-1
 271.478515625 171 l 5,30,-1
 251.854492188 86 l 5,31,-1
 167.854492188 86 l 5,4,-1
EndSplineSet
EndChar

StartChar: dollar
Encoding: 36 36 7
Width: 555
GlyphClass: 2
Flags: W
LayerCount: 2
Back
Fore
SplineSet
380.624023438 85 m 1,0,-1
 434.08984375 126 l 1,1,-1
 444.478515625 171 l 1,2,-1
 377.87109375 255 l 1,3,-1
 338.624023438 85 l 1,4,-1
 380.624023438 85 l 1,0,-1
335.966796875 446 m 1,5,-1
 370.366210938 595 l 1,6,-1
 327.366210938 595 l 1,7,-1
 276.669921875 553 l 1,8,-1
 271.822265625 532 l 1,9,-1
 335.966796875 446 l 1,5,-1
233 0 m 1,10,-1
 242.696289062 42 l 1,11,-1
 158.696289062 42 l 1,12,-1
 92.08984375 126 l 1,13,-1
 102.478515625 171 l 1,14,-1
 188.478515625 171 l 1,15,-1
 178.08984375 126 l 1,16,-1
 209.624023438 85 l 1,17,-1
 252.624023438 85 l 1,18,-1
 311.725585938 341 l 1,19,-1
 180.743164062 510 l 1,20,-1
 190.669921875 553 l 1,21,-1
 296.293945312 638 l 1,22,-1
 380.293945312 638 l 1,23,-1
 389.990234375 680 l 1,24,-1
 475.990234375 680 l 5,25,-1
 466.293945312 638 l 1,26,-1
 552.293945312 638 l 1,27,-1
 617.669921875 553 l 1,28,-1
 607.743164062 510 l 1,29,-1
 522.743164062 510 l 1,30,-1
 532.669921875 553 l 1,31,-1
 498.366210938 595 l 1,32,-1
 456.366210938 595 l 1,33,-1
 402.112304688 360 l 1,34,-1
 534.327148438 192 l 1,35,-1
 519.08984375 126 l 1,36,-1
 414.696289062 42 l 1,37,-1
 328.696289062 42 l 1,38,-1
 319 0 l 1,39,-1
 233 0 l 1,10,-1
EndSplineSet
EndChar

StartChar: percent
Encoding: 37 37 8
Width: 554
GlyphClass: 2
Flags: W
LayerCount: 2
Back
Fore
SplineSet
417.696289062 42 m 5,0,-1
 468.624023438 85 l 5,1,-1
 478.08984375 126 l 5,2,-1
 447.478515625 171 l 5,3,-1
 403.478515625 171 l 5,4,-1
 351.08984375 126 l 5,5,-1
 341.624023438 85 l 5,6,-1
 373.696289062 42 l 5,7,-1
 417.696289062 42 l 5,0,-1
322 0 m 5,8,-1
 288.696289062 42 l 5,9,-1
 318.478515625 171 l 5,10,-1
 370.944335938 212 l 5,11,-1
 497.944335938 212 l 5,12,-1
 532.478515625 171 l 5,13,-1
 502.696289062 42 l 5,14,-1
 449 0 l 5,15,-1
 322 0 l 5,8,-1
310.743164062 510 m 5,16,-1
 363.669921875 553 l 5,17,-1
 373.366210938 595 l 5,18,-1
 340.293945312 638 l 5,19,-1
 299.293945312 638 l 5,20,-1
 246.366210938 595 l 5,21,-1
 236.669921875 553 l 5,22,-1
 269.743164062 510 l 5,23,-1
 310.743164062 510 l 5,16,-1
217.045898438 468 m 5,24,-1
 183.743164062 510 l 5,25,-1
 213.293945312 638 l 5,26,-1
 265.990234375 680 l 5,27,-1
 392.990234375 680 l 5,28,-1
 426.293945312 638 l 5,29,-1
 396.743164062 510 l 5,30,-1
 344.045898438 468 l 5,31,-1
 217.045898438 468 l 5,24,-1
66 0 m 5,32,-1
 564.990234375 680 l 5,33,-1
 649.990234375 680 l 5,34,-1
 152 0 l 5,35,-1
 66 0 l 5,32,-1
EndSplineSet
EndChar

StartChar: ampersand
Encoding: 38 38 9
Width: 472
GlyphClass: 2
Flags: W
LayerCount: 2
Back
Fore
SplineSet
159 0 m 5,0,-1
 92.6240234375 85 l 5,1,-1
 141.798828125 298 l 5,2,-1
 193.725585938 341 l 5,3,-1
 219.34375 361 l 5,4,-1
 171.349609375 426 l 5,5,-1
 190.973632812 511 l 5,6,-1
 296.828125 597 l 5,7,-1
 508.828125 597 l 5,8,-1
 498.669921875 553 l 5,9,-1
 327.669921875 553 l 5,10,-1
 276.973632812 511 l 5,11,-1
 257.349609375 426 l 5,12,-1
 288.653320312 384 l 5,13,-1
 374.653320312 384 l 5,14,-1
 394.045898438 468 l 5,15,-1
 479.045898438 468 l 5,16,-1
 459.653320312 384 l 5,17,-1
 501.653320312 384 l 5,18,-1
 491.725585938 341 l 5,19,-1
 449.725585938 341 l 5,20,-1
 390.624023438 85 l 5,21,-1
 422.696289062 42 l 5,22,-1
 413 0 l 5,23,-1
 371 0 l 5,24,-1
 305.624023438 85 l 5,25,-1
 364.725585938 341 l 5,26,-1
 278.725585938 341 l 5,27,-1
 227.798828125 298 l 5,28,-1
 178.624023438 85 l 5,29,-1
 209.696289062 42 l 5,30,-1
 295.696289062 42 l 5,31,-1
 286 0 l 5,32,-1
 159 0 l 5,0,-1
EndSplineSet
EndChar

StartChar: quotesingle
Encoding: 39 39 10
Width: 231
GlyphClass: 2
Flags: W
LayerCount: 2
Back
Fore
SplineSet
211.743164062 510 m 5,0,-1
 221.439453125 552 l 5,1,-1
 209.366210938 595 l 5,2,-1
 224.142578125 659 l 6,3,4
 225.989257812 667 225.989257812 667 233.143554688 672 c 4,5,6
 240.759765625 679 240.759765625 679 250.990234375 680 c 6,7,-1
 292.990234375 680 l 6,8,9
 300.990234375 680 300.990234375 680 306.143554688 672 c 4,10,11
 311.7578125 666 311.7578125 666 310.142578125 659 c 6,12,-1
 295.366210938 595 l 5,13,-1
 263.439453125 552 l 5,14,-1
 253.743164062 510 l 5,15,-1
 211.743164062 510 l 5,0,-1
EndSplineSet
EndChar

StartChar: parenleft
Encoding: 40 40 11
Width: 293
GlyphClass: 2
Flags: W
LayerCount: 2
Back
Fore
SplineSet
153.303710938 -42 m 1,0,-1
 87.6962890625 42 l 1,1,-1
 225.293945312 638 l 1,2,-1
 330.1484375 724 l 1,3,-1
 415.1484375 724 l 1,4,-1
 405.221679688 681 l 1,5,-1
 363.221679688 681 l 1,6,-1
 310.293945312 638 l 1,7,-1
 172.696289062 42 l 1,8,-1
 206.23046875 1 l 1,9,-1
 248.23046875 1 l 1,10,-1
 238.303710938 -42 l 1,11,-1
 153.303710938 -42 l 1,0,-1
EndSplineSet
EndChar

StartChar: parenright
Encoding: 41 41 12
Width: 295
GlyphClass: 2
Flags: W
LayerCount: 2
Back
Fore
SplineSet
36.3037109375 -42 m 5,0,-1
 46 0 l 5,1,-1
 88 0 l 5,2,-1
 141.696289062 42 l 5,3,-1
 279.293945312 638 l 5,4,-1
 244.990234375 680 l 5,5,-1
 202.990234375 680 l 5,6,-1
 213.1484375 724 l 5,7,-1
 299.1484375 724 l 5,8,-1
 363.293945312 638 l 5,9,-1
 225.696289062 42 l 5,10,-1
 122.303710938 -42 l 5,11,-1
 36.3037109375 -42 l 5,0,-1
EndSplineSet
EndChar

StartChar: asterisk
Encoding: 42 42 13
Width: 424
GlyphClass: 2
Flags: W
LayerCount: 2
Back
Fore
SplineSet
262.72265625 302 m 5,0,-1
 292.041992188 429 l 5,1,-1
 159.801757812 324 l 5,2,-1
 143.418945312 344 l 5,3,-1
 274.12109375 451 l 5,4,-1
 256.969726562 472 l 5,5,-1
 192.59375 557 l 5,6,-1
 218.44140625 578 l 5,7,-1
 301.969726562 472 l 5,8,-1
 331.290039062 599 l 5,9,-1
 372.290039062 599 l 5,10,-1
 342.969726562 472 l 5,11,-1
 474.44140625 578 l 5,12,-1
 489.59375 557 l 5,13,-1
 385.969726562 472 l 5,14,-1
 384.969726562 472 l 5,15,-1
 361.12109375 451 l 5,16,-1
 440.418945312 344 l 5,17,-1
 415.801757812 324 l 5,18,-1
 333.041992188 429 l 5,19,-1
 303.72265625 302 l 5,20,-1
 262.72265625 302 l 5,0,-1
EndSplineSet
EndChar

StartChar: plus
Encoding: 43 43 14
Width: 451
GlyphClass: 2
Flags: W
LayerCount: 2
Back
Fore
SplineSet
243.025390625 260 m 5,0,-1
 277.65625 410 l 5,1,-1
 150.65625 410 l 5,2,-1
 160.12109375 451 l 5,3,-1
 287.12109375 451 l 5,4,-1
 321.290039062 599 l 5,5,-1
 407.290039062 599 l 5,6,-1
 373.12109375 451 l 5,7,-1
 500.12109375 451 l 5,8,-1
 490.65625 410 l 5,9,-1
 363.65625 410 l 5,10,-1
 329.025390625 260 l 5,11,-1
 243.025390625 260 l 5,0,-1
EndSplineSet
EndChar

StartChar: comma
Encoding: 44 44 15
Width: 235
GlyphClass: 2
Flags: W
LayerCount: 2
Back
Fore
SplineSet
55.3759765625 -85 m 5,0,-1
 107.303710938 -42 l 5,1,-1
 117 0 l 5,2,-1
 97 0 l 6,3,4
 87 0 87 0 82.154296875 5 c 4,5,6
 77.7705078125 12 77.7705078125 12 79.8486328125 21 c 6,7,-1
 89.3134765625 62 l 6,8,9
 91.3916015625 71 91.3916015625 71 99.23828125 79 c 4,10,11
 106.854492188 86 106.854492188 86 116.624023438 85 c 6,12,-1
 158.624023438 85 l 6,13,14
 166.624023438 85 166.624023438 85 172.23828125 79 c 4,15,16
 177.853515625 73 177.853515625 73 175.775390625 64 c 6,17,-1
 151.303710938 -42 l 5,18,-1
 97.3759765625 -85 l 5,19,-1
 55.3759765625 -85 l 5,0,-1
EndSplineSet
EndChar

StartChar: hyphen
Encoding: 45 45 16
Width: 481
GlyphClass: 2
Flags: W
LayerCount: 2
Back
Fore
SplineSet
128.948242188 251 m 1,0,-1
 138.64453125 293 l 1,1,-1
 478.64453125 293 l 1,2,-1
 468.948242188 251 l 1,3,-1
 128.948242188 251 l 1,0,-1
EndSplineSet
EndChar

StartChar: period
Encoding: 46 46 17
Width: 237
GlyphClass: 2
Flags: W
LayerCount: 2
Back
Fore
SplineSet
76 0 m 5,0,-1
 95.8544921875 86 l 5,1,-1
 181.854492188 86 l 5,2,-1
 162 0 l 5,3,-1
 76 0 l 5,0,-1
EndSplineSet
EndChar

StartChar: slash
Encoding: 47 47 18
Width: 516
GlyphClass: 2
Flags: W
LayerCount: 2
Back
Fore
SplineSet
45 0 m 1,0,-1
 542.990234375 680 l 5,1,-1
 627.990234375 680 l 1,2,-1
 130 0 l 1,3,-1
 45 0 l 1,0,-1
EndSplineSet
EndChar

StartChar: zero
Encoding: 48 48 19
Width: 574
GlyphClass: 2
Flags: W
LayerCount: 2
Back
Fore
SplineSet
339.696289062 42 m 5,0,-1
 445.08984375 126 l 5,1,-1
 514.349609375 426 l 5,2,-1
 199.478515625 171 l 5,3,-1
 189.08984375 126 l 5,4,-1
 253.696289062 42 l 5,5,-1
 339.696289062 42 l 5,0,-1
218.87109375 255 m 5,6,-1
 533.743164062 510 l 5,7,-1
 543.669921875 553 l 5,8,-1
 477.293945312 638 l 5,9,-1
 391.293945312 638 l 5,10,-1
 287.669921875 553 l 5,11,-1
 218.87109375 255 l 5,6,-1
201 0 m 5,12,-1
 103.08984375 126 l 5,13,-1
 201.669921875 553 l 5,14,-1
 357.990234375 680 l 5,15,-1
 528.990234375 680 l 5,16,-1
 628.669921875 553 l 5,17,-1
 530.08984375 126 l 5,18,-1
 372 0 l 5,19,-1
 201 0 l 5,12,-1
EndSplineSet
EndChar

StartChar: one
Encoding: 49 49 20
Width: 297
GlyphClass: 2
Flags: W
LayerCount: 2
Back
Fore
SplineSet
130 0 m 5,0,-1
 257.669921875 553 l 5,1,-1
 172.669921875 553 l 5,2,-1
 329.990234375 680 l 5,3,-1
 371.990234375 680 l 5,4,-1
 215 0 l 5,5,-1
 130 0 l 5,0,-1
EndSplineSet
EndChar

StartChar: two
Encoding: 50 50 21
Width: 568
GlyphClass: 2
Flags: W
LayerCount: 2
Back
Fore
SplineSet
72 0 m 5,0,-1
 116.327148438 192 l 5,1,-1
 536.822265625 532 l 5,2,-1
 551.366210938 595 l 5,3,-1
 517.293945312 638 l 5,4,-1
 346.293945312 638 l 5,5,-1
 295.366210938 595 l 5,6,-1
 285.669921875 553 l 5,7,-1
 199.669921875 553 l 5,8,-1
 209.366210938 595 l 5,9,-1
 314.990234375 680 l 5,10,-1
 570.990234375 680 l 5,11,-1
 636.366210938 595 l 5,12,-1
 616.743164062 510 l 5,13,-1
 197.478515625 171 l 5,14,-1
 167.696289062 42 l 5,15,-1
 508.696289062 42 l 5,16,-1
 499 0 l 5,17,-1
 72 0 l 5,0,-1
EndSplineSet
EndChar

StartChar: three
Encoding: 51 51 22
Width: 563
GlyphClass: 2
Flags: W
LayerCount: 2
Back
Fore
SplineSet
147 0 m 5,0,-1
 80.6240234375 85 l 5,1,-1
 166.624023438 85 l 5,2,-1
 197.696289062 42 l 5,3,-1
 368.696289062 42 l 5,4,-1
 422.624023438 85 l 5,5,-1
 461.87109375 255 l 5,6,-1
 411.646484375 319 l 5,7,-1
 304.646484375 319 l 5,8,-1
 314.112304688 360 l 5,9,-1
 421.112304688 360 l 5,10,-1
 501.349609375 426 l 5,11,-1
 540.366210938 595 l 5,12,-1
 506.293945312 638 l 5,13,-1
 335.293945312 638 l 5,14,-1
 284.366210938 595 l 5,15,-1
 274.669921875 553 l 5,16,-1
 188.669921875 553 l 5,17,-1
 198.366210938 595 l 5,18,-1
 303.990234375 680 l 5,19,-1
 559.990234375 680 l 5,20,-1
 625.366210938 595 l 5,21,-1
 586.349609375 426 l 5,22,-1
 481.725585938 341 l 5,23,-1
 546.87109375 255 l 5,24,-1
 507.624023438 85 l 5,25,-1
 403 0 l 5,26,-1
 147 0 l 5,0,-1
EndSplineSet
EndChar

StartChar: four
Encoding: 52 52 23
Width: 560
GlyphClass: 2
Flags: W
LayerCount: 2
Back
Fore
SplineSet
461.567382812 297 m 5,0,-1
 525.518554688 574 l 5,1,-1
 182.567382812 297 l 5,2,-1
 461.567382812 297 l 5,0,-1
393 0 m 5,3,-1
 451.87109375 255 l 5,4,-1
 109.87109375 255 l 5,5,-1
 119.567382812 297 l 5,6,-1
 590.990234375 680 l 5,7,-1
 634.990234375 680 l 5,8,-1
 478 0 l 5,9,-1
 393 0 l 5,3,-1
EndSplineSet
EndChar

StartChar: five
Encoding: 53 53 24
Width: 574
GlyphClass: 2
Flags: W
LayerCount: 2
Back
Fore
SplineSet
164 0 m 5,0,-1
 97.6240234375 85 l 5,1,-1
 183.624023438 85 l 5,2,-1
 214.696289062 42 l 5,3,-1
 385.696289062 42 l 5,4,-1
 439.624023438 85 l 5,5,-1
 488.567382812 297 l 5,6,-1
 438.112304688 360 l 5,7,-1
 309.112304688 360 l 5,8,-1
 179.87109375 255 l 5,9,-1
 136.87109375 255 l 5,10,-1
 234.990234375 680 l 5,11,-1
 661.990234375 680 l 5,12,-1
 652.293945312 638 l 5,13,-1
 311.293945312 638 l 5,14,-1
 257.501953125 405 l 5,15,-1
 469.501953125 405 l 5,16,-1
 508.653320312 384 l 5,17,-1
 573.567382812 297 l 5,18,-1
 524.624023438 85 l 5,19,-1
 420 0 l 5,20,-1
 164 0 l 5,0,-1
EndSplineSet
EndChar

StartChar: six
Encoding: 54 54 25
Width: 576
GlyphClass: 2
Flags: W
LayerCount: 2
Back
Fore
SplineSet
385.696289062 42 m 5,0,-1
 439.624023438 85 l 5,1,-1
 488.567382812 297 l 5,2,-1
 438.112304688 360 l 5,3,-1
 309.112304688 360 l 5,4,-1
 232.567382812 297 l 5,5,-1
 183.624023438 85 l 5,6,-1
 214.696289062 42 l 5,7,-1
 385.696289062 42 l 5,0,-1
164 0 m 5,8,-1
 97.6240234375 85 l 5,9,-1
 215.366210938 595 l 5,10,-1
 320.990234375 680 l 5,11,-1
 576.990234375 680 l 5,12,-1
 642.366210938 595 l 5,13,-1
 632.669921875 553 l 5,14,-1
 547.669921875 553 l 5,15,-1
 557.366210938 595 l 5,16,-1
 523.293945312 638 l 5,17,-1
 352.293945312 638 l 5,18,-1
 301.366210938 595 l 5,19,-1
 257.501953125 405 l 5,20,-1
 469.501953125 405 l 5,21,-1
 508.653320312 384 l 5,22,-1
 573.567382812 297 l 5,23,-1
 524.624023438 85 l 5,24,-1
 420 0 l 5,25,-1
 164 0 l 5,8,-1
EndSplineSet
EndChar

StartChar: seven
Encoding: 55 55 26
Width: 535
GlyphClass: 2
Flags: W
LayerCount: 2
Back
Fore
SplineSet
56 0 m 5,0,-1
 522.293945312 638 l 5,1,-1
 203.293945312 638 l 5,2,-1
 212.990234375 680 l 5,3,-1
 639.990234375 680 l 5,4,-1
 630.293945312 638 l 5,5,-1
 163 0 l 5,6,-1
 56 0 l 5,0,-1
EndSplineSet
EndChar

StartChar: eight
Encoding: 56 56 27
Width: 578
GlyphClass: 2
Flags: W
LayerCount: 2
Back
Fore
SplineSet
383.696289062 42 m 5,0,-1
 437.624023438 85 l 5,1,-1
 476.87109375 255 l 5,2,-1
 426.646484375 319 l 5,3,-1
 297.646484375 319 l 5,4,-1
 220.87109375 255 l 5,5,-1
 181.624023438 85 l 5,6,-1
 212.696289062 42 l 5,7,-1
 383.696289062 42 l 5,0,-1
436.112304688 360 m 5,8,-1
 516.349609375 426 l 5,9,-1
 555.366210938 595 l 5,10,-1
 521.293945312 638 l 5,11,-1
 350.293945312 638 l 5,12,-1
 299.366210938 595 l 5,13,-1
 260.349609375 426 l 5,14,-1
 307.112304688 360 l 5,15,-1
 436.112304688 360 l 5,8,-1
162 0 m 5,16,-1
 95.6240234375 85 l 5,17,-1
 134.87109375 255 l 5,18,-1
 240.725585938 341 l 5,19,-1
 174.349609375 426 l 5,20,-1
 213.366210938 595 l 5,21,-1
 318.990234375 680 l 5,22,-1
 574.990234375 680 l 5,23,-1
 640.366210938 595 l 5,24,-1
 601.349609375 426 l 5,25,-1
 496.725585938 341 l 5,26,-1
 561.87109375 255 l 5,27,-1
 522.624023438 85 l 5,28,-1
 418 0 l 5,29,-1
 162 0 l 5,16,-1
EndSplineSet
EndChar

StartChar: nine
Encoding: 57 57 28
Width: 574
GlyphClass: 2
Flags: W
LayerCount: 2
Back
Fore
SplineSet
430.112304688 360 m 5,0,-1
 510.349609375 426 l 5,1,-1
 549.366210938 595 l 5,2,-1
 515.293945312 638 l 5,3,-1
 344.293945312 638 l 5,4,-1
 293.366210938 595 l 5,5,-1
 254.349609375 426 l 5,6,-1
 301.112304688 360 l 5,7,-1
 430.112304688 360 l 5,0,-1
156 0 m 5,8,-1
 89.6240234375 85 l 5,9,-1
 175.624023438 85 l 5,10,-1
 206.696289062 42 l 5,11,-1
 377.696289062 42 l 5,12,-1
 431.624023438 85 l 5,13,-1
 485.646484375 319 l 5,14,-1
 270.646484375 319 l 5,15,-1
 234.725585938 341 l 5,16,-1
 168.349609375 426 l 5,17,-1
 207.366210938 595 l 5,18,-1
 312.990234375 680 l 5,19,-1
 568.990234375 680 l 5,20,-1
 634.366210938 595 l 5,21,-1
 516.624023438 85 l 5,22,-1
 412 0 l 5,23,-1
 156 0 l 5,8,-1
EndSplineSet
EndChar

StartChar: colon
Encoding: 58 58 29
Width: 240
GlyphClass: 2
Flags: W
LayerCount: 2
Back
Fore
SplineSet
100.23046875 1 m 6,0,1
 90.23046875 1 90.23046875 1 85.6162109375 7 c 260,2,3
 81.0009765625 13 81.0009765625 13 83.0791015625 22 c 6,4,-1
 92.775390625 64 l 6,5,6
 94.853515625 73 94.853515625 73 102.700195312 81 c 4,7,8
 110.0859375 87 110.0859375 87 119.854492188 86 c 6,9,-1
 160.854492188 86 l 6,10,11
 168.854492188 86 168.854492188 86 176.700195312 81 c 4,12,13
 182.083984375 74 182.083984375 74 179.237304688 66 c 6,14,-1
 169.079101562 22 l 6,15,16
 167.000976562 13 167.000976562 13 159.616210938 7 c 260,17,18
 151.23046875 1 151.23046875 1 141.23046875 1 c 6,19,-1
 100.23046875 1 l 6,0,1
178.725585938 341 m 6,20,21
 168.725585938 341 168.725585938 341 164.111328125 347 c 4,22,23
 159.727539062 354 159.727539062 354 161.8046875 363 c 6,24,-1
 171.501953125 405 l 6,25,26
 173.810546875 415 173.810546875 415 181.1953125 421 c 4,27,28
 188.811523438 428 188.811523438 428 198.581054688 427 c 6,29,-1
 239.581054688 427 l 6,30,31
 247.581054688 427 247.581054688 427 255.1953125 421 c 4,32,33
 260.810546875 415 260.810546875 415 257.732421875 406 c 6,34,-1
 247.8046875 363 l 6,35,36
 245.727539062 354 245.727539062 354 238.111328125 347 c 4,37,38
 229.95703125 342 229.95703125 342 219.725585938 341 c 6,39,-1
 178.725585938 341 l 6,20,21
EndSplineSet
EndChar

StartChar: semicolon
Encoding: 59 59 30
Width: 241
GlyphClass: 2
Flags: W
LayerCount: 2
Back
Fore
SplineSet
58.3759765625 -85 m 5,0,-1
 111.303710938 -42 l 5,1,-1
 121 0 l 5,2,-1
 100 0 l 6,3,4
 90 0 90 0 85.154296875 5 c 4,5,6
 80.7705078125 12 80.7705078125 12 82.8486328125 21 c 6,7,-1
 92.3134765625 62 l 6,8,9
 94.6220703125 72 94.6220703125 72 102.23828125 79 c 4,10,11
 109.854492188 86 109.854492188 86 119.624023438 85 c 6,12,-1
 160.624023438 85 l 6,13,14
 168.624023438 85 168.624023438 85 176.23828125 79 c 4,15,16
 181.853515625 73 181.853515625 73 178.775390625 64 c 6,17,-1
 154.303710938 -42 l 5,18,-1
 101.375976562 -85 l 5,19,-1
 58.3759765625 -85 l 5,0,-1
178.725585938 341 m 6,20,21
 168.725585938 341 168.725585938 341 163.649414062 345 c 260,22,23
 159.03515625 351 159.03515625 351 161.34375 361 c 6,24,-1
 171.040039062 403 l 6,25,26
 173.118164062 412 173.118164062 412 180.502929688 418 c 4,27,28
 187.887695312 424 187.887695312 424 198.349609375 426 c 6,29,-1
 239.349609375 426 l 6,30,31
 247.349609375 426 247.349609375 426 254.502929688 418 c 4,32,33
 259.88671875 411 259.88671875 411 257.501953125 405 c 6,34,-1
 247.34375 361 l 6,35,36
 245.03515625 351 245.03515625 351 237.649414062 345 c 260,37,38
 229.264648438 339 229.264648438 339 219.725585938 341 c 6,39,-1
 178.725585938 341 l 6,20,21
EndSplineSet
EndChar

StartChar: less
Encoding: 60 60 31
Width: 414
GlyphClass: 2
Flags: W
LayerCount: 2
Back
Fore
SplineSet
304.23046875 1 m 5,0,-1
 108.102539062 256 l 5,1,-1
 421.973632812 511 l 5,2,-1
 464.973632812 511 l 5,3,-1
 450.428710938 448 l 5,4,-1
 189.25390625 235 l 5,5,-1
 352.079101562 22 l 5,6,-1
 347.23046875 1 l 5,7,-1
 304.23046875 1 l 5,0,-1
EndSplineSet
EndChar

StartChar: equal
Encoding: 61 61 32
Width: 486
GlyphClass: 2
Flags: W
LayerCount: 2
Back
Fore
SplineSet
148.186523438 330 m 1,0,-1
 158.114257812 373 l 1,1,-1
 499.114257812 373 l 1,2,-1
 489.186523438 330 l 1,3,-1
 148.186523438 330 l 1,0,-1
177.737304688 458 m 1,4,-1
 187.434570312 500 l 5,5,-1
 528.434570312 500 l 1,6,-1
 518.737304688 458 l 1,7,-1
 177.737304688 458 l 1,4,-1
EndSplineSet
EndChar

StartChar: greater
Encoding: 62 62 33
Width: 413
GlyphClass: 2
Flags: W
LayerCount: 2
Back
Fore
SplineSet
66.23046875 1 m 5,0,-1
 80.775390625 64 l 5,1,-1
 342.950195312 277 l 5,2,-1
 179.125 490 l 5,3,-1
 183.973632812 511 l 5,4,-1
 226.973632812 511 l 5,5,-1
 423.102539062 256 l 5,6,-1
 109.23046875 1 l 5,7,-1
 66.23046875 1 l 5,0,-1
EndSplineSet
EndChar

StartChar: question
Encoding: 63 63 34
Width: 545
GlyphClass: 2
Flags: W
LayerCount: 2
Back
Fore
SplineSet
247 0 m 6,0,1
 237 0 237 0 231.154296875 5 c 4,2,3
 226.5390625 11 226.5390625 11 228.848632812 21 c 6,4,-1
 238.313476562 62 l 6,5,6
 240.391601562 71 240.391601562 71 248.23828125 79 c 260,7,8
 255.854492188 86 255.854492188 86 266.624023438 85 c 6,9,-1
 307.624023438 85 l 6,10,11
 315.624023438 85 315.624023438 85 321.23828125 79 c 260,12,13
 326.622070312 72 326.622070312 72 324.313476562 62 c 6,14,-1
 314.848632812 21 l 6,15,16
 312.5390625 11 312.5390625 11 304.154296875 5 c 4,17,18
 296 0 296 0 288 0 c 6,19,-1
 247 0 l 6,0,1
253.08984375 126 m 5,20,-1
 297.646484375 319 l 5,21,-1
 508.89453125 489 l 5,22,-1
 533.366210938 595 l 5,23,-1
 499.293945312 638 l 5,24,-1
 328.293945312 638 l 5,25,-1
 277.366210938 595 l 5,26,-1
 267.669921875 553 l 5,27,-1
 181.669921875 553 l 5,28,-1
 191.366210938 595 l 5,29,-1
 296.990234375 680 l 5,30,-1
 552.990234375 680 l 5,31,-1
 618.366210938 595 l 5,32,-1
 589.045898438 468 l 5,33,-1
 378.567382812 297 l 5,34,-1
 339.08984375 126 l 5,35,-1
 253.08984375 126 l 5,20,-1
EndSplineSet
EndChar

StartChar: at
Encoding: 64 64 35
Width: 568
GlyphClass: 2
Flags: W
LayerCount: 2
Back
Fore
SplineSet
359.55078125 128 m 1,0,-1
 418.653320312 384 l 1,1,-1
 374.653320312 384 l 1,2,-1
 321.725585938 341 l 1,3,-1
 282.478515625 171 l 1,4,-1
 315.55078125 128 l 1,5,-1
 359.55078125 128 l 1,0,-1
148.303710938 -42 m 1,6,-1
 82.6962890625 42 l 1,7,-1
 181.5078125 470 l 1,8,-1
 285.901367188 554 l 1,9,-1
 541.901367188 554 l 1,10,-1
 607.5078125 470 l 1,11,-1
 528.55078125 128 l 1,12,-1
 475.854492188 86 l 1,13,-1
 262.854492188 86 l 1,14,-1
 229.55078125 128 l 1,15,-1
 288.653320312 384 l 1,16,-1
 341.349609375 426 l 1,17,-1
 428.349609375 426 l 1,18,-1
 459.653320312 384 l 1,19,-1
 400.55078125 128 l 1,20,-1
 443.55078125 128 l 1,21,-1
 522.5078125 470 l 1,22,-1
 488.973632812 511 l 1,23,-1
 317.973632812 511 l 1,24,-1
 266.5078125 470 l 1,25,-1
 167.696289062 42 l 1,26,-1
 200.23046875 1 l 1,27,-1
 371.23046875 1 l 1,28,-1
 423.696289062 42 l 1,29,-1
 508.696289062 42 l 1,30,-1
 404.303710938 -42 l 1,31,-1
 148.303710938 -42 l 1,6,-1
EndSplineSet
EndChar

StartChar: A
Encoding: 65 65 36
Width: 587
GlyphClass: 2
Flags: W
LayerCount: 2
Back
Fore
SplineSet
508.653320312 384 m 5,0,-1
 557.366210938 595 l 5,1,-1
 523.293945312 638 l 5,2,-1
 352.293945312 638 l 5,3,-1
 301.366210938 595 l 5,4,-1
 252.653320312 384 l 5,5,-1
 508.653320312 384 l 5,0,-1
78 0 m 5,6,-1
 215.366210938 595 l 5,7,-1
 320.990234375 680 l 5,8,-1
 576.990234375 680 l 5,9,-1
 642.366210938 595 l 5,10,-1
 505 0 l 5,11,-1
 420 0 l 5,12,-1
 498.725585938 341 l 5,13,-1
 242.725585938 341 l 5,14,-1
 164 0 l 5,15,-1
 78 0 l 5,6,-1
EndSplineSet
EndChar

StartChar: B
Encoding: 66 66 37
Width: 587
GlyphClass: 2
Flags: W
LayerCount: 2
Back
Fore
SplineSet
387.696289062 42 m 5,0,-1
 441.624023438 85 l 5,1,-1
 490.567382812 297 l 5,2,-1
 456.725585938 341 l 5,3,-1
 244.725585938 341 l 5,4,-1
 175.696289062 42 l 5,5,-1
 387.696289062 42 l 5,0,-1
466.653320312 384 m 5,6,-1
 520.349609375 426 l 5,7,-1
 559.366210938 595 l 5,8,-1
 525.293945312 638 l 5,9,-1
 313.293945312 638 l 5,10,-1
 254.653320312 384 l 5,11,-1
 466.653320312 384 l 5,6,-1
80 0 m 5,12,-1
 236.990234375 680 l 5,13,-1
 578.990234375 680 l 5,14,-1
 644.366210938 595 l 5,15,-1
 605.349609375 426 l 5,16,-1
 551.653320312 384 l 5,17,-1
 549.653320312 384 l 5,18,-1
 524.112304688 360 l 5,19,-1
 575.567382812 297 l 5,20,-1
 526.624023438 85 l 5,21,-1
 422 0 l 5,22,-1
 80 0 l 5,12,-1
EndSplineSet
EndChar

StartChar: C
Encoding: 67 67 38
Width: 576
GlyphClass: 2
Flags: W
LayerCount: 2
Back
Fore
SplineSet
161 0 m 5,0,-1
 94.6240234375 85 l 5,1,-1
 212.366210938 595 l 5,2,-1
 317.990234375 680 l 5,3,-1
 573.990234375 680 l 5,4,-1
 639.366210938 595 l 5,5,-1
 629.669921875 553 l 5,6,-1
 544.669921875 553 l 5,7,-1
 554.366210938 595 l 5,8,-1
 520.293945312 638 l 5,9,-1
 349.293945312 638 l 5,10,-1
 298.366210938 595 l 5,11,-1
 180.624023438 85 l 5,12,-1
 211.696289062 42 l 5,13,-1
 382.696289062 42 l 5,14,-1
 436.624023438 85 l 5,15,-1
 446.08984375 126 l 5,16,-1
 531.08984375 126 l 5,17,-1
 521.624023438 85 l 5,18,-1
 417 0 l 5,19,-1
 161 0 l 5,0,-1
EndSplineSet
EndChar

StartChar: D
Encoding: 68 68 39
Width: 588
GlyphClass: 2
Flags: W
LayerCount: 2
Back
Fore
SplineSet
387.696289062 42 m 5,0,-1
 441.624023438 85 l 5,1,-1
 559.366210938 595 l 5,2,-1
 525.293945312 638 l 5,3,-1
 313.293945312 638 l 5,4,-1
 175.696289062 42 l 5,5,-1
 387.696289062 42 l 5,0,-1
80 0 m 5,6,-1
 236.990234375 680 l 5,7,-1
 578.990234375 680 l 5,8,-1
 644.366210938 595 l 5,9,-1
 526.624023438 85 l 5,10,-1
 422 0 l 5,11,-1
 80 0 l 5,6,-1
EndSplineSet
EndChar

StartChar: E
Encoding: 69 69 40
Width: 562
GlyphClass: 2
Flags: W
LayerCount: 2
Back
Fore
SplineSet
80 0 m 5,0,-1
 236.990234375 680 l 5,1,-1
 663.990234375 680 l 5,2,-1
 654.293945312 638 l 5,3,-1
 313.293945312 638 l 5,4,-1
 254.653320312 384 l 5,5,-1
 510.653320312 384 l 5,6,-1
 500.725585938 341 l 5,7,-1
 244.725585938 341 l 5,8,-1
 175.696289062 42 l 5,9,-1
 516.696289062 42 l 5,10,-1
 507 0 l 5,11,-1
 80 0 l 5,0,-1
EndSplineSet
EndChar

StartChar: F
Encoding: 70 70 41
Width: 553
VWidth: 1097
GlyphClass: 2
Flags: W
LayerCount: 2
Back
Fore
SplineSet
80 0 m 1,0,-1
 236.990234375 680 l 5,1,-1
 663.990234375 680 l 5,2,-1
 654.293945312 638 l 1,3,-1
 313.293945312 638 l 1,4,-1
 254.653320312 384 l 1,5,-1
 510.653320312 384 l 1,6,-1
 500.725585938 341 l 1,7,-1
 244.725585938 341 l 1,8,-1
 166 0 l 1,9,-1
 80 0 l 1,0,-1
EndSplineSet
EndChar

StartChar: G
Encoding: 71 71 42
Width: 581
VWidth: 1097
GlyphClass: 2
Flags: W
LayerCount: 2
Back
Fore
SplineSet
161 0 m 5,0,-1
 94.6240234375 85 l 5,1,-1
 212.366210938 595 l 5,2,-1
 317.990234375 680 l 5,3,-1
 573.990234375 680 l 5,4,-1
 639.366210938 595 l 5,5,-1
 629.669921875 553 l 5,6,-1
 544.669921875 553 l 5,7,-1
 554.366210938 595 l 5,8,-1
 520.293945312 638 l 5,9,-1
 349.293945312 638 l 5,10,-1
 298.366210938 595 l 5,11,-1
 180.624023438 85 l 5,12,-1
 211.696289062 42 l 5,13,-1
 382.696289062 42 l 5,14,-1
 436.624023438 85 l 5,15,-1
 485.567382812 297 l 5,16,-1
 356.567382812 297 l 5,17,-1
 366.725585938 341 l 5,18,-1
 580.725585938 341 l 5,19,-1
 521.624023438 85 l 5,20,-1
 417 0 l 5,21,-1
 161 0 l 5,0,-1
EndSplineSet
EndChar

StartChar: H
Encoding: 72 72 43
Width: 590
VWidth: 1107
GlyphClass: 2
Flags: W
LayerCount: 2
Back
Fore
SplineSet
80 0 m 5,0,-1
 236.990234375 680 l 5,1,-1
 322.990234375 680 l 5,2,-1
 254.653320312 384 l 5,3,-1
 510.653320312 384 l 5,4,-1
 578.990234375 680 l 5,5,-1
 663.990234375 680 l 5,6,-1
 507 0 l 5,7,-1
 422 0 l 5,8,-1
 500.725585938 341 l 5,9,-1
 244.725585938 341 l 5,10,-1
 166 0 l 5,11,-1
 80 0 l 5,0,-1
EndSplineSet
EndChar

StartChar: I
Encoding: 73 73 44
Width: 249
VWidth: 1107
GlyphClass: 2
Flags: W
LayerCount: 2
Back
Fore
SplineSet
80 0 m 1,0,-1
 236.990234375 680 l 1,1,-1
 322.990234375 680 l 1,2,-1
 166 0 l 1,3,-1
 80 0 l 1,0,-1
EndSplineSet
EndChar

StartChar: J
Encoding: 74 74 45
Width: 571
VWidth: 1107
GlyphClass: 2
Flags: W
LayerCount: 2
Back
Fore
SplineSet
147 0 m 1,0,-1
 81.6240234375 85 l 1,1,-1
 91.08984375 126 l 1,2,-1
 176.08984375 126 l 1,3,-1
 166.624023438 85 l 1,4,-1
 198.696289062 42 l 1,5,-1
 369.696289062 42 l 1,6,-1
 421.624023438 85 l 1,7,-1
 558.990234375 680 l 1,8,-1
 644.990234375 680 l 1,9,-1
 507.624023438 85 l 1,10,-1
 402 0 l 1,11,-1
 147 0 l 1,0,-1
EndSplineSet
EndChar

StartChar: K
Encoding: 75 75 46
Width: 559
VWidth: 1107
GlyphClass: 2
Flags: W
LayerCount: 2
Back
Fore
SplineSet
80 0 m 1,0,-1
 236.990234375 680 l 1,1,-1
 321.990234375 680 l 1,2,-1
 253.653320312 384 l 1,3,-1
 619.990234375 680 l 1,4,-1
 662.990234375 680 l 1,5,-1
 658.142578125 659 l 1,6,-1
 290.112304688 360 l 1,7,-1
 285.725585938 341 l 1,8,-1
 515.696289062 42 l 1,9,-1
 506 0 l 1,10,-1
 463 0 l 1,11,-1
 233.567382812 297 l 1,12,-1
 165 0 l 1,13,-1
 80 0 l 1,0,-1
EndSplineSet
EndChar

StartChar: L
Encoding: 76 76 47
Width: 557
VWidth: 1107
GlyphClass: 2
Flags: W
LayerCount: 2
Back
Fore
SplineSet
80 0 m 1,0,-1
 236.990234375 680 l 1,1,-1
 321.990234375 680 l 1,2,-1
 174.696289062 42 l 1,3,-1
 515.696289062 42 l 1,4,-1
 506 0 l 1,5,-1
 80 0 l 1,0,-1
EndSplineSet
EndChar

StartChar: M
Encoding: 77 77 48
Width: 673
VWidth: 1107
GlyphClass: 2
Flags: W
LayerCount: 2
Back
Fore
SplineSet
80 0 m 1,0,-1
 236.990234375 680 l 1,1,-1
 299.990234375 680 l 1,2,-1
 403.567382812 297 l 1,3,-1
 683.990234375 680 l 1,4,-1
 746.990234375 680 l 1,5,-1
 590 0 l 1,6,-1
 505 0 l 1,7,-1
 632.669921875 553 l 1,8,-1
 383.944335938 212 l 1,9,-1
 292.669921875 553 l 1,10,-1
 165 0 l 1,11,-1
 80 0 l 1,0,-1
EndSplineSet
EndChar

StartChar: N
Encoding: 78 78 49
Width: 589
VWidth: 1107
GlyphClass: 2
Flags: W
LayerCount: 2
Back
Fore
SplineSet
80 0 m 1,0,-1
 236.990234375 680 l 1,1,-1
 301.990234375 680 l 1,2,-1
 449.08984375 126 l 1,3,-1
 576.990234375 680 l 1,4,-1
 662.990234375 680 l 1,5,-1
 506 0 l 1,6,-1
 442 0 l 1,7,-1
 292.669921875 553 l 1,8,-1
 165 0 l 1,9,-1
 80 0 l 1,0,-1
EndSplineSet
EndChar

StartChar: O
Encoding: 79 79 50
Width: 582
VWidth: 1107
GlyphClass: 2
Flags: W
LayerCount: 2
Back
Fore
SplineSet
382.696289062 42 m 1,0,-1
 434.624023438 85 l 1,1,-1
 552.366210938 595 l 1,2,-1
 520.293945312 638 l 1,3,-1
 349.293945312 638 l 1,4,-1
 297.366210938 595 l 1,5,-1
 179.624023438 85 l 1,6,-1
 211.696289062 42 l 1,7,-1
 382.696289062 42 l 1,0,-1
160 0 m 1,8,-1
 94.6240234375 85 l 1,9,-1
 212.366210938 595 l 1,10,-1
 316.990234375 680 l 1,11,-1
 571.990234375 680 l 1,12,-1
 638.366210938 595 l 1,13,-1
 520.624023438 85 l 1,14,-1
 415 0 l 1,15,-1
 160 0 l 1,8,-1
EndSplineSet
EndChar

StartChar: P
Encoding: 80 80 51
Width: 566
VWidth: 1107
GlyphClass: 2
Flags: W
LayerCount: 2
Back
Fore
SplineSet
466.653320312 384 m 1,0,-1
 518.349609375 426 l 1,1,-1
 557.366210938 595 l 1,2,-1
 525.293945312 638 l 1,3,-1
 312.293945312 638 l 1,4,-1
 253.653320312 384 l 1,5,-1
 466.653320312 384 l 1,0,-1
80 0 m 1,6,-1
 236.990234375 680 l 1,7,-1
 576.990234375 680 l 1,8,-1
 643.366210938 595 l 1,9,-1
 604.349609375 426 l 1,10,-1
 498.725585938 341 l 1,11,-1
 243.725585938 341 l 1,12,-1
 165 0 l 1,13,-1
 80 0 l 1,6,-1
EndSplineSet
EndChar

StartChar: Q
Encoding: 81 81 52
Width: 582
VWidth: 1107
GlyphClass: 2
Flags: W
LayerCount: 2
Back
Fore
SplineSet
385.236328125 53 m 1,0,-1
 436.701171875 94 l 1,1,-1
 554.90625 606 l 1,2,-1
 522.602539062 648 l 1,3,-1
 351.602539062 648 l 1,4,-1
 299.90625 606 l 1,5,-1
 181.701171875 94 l 1,6,-1
 214.236328125 53 l 1,7,-1
 385.236328125 53 l 1,0,-1
440.916015625 -74 m 1,8,-1
 375.30859375 10 l 1,9,-1
 162.30859375 10 l 1,10,-1
 96.701171875 94 l 1,11,-1
 214.90625 606 l 1,12,-1
 319.760742188 692 l 1,13,-1
 574.760742188 692 l 1,14,-1
 640.90625 606 l 1,15,-1
 522.701171875 94 l 1,16,-1
 417.30859375 10 l 1,17,-1
 483.916015625 -74 l 1,18,-1
 440.916015625 -74 l 1,8,-1
EndSplineSet
EndChar

StartChar: R
Encoding: 82 82 53
Width: 586
VWidth: 1107
GlyphClass: 2
Flags: W
LayerCount: 2
Back
Fore
SplineSet
466.653320312 384 m 1,0,-1
 518.349609375 426 l 1,1,-1
 557.366210938 595 l 1,2,-1
 525.293945312 638 l 1,3,-1
 312.293945312 638 l 1,4,-1
 253.653320312 384 l 1,5,-1
 466.653320312 384 l 1,0,-1
80 0 m 1,6,-1
 236.990234375 680 l 1,7,-1
 576.990234375 680 l 1,8,-1
 643.366210938 595 l 1,9,-1
 604.349609375 426 l 1,10,-1
 551.653320312 384 l 1,11,-1
 525.112304688 360 l 1,12,-1
 574.567382812 297 l 1,13,-1
 506 0 l 1,14,-1
 420 0 l 1,15,-1
 488.567382812 297 l 1,16,-1
 456.725585938 341 l 1,17,-1
 243.725585938 341 l 1,18,-1
 165 0 l 1,19,-1
 80 0 l 1,6,-1
EndSplineSet
EndChar

StartChar: S
Encoding: 83 83 54
Width: 567
VWidth: 1107
GlyphClass: 2
Flags: W
LayerCount: 2
Back
Fore
SplineSet
150 0 m 1,0,-1
 84.6240234375 85 l 1,1,-1
 94.08984375 126 l 1,2,-1
 179.08984375 126 l 1,3,-1
 169.624023438 85 l 1,4,-1
 201.696289062 42 l 1,5,-1
 372.696289062 42 l 1,6,-1
 424.624023438 85 l 1,7,-1
 444.478515625 171 l 1,8,-1
 182.743164062 510 l 1,9,-1
 202.366210938 595 l 1,10,-1
 306.990234375 680 l 1,11,-1
 561.990234375 680 l 1,12,-1
 628.366210938 595 l 1,13,-1
 618.669921875 553 l 1,14,-1
 532.669921875 553 l 1,15,-1
 542.366210938 595 l 1,16,-1
 510.293945312 638 l 1,17,-1
 339.293945312 638 l 1,18,-1
 287.366210938 595 l 1,19,-1
 272.822265625 532 l 1,20,-1
 535.327148438 192 l 1,21,-1
 510.624023438 85 l 1,22,-1
 405 0 l 1,23,-1
 150 0 l 1,0,-1
EndSplineSet
EndChar

StartChar: T
Encoding: 84 84 55
Width: 511
VWidth: 1107
GlyphClass: 2
Flags: W
LayerCount: 2
Back
Fore
SplineSet
211 0 m 1,0,-1
 358.293945312 638 l 1,1,-1
 188.293945312 638 l 1,2,-1
 197.990234375 680 l 1,3,-1
 623.990234375 680 l 5,4,-1
 614.293945312 638 l 1,5,-1
 444.293945312 638 l 1,6,-1
 297 0 l 1,7,-1
 211 0 l 1,0,-1
EndSplineSet
EndChar

StartChar: U
Encoding: 85 85 56
Width: 587
VWidth: 1107
GlyphClass: 2
Flags: W
LayerCount: 2
Back
Fore
SplineSet
163 0 m 1,0,-1
 97.6240234375 85 l 1,1,-1
 234.990234375 680 l 1,2,-1
 319.990234375 680 l 1,3,-1
 182.624023438 85 l 1,4,-1
 214.696289062 42 l 1,5,-1
 385.696289062 42 l 1,6,-1
 437.624023438 85 l 1,7,-1
 574.990234375 680 l 1,8,-1
 660.990234375 680 l 1,9,-1
 523.624023438 85 l 1,10,-1
 418 0 l 1,11,-1
 163 0 l 1,0,-1
EndSplineSet
EndChar

StartChar: V
Encoding: 86 86 57
Width: 553
VWidth: 1107
GlyphClass: 2
Flags: W
LayerCount: 2
Back
Fore
SplineSet
80 0 m 1,0,-1
 236.990234375 680 l 1,1,-1
 321.990234375 680 l 1,2,-1
 184.624023438 85 l 1,3,-1
 207.624023438 85 l 1,4,-1
 634.990234375 680 l 5,5,-1
 662.990234375 680 l 1,6,-1
 653.293945312 638 l 1,7,-1
 186 0 l 1,8,-1
 80 0 l 1,0,-1
EndSplineSet
EndChar

StartChar: W
Encoding: 87 87 58
Width: 808
VWidth: 1107
GlyphClass: 2
Flags: W
LayerCount: 2
Back
Fore
SplineSet
80 0 m 1,0,-1
 236.990234375 680 l 1,1,-1
 322.990234375 680 l 1,2,-1
 185.624023438 85 l 1,3,-1
 205.624023438 85 l 1,4,-1
 516.743164062 510 l 1,5,-1
 537.743164062 510 l 1,6,-1
 439.624023438 85 l 1,7,-1
 460.624023438 85 l 1,8,-1
 803.669921875 553 l 1,9,-1
 890.990234375 680 l 5,10,-1
 917.990234375 680 l 1,11,-1
 908.293945312 638 l 1,12,-1
 441 0 l 1,13,-1
 335 0 l 1,14,-1
 403.567382812 297 l 1,15,-1
 186 0 l 1,16,-1
 80 0 l 1,0,-1
EndSplineSet
EndChar

StartChar: X
Encoding: 88 88 59
Width: 584
VWidth: 1107
GlyphClass: 2
Flags: W
LayerCount: 2
Back
Fore
SplineSet
77 0 m 1,0,-1
 135.87109375 255 l 1,1,-1
 240.725585938 341 l 1,2,-1
 266.112304688 360 l 1,3,-1
 185.045898438 468 l 1,4,-1
 233.990234375 680 l 1,5,-1
 318.990234375 680 l 1,6,-1
 270.045898438 468 l 1,7,-1
 335.653320312 384 l 1,8,-1
 421.653320312 384 l 1,9,-1
 525.045898438 468 l 1,10,-1
 573.990234375 680 l 1,11,-1
 659.990234375 680 l 1,12,-1
 611.045898438 468 l 1,13,-1
 505.653320312 384 l 1,14,-1
 479.112304688 360 l 1,15,-1
 561.87109375 255 l 1,16,-1
 503 0 l 1,17,-1
 417 0 l 1,18,-1
 475.87109375 255 l 1,19,-1
 411.725585938 341 l 1,20,-1
 325.725585938 341 l 1,21,-1
 220.87109375 255 l 1,22,-1
 162 0 l 1,23,-1
 77 0 l 1,0,-1
EndSplineSet
EndChar

StartChar: Y
Encoding: 89 89 60
Width: 547
VWidth: 1107
GlyphClass: 2
Flags: W
LayerCount: 2
Back
Fore
SplineSet
166 0 m 1,0,-1
 175.696289062 42 l 1,1,-1
 304.696289062 42 l 1,2,-1
 408.08984375 126 l 1,3,-1
 437.87109375 255 l 1,4,-1
 310.87109375 255 l 1,5,-1
 195.990234375 680 l 1,6,-1
 280.990234375 680 l 1,7,-1
 384.567382812 297 l 1,8,-1
 447.567382812 297 l 1,9,-1
 535.990234375 680 l 1,10,-1
 621.990234375 680 l 1,11,-1
 494.08984375 126 l 1,12,-1
 337 0 l 1,13,-1
 166 0 l 1,0,-1
EndSplineSet
EndChar

StartChar: Z
Encoding: 90 90 61
Width: 532
VWidth: 1107
GlyphClass: 2
Flags: W
LayerCount: 2
Back
Fore
SplineSet
51 0 m 1,0,-1
 517.293945312 638 l 1,1,-1
 198.293945312 638 l 1,2,-1
 207.990234375 680 l 1,3,-1
 633.990234375 680 l 1,4,-1
 624.293945312 638 l 1,5,-1
 187.696289062 42 l 1,6,-1
 486.696289062 42 l 1,7,-1
 477 0 l 1,8,-1
 51 0 l 1,0,-1
EndSplineSet
EndChar

StartChar: bracketleft
Encoding: 91 91 62
Width: 304
GlyphClass: 2
Flags: W
LayerCount: 2
Back
Fore
SplineSet
52.91015625 -126 m 1,0,-1
 229.293945312 638 l 1,1,-1
 399.293945312 638 l 1,2,-1
 389.828125 597 l 1,3,-1
 304.828125 597 l 1,4,-1
 147.375976562 -85 l 1,5,-1
 232.375976562 -85 l 1,6,-1
 222.91015625 -126 l 1,7,-1
 52.91015625 -126 l 1,0,-1
EndSplineSet
EndChar

StartChar: backslash
Encoding: 92 92 63
Width: 514
GlyphClass: 2
Flags: W
LayerCount: 2
Back
Fore
SplineSet
370.375976562 -85 m 1,0,-1
 186.828125 597 l 1,1,-1
 271.828125 597 l 1,2,-1
 455.375976562 -85 l 1,3,-1
 370.375976562 -85 l 1,0,-1
EndSplineSet
EndChar

StartChar: bracketright
Encoding: 93 93 64
Width: 302
GlyphClass: 2
Flags: W
LayerCount: 2
Back
Fore
SplineSet
20.91015625 -126 m 1,0,-1
 30.3759765625 -85 l 1,1,-1
 115.375976562 -85 l 1,2,-1
 272.828125 597 l 1,3,-1
 187.828125 597 l 1,4,-1
 197.293945312 638 l 1,5,-1
 367.293945312 638 l 1,6,-1
 190.91015625 -126 l 1,7,-1
 20.91015625 -126 l 1,0,-1
EndSplineSet
EndChar

StartChar: asciicircum
Encoding: 94 94 65
Width: 478
GlyphClass: 2
Flags: W
LayerCount: 2
Back
Fore
SplineSet
186.435546875 513 m 1,0,-1
 196.362304688 556 l 1,1,-1
 385.755859375 640 l 5,2,-1
 536.362304688 556 l 1,3,-1
 526.435546875 513 l 1,4,-1
 484.435546875 513 l 1,5,-1
 351.750976562 588 l 1,6,-1
 186.435546875 513 l 1,0,-1
EndSplineSet
EndChar

StartChar: underscore
Encoding: 95 95 66
Width: 679
GlyphClass: 2
Flags: W
LayerCount: 2
Back
Fore
SplineSet
74.3037109375 -42 m 5,0,-1
 84 0 l 5,1,-1
 594 0 l 5,2,-1
 584.303710938 -42 l 5,3,-1
 74.3037109375 -42 l 5,0,-1
EndSplineSet
EndChar

StartChar: grave
Encoding: 96 96 67
Width: 390
GlyphClass: 2
Flags: W
LayerCount: 2
Back
Fore
SplineSet
392.586914062 492 m 1,0,-1
 204.059570312 598 l 1,1,-1
 213.755859375 640 l 5,2,-1
 256.755859375 640 l 1,3,-1
 445.283203125 534 l 1,4,-1
 435.586914062 492 l 1,5,-1
 392.586914062 492 l 1,0,-1
EndSplineSet
EndChar

StartChar: a
Encoding: 97 97 68
Width: 570
GlyphClass: 2
Flags: W
LayerCount: 2
Back
Fore
SplineSet
416.158203125 44 m 5,0,-1
 445.478515625 171 l 5,1,-1
 232.478515625 171 l 5,2,-1
 179.55078125 128 l 5,3,-1
 169.854492188 86 l 5,4,-1
 203.158203125 44 l 5,5,-1
 416.158203125 44 l 5,0,-1
150.23046875 1 m 5,6,-1
 84.8544921875 86 l 5,7,-1
 94.55078125 128 l 5,8,-1
 199.40625 214 l 5,9,-1
 455.40625 214 l 5,10,-1
 475.029296875 299 l 5,11,-1
 441.725585938 341 l 5,12,-1
 271.725585938 341 l 5,13,-1
 219.029296875 299 l 5,14,-1
 134.029296875 299 l 5,15,-1
 239.115234375 386 l 5,16,-1
 495.115234375 386 l 5,17,-1
 560.029296875 299 l 5,18,-1
 491.23046875 1 l 5,19,-1
 150.23046875 1 l 5,6,-1
EndSplineSet
EndChar

StartChar: b
Encoding: 98 98 69
Width: 584
GlyphClass: 2
Flags: W
LayerCount: 2
Back
Fore
SplineSet
387.696289062 42 m 5,0,-1
 441.624023438 85 l 5,1,-1
 490.567382812 297 l 5,2,-1
 456.725585938 341 l 5,3,-1
 244.725585938 341 l 5,4,-1
 175.696289062 42 l 5,5,-1
 387.696289062 42 l 5,0,-1
80 0 m 5,6,-1
 236.990234375 680 l 5,7,-1
 322.990234375 680 l 5,8,-1
 254.653320312 384 l 5,9,-1
 510.653320312 384 l 5,10,-1
 575.567382812 297 l 5,11,-1
 526.624023438 85 l 5,12,-1
 422 0 l 5,13,-1
 80 0 l 5,6,-1
EndSplineSet
EndChar

StartChar: c
Encoding: 99 99 70
Width: 565
GlyphClass: 2
Flags: W
LayerCount: 2
Back
Fore
SplineSet
155.23046875 1 m 5,0,-1
 89.8544921875 86 l 5,1,-1
 139.029296875 299 l 5,2,-1
 244.115234375 386 l 5,3,-1
 500.115234375 386 l 5,4,-1
 565.029296875 299 l 5,5,-1
 480.029296875 299 l 5,6,-1
 446.725585938 341 l 5,7,-1
 276.725585938 341 l 5,8,-1
 224.029296875 299 l 5,9,-1
 174.854492188 86 l 5,10,-1
 208.158203125 44 l 5,11,-1
 378.158203125 44 l 5,12,-1
 430.854492188 86 l 5,13,-1
 515.854492188 86 l 5,14,-1
 411.23046875 1 l 5,15,-1
 155.23046875 1 l 5,0,-1
EndSplineSet
EndChar

StartChar: d
Encoding: 100 100 71
Width: 579
GlyphClass: 2
Flags: W
LayerCount: 2
Back
Fore
SplineSet
420.696289062 42 m 5,0,-1
 489.725585938 341 l 5,1,-1
 274.725585938 341 l 5,2,-1
 223.567382812 297 l 5,3,-1
 174.624023438 85 l 5,4,-1
 205.696289062 42 l 5,5,-1
 420.696289062 42 l 5,0,-1
155 0 m 5,6,-1
 88.6240234375 85 l 5,7,-1
 137.567382812 297 l 5,8,-1
 243.653320312 384 l 5,9,-1
 499.653320312 384 l 5,10,-1
 567.990234375 680 l 5,11,-1
 652.990234375 680 l 5,12,-1
 496 0 l 5,13,-1
 155 0 l 5,6,-1
EndSplineSet
EndChar

StartChar: e
Encoding: 101 101 72
Width: 573
GlyphClass: 2
Flags: W
LayerCount: 2
Back
Fore
SplineSet
460.40625 214 m 5,0,-1
 480.029296875 299 l 5,1,-1
 446.725585938 341 l 5,2,-1
 276.725585938 341 l 5,3,-1
 224.029296875 299 l 5,4,-1
 204.40625 214 l 5,5,-1
 460.40625 214 l 5,0,-1
155.23046875 1 m 5,6,-1
 89.8544921875 86 l 5,7,-1
 139.029296875 299 l 5,8,-1
 244.115234375 386 l 5,9,-1
 500.115234375 386 l 5,10,-1
 565.029296875 299 l 5,11,-1
 535.478515625 171 l 5,12,-1
 194.478515625 171 l 5,13,-1
 174.854492188 86 l 5,14,-1
 208.158203125 44 l 5,15,-1
 378.158203125 44 l 5,16,-1
 430.854492188 86 l 5,17,-1
 515.854492188 86 l 5,18,-1
 411.23046875 1 l 5,19,-1
 155.23046875 1 l 5,6,-1
EndSplineSet
EndChar

StartChar: f
Encoding: 102 102 73
Width: 395
GlyphClass: 2
Flags: W
LayerCount: 2
Back
Fore
SplineSet
78 0 m 5,0,-1
 215.366210938 595 l 5,1,-1
 320.990234375 680 l 5,2,-1
 490.990234375 680 l 5,3,-1
 481.293945312 638 l 5,4,-1
 352.293945312 638 l 5,5,-1
 301.366210938 595 l 5,6,-1
 252.653320312 384 l 5,7,-1
 422.653320312 384 l 5,8,-1
 412.725585938 341 l 5,9,-1
 242.725585938 341 l 5,10,-1
 164 0 l 5,11,-1
 78 0 l 5,0,-1
EndSplineSet
EndChar

StartChar: g
Encoding: 103 103 74
Width: 577
GlyphClass: 2
Flags: W
LayerCount: 2
Back
Fore
SplineSet
422.158203125 44 m 5,0,-1
 490.725585938 341 l 5,1,-1
 275.725585938 341 l 5,2,-1
 225.260742188 300 l 5,3,-1
 175.854492188 86 l 5,4,-1
 207.158203125 44 l 5,5,-1
 422.158203125 44 l 5,0,-1
116.983398438 -169 m 5,6,-1
 126.91015625 -126 l 5,7,-1
 338.91015625 -126 l 5,8,-1
 392.375976562 -85 l 5,9,-1
 412.461914062 2 l 5,10,-1
 156.461914062 2 l 5,11,-1
 89.8544921875 86 l 5,12,-1
 139.260742188 300 l 5,13,-1
 245.115234375 386 l 5,14,-1
 586.115234375 386 l 5,15,-1
 477.375976562 -85 l 5,16,-1
 372.983398438 -169 l 5,17,-1
 116.983398438 -169 l 5,6,-1
EndSplineSet
EndChar

StartChar: h
Encoding: 104 104 75
Width: 585
VWidth: 1107
GlyphClass: 2
Flags: W
LayerCount: 2
Back
Fore
SplineSet
80 0 m 1,0,-1
 236.990234375 680 l 1,1,-1
 321.990234375 680 l 1,2,-1
 253.653320312 384 l 1,3,-1
 509.653320312 384 l 1,4,-1
 574.567382812 297 l 1,5,-1
 506 0 l 1,6,-1
 421 0 l 1,7,-1
 489.567382812 297 l 1,8,-1
 456.725585938 341 l 1,9,-1
 243.725585938 341 l 1,10,-1
 165 0 l 1,11,-1
 80 0 l 1,0,-1
EndSplineSet
EndChar

StartChar: i
Encoding: 105 105 76
Width: 244
GlyphClass: 2
Flags: W
LayerCount: 2
Back
Fore
SplineSet
78 0 m 1,0,-1
 166.653320312 384 l 1,1,-1
 252.653320312 384 l 1,2,-1
 164 0 l 1,3,-1
 78 0 l 1,0,-1
198.349609375 426 m 6,4,5
 188.349609375 426 188.349609375 426 183.50390625 431 c 260,6,7
 178.889648438 437 178.889648438 437 180.966796875 446 c 6,8,-1
 190.6640625 488 l 6,9,10
 192.741210938 497 192.741210938 497 200.357421875 504 c 4,11,12
 207.743164062 510 207.743164062 510 217.743164062 510 c 6,13,-1
 258.743164062 510 l 6,14,15
 266.743164062 510 266.743164062 510 274.357421875 504 c 4,16,17
 279.741210938 497 279.741210938 497 276.89453125 489 c 6,18,-1
 266.966796875 446 l 6,19,20
 264.658203125 436 264.658203125 436 257.50390625 431 c 260,21,22
 249.119140625 425 249.119140625 425 239.349609375 426 c 6,23,-1
 198.349609375 426 l 6,4,5
EndSplineSet
EndChar

StartChar: j
Encoding: 106 106 77
Width: 328
GlyphClass: 2
Flags: W
LayerCount: 2
Back
Fore
SplineSet
-6.7861328125 -168 m 5,0,-1
 2.91015625 -126 l 5,1,-1
 88.91015625 -126 l 5,2,-1
 139.837890625 -83 l 5,3,-1
 248.115234375 386 l 5,4,-1
 334.115234375 386 l 5,5,-1
 225.837890625 -83 l 5,6,-1
 120.213867188 -168 l 5,7,-1
 -6.7861328125 -168 l 5,0,-1
308.349609375 426 m 6,8,9
 271.349609375 426 271.349609375 426 264.965820312 433 c 260,10,11
 260.3515625 439 260.3515625 439 262.890625 450 c 6,12,-1
 272.356445312 491 l 6,13,14
 274.434570312 500 274.434570312 500 282.049804688 507 c 4,15,16
 289.435546875 513 289.435546875 513 298.435546875 513 c 6,17,-1
 341.435546875 513 l 6,18,19
 349.435546875 513 349.435546875 513 355.049804688 507 c 4,20,21
 359.434570312 500 359.434570312 500 358.586914062 492 c 6,22,-1
 348.890625 450 l 6,23,24
 346.58203125 440 346.58203125 440 337.965820312 433 c 4,25,26
 344.041992188 429 344.041992188 429 351.349609375 426 c 6,27,-1
 308.349609375 426 l 6,8,9
EndSplineSet
EndChar

StartChar: k
Encoding: 107 107 78
Width: 569
VWidth: 1107
GlyphClass: 2
Flags: W
LayerCount: 2
Back
Fore
SplineSet
80 0 m 5,0,-1
 236.990234375 680 l 5,1,-1
 322.990234375 680 l 5,2,-1
 224.87109375 255 l 5,3,-1
 510.653320312 384 l 5,4,-1
 595.653320312 384 l 5,5,-1
 590.112304688 360 l 5,6,-1
 320.408203125 240 l 5,7,-1
 507 0 l 5,8,-1
 441 0 l 5,9,-1
 276.944335938 212 l 5,10,-1
 255.944335938 212 l 5,11,-1
 210.327148438 192 l 5,12,-1
 166 0 l 5,13,-1
 80 0 l 5,0,-1
EndSplineSet
EndChar

StartChar: l
Encoding: 108 108 79
Width: 295
VWidth: 1107
GlyphClass: 2
Flags: W
LayerCount: 2
Back
Fore
SplineSet
164 0 m 5,0,-1
 97.6240234375 85 l 5,1,-1
 234.990234375 680 l 5,2,-1
 320.990234375 680 l 5,3,-1
 183.624023438 85 l 5,4,-1
 214.696289062 42 l 5,5,-1
 257.696289062 42 l 5,6,-1
 248 0 l 5,7,-1
 164 0 l 5,0,-1
EndSplineSet
EndChar

StartChar: m
Encoding: 109 109 80
Width: 666
GlyphClass: 2
Flags: W
LayerCount: 2
Back
Fore
SplineSet
77.23046875 1 m 5,0,-1
 166.115234375 386 l 5,1,-1
 378.115234375 386 l 5,2,-1
 410.725585938 341 l 5,3,-1
 464.115234375 386 l 5,4,-1
 592.115234375 386 l 5,5,-1
 656.029296875 299 l 5,6,-1
 587.23046875 1 l 5,7,-1
 503.23046875 1 l 5,8,-1
 572.029296875 299 l 5,9,-1
 539.725585938 341 l 5,10,-1
 496.725585938 341 l 5,11,-1
 444.029296875 299 l 5,12,-1
 375.23046875 1 l 5,13,-1
 289.23046875 1 l 5,14,-1
 358.029296875 299 l 5,15,-1
 326.725585938 341 l 5,16,-1
 240.725585938 341 l 5,17,-1
 162.23046875 1 l 5,18,-1
 77.23046875 1 l 5,0,-1
EndSplineSet
EndChar

StartChar: n
Encoding: 110 110 81
Width: 582
GlyphClass: 2
Flags: W
LayerCount: 2
Back
Fore
SplineSet
77.23046875 1 m 5,0,-1
 166.115234375 386 l 5,1,-1
 507.115234375 386 l 5,2,-1
 572.029296875 299 l 5,3,-1
 503.23046875 1 l 5,4,-1
 418.23046875 1 l 5,5,-1
 487.029296875 299 l 5,6,-1
 453.725585938 341 l 5,7,-1
 240.725585938 341 l 5,8,-1
 162.23046875 1 l 5,9,-1
 77.23046875 1 l 5,0,-1
EndSplineSet
EndChar

StartChar: o
Encoding: 111 111 82
Width: 574
GlyphClass: 2
Flags: W
LayerCount: 2
Back
Fore
SplineSet
378.158203125 44 m 5,0,-1
 430.854492188 86 l 5,1,-1
 480.029296875 299 l 5,2,-1
 446.725585938 341 l 5,3,-1
 276.725585938 341 l 5,4,-1
 224.029296875 299 l 5,5,-1
 174.854492188 86 l 5,6,-1
 208.158203125 44 l 5,7,-1
 378.158203125 44 l 5,0,-1
155.23046875 1 m 5,8,-1
 89.8544921875 86 l 5,9,-1
 139.029296875 299 l 5,10,-1
 244.115234375 386 l 5,11,-1
 500.115234375 386 l 5,12,-1
 565.029296875 299 l 5,13,-1
 515.854492188 86 l 5,14,-1
 411.23046875 1 l 5,15,-1
 155.23046875 1 l 5,8,-1
EndSplineSet
EndChar

StartChar: p
Encoding: 112 112 83
Width: 582
GlyphClass: 2
Flags: W
LayerCount: 2
Back
Fore
SplineSet
385.158203125 44 m 5,0,-1
 438.854492188 86 l 5,1,-1
 488.260742188 300 l 5,2,-1
 453.725585938 341 l 5,3,-1
 241.725585938 341 l 5,4,-1
 173.158203125 44 l 5,5,-1
 385.158203125 44 l 5,0,-1
37.9833984375 -169 m 5,6,-1
 166.115234375 386 l 5,7,-1
 508.115234375 386 l 5,8,-1
 573.260742188 300 l 5,9,-1
 523.854492188 86 l 5,10,-1
 419.461914062 2 l 5,11,-1
 163.461914062 2 l 5,12,-1
 123.983398438 -169 l 5,13,-1
 37.9833984375 -169 l 5,6,-1
EndSplineSet
EndChar

StartChar: q
Encoding: 113 113 84
Width: 577
GlyphClass: 2
Flags: W
LayerCount: 2
Back
Fore
SplineSet
422.158203125 44 m 5,0,-1
 490.725585938 341 l 5,1,-1
 275.725585938 341 l 5,2,-1
 225.260742188 300 l 5,3,-1
 175.854492188 86 l 5,4,-1
 207.158203125 44 l 5,5,-1
 422.158203125 44 l 5,0,-1
372.983398438 -169 m 5,6,-1
 412.461914062 2 l 5,7,-1
 156.461914062 2 l 5,8,-1
 89.8544921875 86 l 5,9,-1
 139.260742188 300 l 5,10,-1
 245.115234375 386 l 5,11,-1
 586.115234375 386 l 5,12,-1
 457.983398438 -169 l 5,13,-1
 372.983398438 -169 l 5,6,-1
EndSplineSet
EndChar

StartChar: r
Encoding: 114 114 85
Width: 568
GlyphClass: 2
Flags: W
LayerCount: 2
Back
Fore
SplineSet
77.23046875 1 m 5,0,-1
 166.115234375 386 l 5,1,-1
 507.115234375 386 l 5,2,-1
 572.029296875 299 l 5,3,-1
 487.029296875 299 l 5,4,-1
 453.725585938 341 l 5,5,-1
 240.725585938 341 l 5,6,-1
 162.23046875 1 l 5,7,-1
 77.23046875 1 l 5,0,-1
EndSplineSet
EndChar

StartChar: s
Encoding: 115 115 86
Width: 570
GlyphClass: 2
Flags: W
LayerCount: 2
Back
Fore
SplineSet
153.23046875 1 m 5,0,-1
 87.8544921875 86 l 5,1,-1
 172.854492188 86 l 5,2,-1
 206.158203125 44 l 5,3,-1
 376.158203125 44 l 5,4,-1
 428.854492188 86 l 5,5,-1
 438.55078125 128 l 5,6,-1
 405.478515625 171 l 5,7,-1
 149.478515625 171 l 5,8,-1
 117.40625 214 l 5,9,-1
 137.029296875 299 l 5,10,-1
 242.115234375 386 l 5,11,-1
 498.115234375 386 l 5,12,-1
 563.029296875 299 l 5,13,-1
 478.029296875 299 l 5,14,-1
 444.725585938 341 l 5,15,-1
 274.725585938 341 l 5,16,-1
 222.029296875 299 l 5,17,-1
 212.333007812 257 l 5,18,-1
 245.40625 214 l 5,19,-1
 501.40625 214 l 5,20,-1
 533.478515625 171 l 5,21,-1
 513.854492188 86 l 5,22,-1
 409.23046875 1 l 5,23,-1
 153.23046875 1 l 5,0,-1
EndSplineSet
EndChar

StartChar: t
Encoding: 116 116 87
Width: 349
GlyphClass: 2
Flags: W
LayerCount: 2
Back
Fore
SplineSet
161.23046875 1 m 5,0,-1
 94.8544921875 86 l 5,1,-1
 183.5078125 470 l 5,2,-1
 269.5078125 470 l 5,3,-1
 249.653320312 384 l 5,4,-1
 376.653320312 384 l 5,5,-1
 366.725585938 341 l 5,6,-1
 239.725585938 341 l 5,7,-1
 180.854492188 86 l 5,8,-1
 211.696289062 42 l 5,9,-1
 297.696289062 42 l 5,10,-1
 288.23046875 1 l 5,11,-1
 161.23046875 1 l 5,0,-1
EndSplineSet
EndChar

StartChar: u
Encoding: 117 117 88
Width: 578
GlyphClass: 2
Flags: W
LayerCount: 2
Back
Fore
SplineSet
157.23046875 1 m 5,0,-1
 91.8544921875 86 l 5,1,-1
 161.115234375 386 l 5,2,-1
 246.115234375 386 l 5,3,-1
 176.854492188 86 l 5,4,-1
 210.158203125 44 l 5,5,-1
 423.158203125 44 l 5,6,-1
 502.115234375 386 l 5,7,-1
 587.115234375 386 l 5,8,-1
 498.23046875 1 l 5,9,-1
 157.23046875 1 l 5,0,-1
EndSplineSet
EndChar

StartChar: v
Encoding: 118 118 89
Width: 511
GlyphClass: 2
Flags: W
LayerCount: 2
Back
Fore
SplineSet
158.23046875 1 m 5,0,-1
 91.8544921875 86 l 5,1,-1
 161.115234375 386 l 5,2,-1
 247.115234375 386 l 5,3,-1
 177.854492188 86 l 5,4,-1
 210.158203125 44 l 5,5,-1
 253.158203125 44 l 5,6,-1
 502.115234375 386 l 5,7,-1
 545.115234375 386 l 5,8,-1
 264.23046875 1 l 5,9,-1
 158.23046875 1 l 5,0,-1
EndSplineSet
EndChar

StartChar: w
Encoding: 119 119 90
Width: 685
GlyphClass: 2
Flags: W
LayerCount: 2
Back
Fore
SplineSet
77.23046875 1 m 5,0,-1
 166.115234375 386 l 5,1,-1
 251.115234375 386 l 5,2,-1
 172.158203125 44 l 5,3,-1
 422.115234375 386 l 5,4,-1
 507.115234375 386 l 5,5,-1
 428.158203125 44 l 5,6,-1
 677.115234375 386 l 5,7,-1
 720.115234375 386 l 5,8,-1
 438.23046875 1 l 5,9,-1
 333.23046875 1 l 5,10,-1
 402.029296875 299 l 5,11,-1
 183.23046875 1 l 5,12,-1
 77.23046875 1 l 5,0,-1
EndSplineSet
EndChar

StartChar: x
Encoding: 120 120 91
Width: 577
GlyphClass: 2
Flags: W
LayerCount: 2
Back
Fore
SplineSet
74.23046875 1 m 5,0,-1
 103.55078125 128 l 5,1,-1
 208.40625 214 l 5,2,-1
 143.029296875 299 l 5,3,-1
 163.115234375 386 l 5,4,-1
 248.115234375 386 l 5,5,-1
 228.029296875 299 l 5,6,-1
 277.485351562 236 l 5,7,-1
 405.485351562 236 l 5,8,-1
 484.029296875 299 l 5,9,-1
 504.115234375 386 l 5,10,-1
 589.115234375 386 l 5,11,-1
 569.029296875 299 l 5,12,-1
 464.40625 214 l 5,13,-1
 529.55078125 128 l 5,14,-1
 500.23046875 1 l 5,15,-1
 415.23046875 1 l 5,16,-1
 444.55078125 128 l 5,17,-1
 395.557617188 193 l 5,18,-1
 267.557617188 193 l 5,19,-1
 188.55078125 128 l 5,20,-1
 159.23046875 1 l 5,21,-1
 74.23046875 1 l 5,0,-1
EndSplineSet
EndChar

StartChar: y
Encoding: 121 121 92
Width: 579
GlyphClass: 2
Flags: W
LayerCount: 2
Back
Fore
SplineSet
118.983398438 -169 m 5,0,-1
 128.91015625 -126 l 5,1,-1
 340.91015625 -126 l 5,2,-1
 394.375976562 -85 l 5,3,-1
 414.461914062 2 l 5,4,-1
 158.461914062 2 l 5,5,-1
 91.8544921875 86 l 5,6,-1
 161.115234375 386 l 5,7,-1
 247.115234375 386 l 5,8,-1
 177.854492188 86 l 5,9,-1
 209.158203125 44 l 5,10,-1
 424.158203125 44 l 5,11,-1
 503.115234375 386 l 5,12,-1
 588.115234375 386 l 5,13,-1
 479.375976562 -85 l 5,14,-1
 374.983398438 -169 l 5,15,-1
 118.983398438 -169 l 5,0,-1
EndSplineSet
EndChar

StartChar: z
Encoding: 122 122 93
Width: 553
GlyphClass: 2
Flags: W
LayerCount: 2
Back
Fore
SplineSet
61.23046875 1 m 5,0,-1
 66.3095703125 23 l 5,1,-1
 458.725585938 341 l 5,2,-1
 139.725585938 341 l 5,3,-1
 150.115234375 386 l 5,4,-1
 576.115234375 386 l 5,5,-1
 565.725585938 341 l 5,6,-1
 199.158203125 44 l 5,7,-1
 497.158203125 44 l 5,8,-1
 487.23046875 1 l 5,9,-1
 61.23046875 1 l 5,0,-1
EndSplineSet
EndChar

StartChar: braceleft
Encoding: 123 123 94
Width: 348
GlyphClass: 2
Flags: W
LayerCount: 2
Back
Fore
SplineSet
206.303710938 -42 m 5,0,-1
 139.696289062 42 l 5,1,-1
 188.87109375 255 l 5,2,-1
 122.725585938 341 l 5,3,-1
 228.349609375 426 l 5,4,-1
 277.293945312 638 l 5,5,-1
 383.1484375 724 l 5,6,-1
 467.1484375 724 l 5,7,-1
 456.990234375 680 l 5,8,-1
 413.990234375 680 l 5,9,-1
 363.293945312 638 l 5,10,-1
 314.349609375 426 l 5,11,-1
 208.725585938 341 l 5,12,-1
 274.87109375 255 l 5,13,-1
 225.696289062 42 l 5,14,-1
 257 0 l 5,15,-1
 300 0 l 5,16,-1
 290.303710938 -42 l 5,17,-1
 206.303710938 -42 l 5,0,-1
EndSplineSet
EndChar

StartChar: bar
Encoding: 124 124 95
Width: 251
GlyphClass: 2
Flags: W
LayerCount: 2
Back
Fore
SplineSet
70.533203125 -54 m 5,0,-1
 247.377929688 712 l 5,1,-1
 333.377929688 712 l 5,2,-1
 156.533203125 -54 l 5,3,-1
 70.533203125 -54 l 5,0,-1
EndSplineSet
EndChar

StartChar: braceright
Encoding: 125 125 96
Width: 346
GlyphClass: 2
Flags: W
LayerCount: 2
Back
Fore
SplineSet
36.3037109375 -42 m 5,0,-1
 46 0 l 5,1,-1
 89 0 l 5,2,-1
 141.696289062 42 l 5,3,-1
 190.87109375 255 l 5,4,-1
 296.725585938 341 l 5,5,-1
 230.349609375 426 l 5,6,-1
 279.293945312 638 l 5,7,-1
 245.990234375 680 l 5,8,-1
 202.990234375 680 l 5,9,-1
 213.1484375 724 l 5,10,-1
 299.1484375 724 l 5,11,-1
 365.293945312 638 l 5,12,-1
 316.349609375 426 l 5,13,-1
 380.725585938 341 l 5,14,-1
 276.87109375 255 l 5,15,-1
 227.696289062 42 l 5,16,-1
 122.303710938 -42 l 5,17,-1
 36.3037109375 -42 l 5,0,-1
EndSplineSet
EndChar

StartChar: asciitilde
Encoding: 126 126 97
Width: 514
GlyphClass: 2
Flags: W
LayerCount: 2
Back
Fore
SplineSet
399.340820312 335 m 5,0,-1
 267.65625 410 l 5,1,-1
 148.189453125 356 l 5,2,-1
 157.654296875 397 l 5,3,-1
 299.430664062 461 l 5,4,-1
 432.115234375 386 l 5,5,-1
 553.043945312 442 l 5,6,-1
 542.654296875 397 l 5,7,-1
 399.340820312 335 l 5,0,-1
EndSplineSet
EndChar

StartChar: exclamdown
Encoding: 161 161 98
Width: 248
GlyphClass: 2
Flags: W
LayerCount: 2
Back
Fore
SplineSet
82 0 m 5,0,-1
 209.669921875 553 l 5,1,-1
 295.669921875 553 l 5,2,-1
 168 0 l 5,3,-1
 82 0 l 5,0,-1
241.366210938 595 m 6,4,5
 231.366210938 595 231.366210938 595 226.751953125 601 c 260,6,7
 222.13671875 607 222.13671875 607 224.4453125 617 c 6,8,-1
 234.142578125 659 l 6,9,10
 236.219726562 668 236.219726562 668 243.60546875 674 c 4,11,12
 250.990234375 680 250.990234375 680 260.990234375 680 c 6,13,-1
 301.990234375 680 l 6,14,15
 309.990234375 680 309.990234375 680 317.60546875 674 c 4,16,17
 322.989257812 667 322.989257812 667 320.142578125 659 c 6,18,-1
 310.4453125 617 l 6,19,20
 308.13671875 607 308.13671875 607 300.751953125 601 c 260,21,22
 292.366210938 595 292.366210938 595 282.366210938 595 c 6,23,-1
 241.366210938 595 l 6,4,5
EndSplineSet
EndChar

StartChar: cent
Encoding: 162 162 99
Width: 546
GlyphClass: 2
Flags: W
LayerCount: 2
Back
Fore
SplineSet
234.461914062 2 m 5,0,-1
 253.854492188 86 l 5,1,-1
 169.854492188 86 l 5,2,-1
 103.940429688 173 l 5,3,-1
 153.115234375 386 l 5,4,-1
 258.739257812 471 l 5,5,-1
 342.739257812 471 l 5,6,-1
 362.362304688 556 l 5,7,-1
 448.362304688 556 l 5,8,-1
 428.739257812 471 l 5,9,-1
 514.739257812 471 l 5,10,-1
 580.115234375 386 l 5,11,-1
 570.1875 343 l 5,12,-1
 485.1875 343 l 5,13,-1
 495.115234375 386 l 5,14,-1
 460.581054688 427 l 5,15,-1
 289.581054688 427 l 5,16,-1
 239.115234375 386 l 5,17,-1
 189.940429688 173 l 5,18,-1
 221.012695312 130 l 5,19,-1
 392.012695312 130 l 5,20,-1
 445.940429688 173 l 5,21,-1
 530.940429688 173 l 5,22,-1
 425.854492188 86 l 5,23,-1
 339.854492188 86 l 5,24,-1
 320.461914062 2 l 5,25,-1
 234.461914062 2 l 5,0,-1
EndSplineSet
EndChar

StartChar: sterling
Encoding: 163 163 100
Width: 454
GlyphClass: 2
Flags: W
LayerCount: 2
Back
Fore
SplineSet
49 0 m 5,0,-1
 58.6962890625 42 l 5,1,-1
 144.696289062 42 l 5,2,-1
 213.725585938 341 l 5,3,-1
 169.725585938 341 l 5,4,-1
 179.653320312 384 l 5,5,-1
 223.653320312 384 l 5,6,-1
 272.366210938 595 l 5,7,-1
 375.990234375 680 l 5,8,-1
 545.990234375 680 l 5,9,-1
 536.293945312 638 l 5,10,-1
 409.293945312 638 l 5,11,-1
 356.366210938 595 l 5,12,-1
 307.653320312 384 l 5,13,-1
 477.653320312 384 l 5,14,-1
 467.725585938 341 l 5,15,-1
 297.725585938 341 l 5,16,-1
 228.696289062 42 l 5,17,-1
 398.696289062 42 l 5,18,-1
 389 0 l 5,19,-1
 49 0 l 5,0,-1
EndSplineSet
EndChar

StartChar: currency
Encoding: 164 164 101
Width: 478
GlyphClass: 2
Flags: W
LayerCount: 2
Back
Fore
SplineSet
341.94921875 264 m 1,0,-1
 380.965820312 433 l 1,1,-1
 293.965820312 433 l 1,2,-1
 254.94921875 264 l 1,3,-1
 341.94921875 264 l 1,0,-1
109.556640625 180 m 1,4,-1
 114.173828125 200 l 1,5,-1
 166.100585938 243 l 1,6,-1
 205.579101562 414 l 1,7,-1
 173.044921875 455 l 1,8,-1
 187.8203125 519 l 1,9,-1
 251.8203125 519 l 1,10,-1
 284.124023438 477 l 1,11,-1
 454.124023438 477 l 1,12,-1
 506.8203125 519 l 1,13,-1
 527.051757812 520 l 5,14,-1
 519.124023438 477 l 1,15,-1
 465.965820312 433 l 1,16,-1
 431.797851562 285 l 1,17,-1
 465.100585938 243 l 1,18,-1
 450.556640625 180 l 1,19,-1
 385.556640625 180 l 1,20,-1
 353.021484375 221 l 1,21,-1
 204.021484375 221 l 1,22,-1
 151.556640625 180 l 1,23,-1
 109.556640625 180 l 1,4,-1
EndSplineSet
EndChar

StartChar: yen
Encoding: 165 165 102
Width: 525
GlyphClass: 2
Flags: W
LayerCount: 2
Back
Fore
SplineSet
219.23046875 1 m 5,0,-1
 238.854492188 86 l 5,1,-1
 111.854492188 86 l 5,2,-1
 121.55078125 128 l 5,3,-1
 248.55078125 128 l 5,4,-1
 258.478515625 171 l 5,5,-1
 131.478515625 171 l 5,6,-1
 141.40625 214 l 5,7,-1
 268.40625 214 l 5,8,-1
 288.029296875 299 l 5,9,-1
 196.293945312 638 l 5,10,-1
 260.293945312 638 l 5,11,-1
 341.725585938 341 l 5,12,-1
 558.293945312 638 l 5,13,-1
 623.293945312 638 l 5,14,-1
 374.029296875 299 l 5,15,-1
 354.40625 214 l 5,16,-1
 480.40625 214 l 5,17,-1
 470.478515625 171 l 5,18,-1
 344.478515625 171 l 5,19,-1
 334.55078125 128 l 5,20,-1
 460.55078125 128 l 5,21,-1
 450.854492188 86 l 5,22,-1
 324.854492188 86 l 5,23,-1
 305.23046875 1 l 5,24,-1
 219.23046875 1 l 5,0,-1
EndSplineSet
EndChar

StartChar: brokenbar
Encoding: 166 166 103
Width: 251
GlyphClass: 2
Flags: W
LayerCount: 2
Back
Fore
SplineSet
72.841796875 -44 m 5,0,-1
 151.336914062 296 l 5,1,-1
 237.336914062 296 l 5,2,-1
 158.841796875 -44 l 5,3,-1
 72.841796875 -44 l 5,0,-1
171.19140625 382 m 5,4,-1
 249.686523438 722 l 5,5,-1
 335.686523438 722 l 5,6,-1
 257.19140625 382 l 5,7,-1
 171.19140625 382 l 5,4,-1
EndSplineSet
EndChar

StartChar: section
Encoding: 167 167 104
Width: 483
GlyphClass: 2
Flags: W
LayerCount: 2
Back
Fore
SplineSet
379.40625 214 m 5,0,-1
 438.5078125 470 l 5,1,-1
 406.204101562 512 l 5,2,-1
 279.204101562 512 l 5,3,-1
 220.333007812 257 l 5,4,-1
 251.40625 214 l 5,5,-1
 379.40625 214 l 5,0,-1
151.534179688 -41 m 5,6,-1
 161.23046875 1 l 5,7,-1
 288.23046875 1 l 5,8,-1
 340.158203125 44 l 5,9,-1
 369.478515625 171 l 5,10,-1
 200.478515625 171 l 5,11,-1
 134.333007812 257 l 5,12,-1
 232.682617188 683 l 5,13,-1
 338.076171875 767 l 5,14,-1
 507.076171875 767 l 5,15,-1
 497.379882812 725 l 5,16,-1
 369.379882812 725 l 5,17,-1
 318.682617188 683 l 5,18,-1
 288.901367188 554 l 5,19,-1
 457.901367188 554 l 5,20,-1
 523.5078125 470 l 5,21,-1
 425.158203125 44 l 5,22,-1
 320.534179688 -41 l 5,23,-1
 151.534179688 -41 l 5,6,-1
EndSplineSet
EndChar

StartChar: dieresis
Encoding: 168 168 105
Width: 405
GlyphClass: 2
Flags: W
LayerCount: 2
Back
Fore
SplineSet
233.366210938 595 m 6,0,1
 223.366210938 595 223.366210938 595 218.290039062 599 c 260,2,3
 213.674804688 605 213.674804688 605 215.984375 615 c 6,4,-1
 225.680664062 657 l 6,5,6
 227.7578125 666 227.7578125 666 235.143554688 672 c 260,7,8
 242.759765625 679 242.759765625 679 252.990234375 680 c 6,9,-1
 294.990234375 680 l 6,10,11
 302.990234375 680 302.990234375 680 308.143554688 672 c 4,12,13
 312.52734375 665 312.52734375 665 311.142578125 659 c 6,14,-1
 300.984375 615 l 6,15,16
 298.674804688 605 298.674804688 605 291.290039062 599 c 4,17,18
 282.905273438 593 282.905273438 593 275.366210938 595 c 6,19,-1
 233.366210938 595 l 6,0,1
403.366210938 595 m 6,20,21
 394.366210938 595 394.366210938 595 387.290039062 599 c 4,22,23
 383.674804688 605 383.674804688 605 386.984375 615 c 6,24,-1
 396.680664062 657 l 6,25,26
 398.7578125 666 398.7578125 666 404.143554688 672 c 4,27,28
 412.759765625 679 412.759765625 679 422.990234375 680 c 6,29,-1
 464.990234375 680 l 6,30,31
 472.990234375 680 472.990234375 680 478.143554688 672 c 260,32,33
 482.52734375 665 482.52734375 665 482.142578125 659 c 6,34,-1
 471.984375 615 l 6,35,36
 469.674804688 605 469.674804688 605 461.290039062 599 c 260,37,38
 452.905273438 593 452.905273438 593 445.366210938 595 c 6,39,-1
 403.366210938 595 l 6,20,21
EndSplineSet
EndChar

StartChar: copyright
Encoding: 169 169 106
Width: 561
GlyphClass: 2
Flags: W
LayerCount: 2
Back
Fore
SplineSet
270.090820312 139 m 1,0,-1
 236.787109375 181 l 1,1,-1
 285.731445312 393 l 1,2,-1
 338.658203125 436 l 1,3,-1
 424.658203125 436 l 1,4,-1
 456.731445312 393 l 1,5,-1
 447.265625 352 l 1,6,-1
 405.265625 352 l 1,7,-1
 371.731445312 393 l 1,8,-1
 319.265625 352 l 1,9,-1
 289.483398438 223 l 1,10,-1
 322.787109375 181 l 1,11,-1
 375.483398438 223 l 1,12,-1
 417.483398438 223 l 1,13,-1
 407.787109375 181 l 1,14,-1
 356.090820312 139 l 1,15,-1
 270.090820312 139 l 1,0,-1
387.701171875 94 m 1,16,-1
 442.090820312 139 l 1,17,-1
 510.658203125 436 l 1,18,-1
 476.5859375 479 l 1,19,-1
 305.5859375 479 l 1,20,-1
 254.658203125 436 l 1,21,-1
 186.090820312 139 l 1,22,-1
 216.701171875 94 l 1,23,-1
 387.701171875 94 l 1,16,-1
166.236328125 53 m 1,24,-1
 100.090820312 139 l 1,25,-1
 168.658203125 436 l 1,26,-1
 274.282226562 521 l 5,27,-1
 530.282226562 521 l 5,28,-1
 595.658203125 436 l 1,29,-1
 527.090820312 139 l 1,30,-1
 422.236328125 53 l 1,31,-1
 166.236328125 53 l 1,24,-1
EndSplineSet
EndChar

StartChar: ordfeminine
Encoding: 170 170 107
Width: 360
GlyphClass: 2
Flags: W
LayerCount: 2
Back
Fore
SplineSet
359.743164062 510 m 5,0,-1
 369.669921875 553 l 5,1,-1
 262.669921875 553 l 5,2,-1
 236.590820312 531 l 5,3,-1
 252.743164062 510 l 5,4,-1
 359.743164062 510 l 5,0,-1
222.045898438 468 m 5,5,-1
 189.743164062 510 l 5,6,-1
 199.669921875 553 l 5,7,-1
 251.366210938 595 l 5,8,-1
 379.366210938 595 l 5,9,-1
 346.293945312 638 l 5,10,-1
 219.293945312 638 l 5,11,-1
 228.990234375 680 l 5,12,-1
 398.990234375 680 l 5,13,-1
 432.293945312 638 l 5,14,-1
 393.045898438 468 l 5,15,-1
 222.045898438 468 l 5,5,-1
EndSplineSet
EndChar

StartChar: guillemotleft
Encoding: 171 171 108
Width: 474
GlyphClass: 2
Flags: W
LayerCount: 2
Back
Fore
SplineSet
184.23046875 1 m 5,0,-1
 115.102539062 256 l 5,1,-1
 270.5078125 470 l 5,2,-1
 356.5078125 470 l 5,3,-1
 169.40625 214 l 5,4,-1
 227.23046875 1 l 5,5,-1
 184.23046875 1 l 5,0,-1
354.23046875 1 m 5,6,-1
 286.102539062 256 l 5,7,-1
 441.5078125 470 l 5,8,-1
 525.5078125 470 l 5,9,-1
 339.40625 214 l 5,10,-1
 397.23046875 1 l 5,11,-1
 354.23046875 1 l 5,6,-1
EndSplineSet
EndChar

StartChar: logicalnot
Encoding: 172 172 109
Width: 651
GlyphClass: 2
Flags: W
LayerCount: 2
Back
Fore
SplineSet
496.387695312 32 m 1,0,-1
 545.5625 245 l 1,1,-1
 122.5625 245 l 1,2,-1
 132.490234375 288 l 1,3,-1
 640.490234375 288 l 1,4,-1
 581.387695312 32 l 1,5,-1
 496.387695312 32 l 1,0,-1
EndSplineSet
EndChar

StartChar: registered
Encoding: 174 174 110
Width: 561
GlyphClass: 2
Flags: W
LayerCount: 2
Back
Fore
SplineSet
394.876953125 307 m 5,0,-1
 404.803710938 350 l 5,1,-1
 371.731445312 393 l 5,2,-1
 328.731445312 393 l 5,3,-1
 308.876953125 307 l 5,4,-1
 394.876953125 307 l 5,0,-1
226.62890625 137 m 5,5,-1
 295.427734375 435 l 5,6,-1
 424.427734375 435 l 5,7,-1
 456.731445312 393 l 5,8,-1
 436.876953125 307 l 5,9,-1
 385.1796875 265 l 5,10,-1
 417.252929688 222 l 5,11,-1
 397.62890625 137 l 5,12,-1
 355.62890625 137 l 5,13,-1
 375.252929688 222 l 5,14,-1
 342.1796875 265 l 5,15,-1
 299.1796875 265 l 5,16,-1
 269.62890625 137 l 5,17,-1
 226.62890625 137 l 5,5,-1
387.701171875 94 m 5,18,-1
 441.62890625 137 l 5,19,-1
 510.427734375 435 l 5,20,-1
 476.35546875 478 l 5,21,-1
 305.35546875 478 l 5,22,-1
 254.427734375 435 l 5,23,-1
 185.62890625 137 l 5,24,-1
 216.701171875 94 l 5,25,-1
 387.701171875 94 l 5,18,-1
166.004882812 52 m 5,26,-1
 99.62890625 137 l 5,27,-1
 168.427734375 435 l 5,28,-1
 274.051757812 520 l 5,29,-1
 530.051757812 520 l 5,30,-1
 595.427734375 435 l 5,31,-1
 526.62890625 137 l 5,32,-1
 422.004882812 52 l 5,33,-1
 166.004882812 52 l 5,26,-1
EndSplineSet
EndChar

StartChar: macron
Encoding: 175 175 111
Width: 430
GlyphClass: 2
Flags: W
LayerCount: 2
Back
Fore
SplineSet
243.682617188 683 m 5,0,-1
 253.1484375 724 l 5,1,-1
 509.1484375 724 l 5,2,-1
 499.682617188 683 l 5,3,-1
 243.682617188 683 l 5,0,-1
EndSplineSet
EndChar

StartChar: degree
Encoding: 176 176 112
Width: 358
VWidth: 1163
GlyphClass: 2
Flags: W
LayerCount: 2
Back
Fore
SplineSet
316.743164062 510 m 5,0,-1
 369.669921875 553 l 5,1,-1
 379.366210938 595 l 5,2,-1
 346.293945312 638 l 5,3,-1
 305.293945312 638 l 5,4,-1
 251.366210938 595 l 5,5,-1
 241.669921875 553 l 5,6,-1
 275.743164062 510 l 5,7,-1
 316.743164062 510 l 5,0,-1
222.045898438 468 m 5,8,-1
 189.743164062 510 l 5,9,-1
 219.293945312 638 l 5,10,-1
 270.990234375 680 l 5,11,-1
 398.990234375 680 l 5,12,-1
 432.293945312 638 l 5,13,-1
 402.743164062 510 l 5,14,-1
 350.045898438 468 l 5,15,-1
 222.045898438 468 l 5,8,-1
EndSplineSet
EndChar

StartChar: plusminus
Encoding: 177 177 113
Width: 463
GlyphClass: 2
Flags: W
LayerCount: 2
Back
Fore
SplineSet
107.481445312 197 m 5,0,-1
 117.177734375 239 l 5,1,-1
 458.177734375 239 l 5,2,-1
 448.481445312 197 l 5,3,-1
 107.481445312 197 l 5,0,-1
248.256835938 261 m 5,4,-1
 282.65625 410 l 5,5,-1
 156.65625 410 l 5,6,-1
 166.352539062 452 l 5,7,-1
 292.352539062 452 l 5,8,-1
 326.751953125 601 l 5,9,-1
 413.751953125 601 l 5,10,-1
 379.352539062 452 l 5,11,-1
 507.352539062 452 l 5,12,-1
 497.65625 410 l 5,13,-1
 369.65625 410 l 5,14,-1
 335.256835938 261 l 5,15,-1
 248.256835938 261 l 5,4,-1
EndSplineSet
EndChar

StartChar: uni00B2
Encoding: 178 178 114
Width: 362
VWidth: 1163
GlyphClass: 2
Flags: W
LayerCount: 2
Back
Fore
SplineSet
182.045898438 468 m 5,0,-1
 201.669921875 553 l 5,1,-1
 253.366210938 595 l 5,2,-1
 381.366210938 595 l 5,3,-1
 348.293945312 638 l 5,4,-1
 221.293945312 638 l 5,5,-1
 230.990234375 680 l 5,6,-1
 400.990234375 680 l 5,7,-1
 434.293945312 638 l 5,8,-1
 414.669921875 553 l 5,9,-1
 264.669921875 553 l 5,10,-1
 238.590820312 531 l 5,11,-1
 254.743164062 510 l 5,12,-1
 404.743164062 510 l 5,13,-1
 395.045898438 468 l 5,14,-1
 182.045898438 468 l 5,0,-1
EndSplineSet
EndChar

StartChar: uni00B3
Encoding: 179 179 115
Width: 358
VWidth: 1163
GlyphClass: 2
Flags: W
LayerCount: 2
Back
Fore
SplineSet
180.045898438 468 m 5,0,-1
 189.743164062 510 l 5,1,-1
 316.743164062 510 l 5,2,-1
 369.669921875 553 l 5,3,-1
 241.669921875 553 l 5,4,-1
 251.366210938 595 l 5,5,-1
 379.366210938 595 l 5,6,-1
 346.293945312 638 l 5,7,-1
 219.293945312 638 l 5,8,-1
 228.990234375 680 l 5,9,-1
 398.990234375 680 l 5,10,-1
 432.293945312 638 l 5,11,-1
 422.366210938 595 l 5,12,-1
 420.366210938 595 l 5,13,-1
 395.518554688 574 l 5,14,-1
 412.669921875 553 l 5,15,-1
 402.743164062 510 l 5,16,-1
 350.045898438 468 l 5,17,-1
 180.045898438 468 l 5,0,-1
EndSplineSet
EndChar

StartChar: acute
Encoding: 180 180 116
Width: 388
GlyphClass: 2
Flags: W
LayerCount: 2
Back
Fore
SplineSet
179.818359375 493 m 5,0,-1
 189.514648438 535 l 5,1,-1
 426.755859375 640 l 5,2,-1
 469.755859375 640 l 5,3,-1
 460.059570312 598 l 5,4,-1
 222.818359375 493 l 5,5,-1
 179.818359375 493 l 5,0,-1
EndSplineSet
EndChar

StartChar: mu
Encoding: 181 181 117
Width: 585
GlyphClass: 2
Flags: W
LayerCount: 2
Back
Fore
SplineSet
40.9833984375 -169 m 5,0,-1
 169.115234375 386 l 5,1,-1
 255.115234375 386 l 5,2,-1
 205.478515625 171 l 5,3,-1
 303.158203125 44 l 5,4,-1
 432.158203125 44 l 5,5,-1
 511.115234375 386 l 5,6,-1
 596.115234375 386 l 5,7,-1
 507.461914062 2 l 5,8,-1
 250.461914062 2 l 5,9,-1
 185.854492188 86 l 5,10,-1
 126.983398438 -169 l 5,11,-1
 40.9833984375 -169 l 5,0,-1
EndSplineSet
EndChar

StartChar: paragraph
Encoding: 182 182 118
Width: 577
GlyphClass: 2
Flags: W
LayerCount: 2
Back
Fore
SplineSet
402.725585938 341 m 5,0,-1
 471.293945312 638 l 5,1,-1
 342.293945312 638 l 5,2,-1
 291.366210938 595 l 5,3,-1
 242.653320312 384 l 5,4,-1
 273.725585938 341 l 5,5,-1
 402.725585938 341 l 5,0,-1
324 0 m 5,6,-1
 392.567382812 297 l 5,7,-1
 222.567382812 297 l 5,8,-1
 156.653320312 384 l 5,9,-1
 205.366210938 595 l 5,10,-1
 310.990234375 680 l 5,11,-1
 522.990234375 680 l 5,12,-1
 366 0 l 5,13,-1
 324 0 l 5,6,-1
410 0 m 5,14,-1
 566.990234375 680 l 5,15,-1
 651.990234375 680 l 5,16,-1
 495 0 l 5,17,-1
 410 0 l 5,14,-1
EndSplineSet
EndChar

StartChar: periodcentered
Encoding: 183 183 119
Width: 228
GlyphClass: 2
Flags: W
LayerCount: 2
Back
Fore
SplineSet
143.174804688 213 m 2,0,1
 133.174804688 213 133.174804688 213 128.560546875 219 c 256,2,3
 123.9453125 225 123.9453125 225 126.25390625 235 c 2,4,-1
 135.719726562 276 l 2,5,6
 137.797851562 285 137.797851562 285 145.413085938 292 c 256,7,8
 153.029296875 299 153.029296875 299 163.029296875 299 c 2,9,-1
 205.029296875 299 l 2,10,11
 213.029296875 299 213.029296875 299 218.413085938 292 c 256,12,13
 223.797851562 285 223.797851562 285 220.950195312 277 c 2,14,-1
 211.25390625 235 l 2,15,16
 208.9453125 225 208.9453125 225 201.560546875 219 c 256,17,18
 193.174804688 213 193.174804688 213 185.174804688 213 c 2,19,-1
 143.174804688 213 l 2,0,1
EndSplineSet
EndChar

StartChar: cedilla
Encoding: 184 184 120
Width: 297
GlyphClass: 2
Flags: W
LayerCount: 2
Back
Fore
SplineSet
50.0625 -147 m 5,0,-1
 54.91015625 -126 l 5,1,-1
 149.375976562 -85 l 5,2,-1
 154.686523438 -62 l 5,3,-1
 79.1513671875 -21 l 5,4,-1
 84 0 l 5,5,-1
 127 0 l 5,6,-1
 202.303710938 -42 l 5,7,-1
 187.528320312 -106 l 5,8,-1
 93.0625 -147 l 5,9,-1
 50.0625 -147 l 5,0,-1
EndSplineSet
EndChar

StartChar: uni00B9
Encoding: 185 185 121
Width: 220
GlyphClass: 2
Flags: W
LayerCount: 2
Back
Fore
SplineSet
206.276367188 456 m 5,0,-1
 235.365234375 582 l 5,1,-1
 192.365234375 582 l 5,2,-1
 299.990234375 680 l 5,3,-1
 248.276367188 456 l 5,4,-1
 206.276367188 456 l 5,0,-1
EndSplineSet
EndChar

StartChar: ordmasculine
Encoding: 186 186 122
Width: 358
GlyphClass: 2
Flags: W
LayerCount: 2
Back
Fore
SplineSet
316.28125 508 m 5,0,-1
 369.208007812 551 l 5,1,-1
 378.905273438 593 l 5,2,-1
 345.83203125 636 l 5,3,-1
 304.83203125 636 l 5,4,-1
 250.905273438 593 l 5,5,-1
 241.208007812 551 l 5,6,-1
 275.28125 508 l 5,7,-1
 316.28125 508 l 5,0,-1
221.584960938 466 m 5,8,-1
 189.28125 508 l 5,9,-1
 218.83203125 636 l 5,10,-1
 270.759765625 679 l 5,11,-1
 398.759765625 679 l 5,12,-1
 431.83203125 636 l 5,13,-1
 402.28125 508 l 5,14,-1
 349.584960938 466 l 5,15,-1
 221.584960938 466 l 5,8,-1
EndSplineSet
EndChar

StartChar: guillemotright
Encoding: 187 187 123
Width: 472
GlyphClass: 2
Flags: W
LayerCount: 2
Back
Fore
SplineSet
57.384765625 6 m 1,0,-1
 243.256835938 261 l 1,1,-1
 186.431640625 474 l 1,2,-1
 229.431640625 474 l 1,3,-1
 299.560546875 219 l 1,4,-1
 142.384765625 6 l 1,5,-1
 57.384765625 6 l 1,0,-1
227.384765625 6 m 1,6,-1
 414.256835938 261 l 1,7,-1
 358.431640625 474 l 1,8,-1
 399.431640625 474 l 1,9,-1
 467.560546875 219 l 1,10,-1
 312.384765625 6 l 1,11,-1
 227.384765625 6 l 1,6,-1
EndSplineSet
EndChar

StartChar: onequarter
Encoding: 188 188 124
Width: 562
GlyphClass: 2
Flags: W
LayerCount: 2
Back
Fore
SplineSet
448.624023438 85 m 5,0,-1
 468.478515625 171 l 5,1,-1
 362.624023438 85 l 5,2,-1
 448.624023438 85 l 5,0,-1
429 0 m 5,3,-1
 438.696289062 42 l 5,4,-1
 309.696289062 42 l 5,5,-1
 319.624023438 85 l 5,6,-1
 477.944335938 212 l 5,7,-1
 519.944335938 212 l 5,8,-1
 490.624023438 85 l 5,9,-1
 532.624023438 85 l 5,10,-1
 522.696289062 42 l 5,11,-1
 480.696289062 42 l 5,12,-1
 471 0 l 5,13,-1
 429 0 l 5,3,-1
238.045898438 468 m 5,14,-1
 267.366210938 595 l 5,15,-1
 224.366210938 595 l 5,16,-1
 329.990234375 680 l 5,17,-1
 281.045898438 468 l 5,18,-1
 238.045898438 468 l 5,14,-1
45 0 m 5,19,-1
 542.990234375 680 l 5,20,-1
 627.990234375 680 l 5,21,-1
 130 0 l 5,22,-1
 45 0 l 5,19,-1
EndSplineSet
EndChar

StartChar: onehalf
Encoding: 189 189 125
Width: 570
GlyphClass: 2
Flags: W
LayerCount: 2
Back
Fore
SplineSet
300 0 m 5,0,-1
 319.624023438 85 l 5,1,-1
 372.08984375 126 l 5,2,-1
 500.08984375 126 l 5,3,-1
 468.478515625 171 l 5,4,-1
 339.478515625 171 l 5,5,-1
 348.944335938 212 l 5,6,-1
 519.944335938 212 l 5,7,-1
 552.478515625 171 l 5,8,-1
 532.624023438 85 l 5,9,-1
 383.624023438 85 l 5,10,-1
 357.313476562 62 l 5,11,-1
 373.696289062 42 l 5,12,-1
 522.696289062 42 l 5,13,-1
 513 0 l 5,14,-1
 300 0 l 5,0,-1
238.045898438 468 m 5,15,-1
 267.366210938 595 l 5,16,-1
 224.366210938 595 l 5,17,-1
 329.990234375 680 l 5,18,-1
 281.045898438 468 l 5,19,-1
 238.045898438 468 l 5,15,-1
45 0 m 5,20,-1
 542.990234375 680 l 5,21,-1
 627.990234375 680 l 5,22,-1
 130 0 l 5,23,-1
 45 0 l 5,20,-1
EndSplineSet
EndChar

StartChar: threequarters
Encoding: 190 190 126
Width: 581
GlyphClass: 2
Flags: W
LayerCount: 2
Back
Fore
SplineSet
466.624023438 85 m 5,0,-1
 486.478515625 171 l 5,1,-1
 381.624023438 85 l 5,2,-1
 466.624023438 85 l 5,0,-1
447 0 m 5,3,-1
 456.696289062 42 l 5,4,-1
 328.696289062 42 l 5,5,-1
 338.624023438 85 l 5,6,-1
 495.944335938 212 l 5,7,-1
 539.944335938 212 l 5,8,-1
 510.624023438 85 l 5,9,-1
 551.624023438 85 l 5,10,-1
 541.696289062 42 l 5,11,-1
 500.696289062 42 l 5,12,-1
 491 0 l 5,13,-1
 447 0 l 5,3,-1
172.045898438 468 m 5,14,-1
 181.743164062 510 l 5,15,-1
 308.743164062 510 l 5,16,-1
 361.669921875 553 l 5,17,-1
 233.669921875 553 l 5,18,-1
 243.366210938 595 l 5,19,-1
 371.366210938 595 l 5,20,-1
 338.293945312 638 l 5,21,-1
 211.293945312 638 l 5,22,-1
 220.990234375 680 l 5,23,-1
 390.990234375 680 l 5,24,-1
 424.293945312 638 l 5,25,-1
 414.366210938 595 l 5,26,-1
 412.366210938 595 l 5,27,-1
 387.518554688 574 l 5,28,-1
 404.669921875 553 l 5,29,-1
 394.743164062 510 l 5,30,-1
 342.045898438 468 l 5,31,-1
 172.045898438 468 l 5,14,-1
64 0 m 5,32,-1
 560.990234375 680 l 5,33,-1
 647.990234375 680 l 5,34,-1
 150 0 l 5,35,-1
 64 0 l 5,32,-1
EndSplineSet
EndChar

StartChar: questiondown
Encoding: 191 191 127
Width: 536
GlyphClass: 2
Flags: W
LayerCount: 2
Back
Fore
SplineSet
146 0 m 5,0,-1
 79.6240234375 85 l 5,1,-1
 108.944335938 212 l 5,2,-1
 318.653320312 384 l 5,3,-1
 357.669921875 553 l 5,4,-1
 443.669921875 553 l 5,5,-1
 399.112304688 360 l 5,6,-1
 190.327148438 192 l 5,7,-1
 165.624023438 85 l 5,8,-1
 196.696289062 42 l 5,9,-1
 367.696289062 42 l 5,10,-1
 421.624023438 85 l 5,11,-1
 431.08984375 126 l 5,12,-1
 516.08984375 126 l 5,13,-1
 506.624023438 85 l 5,14,-1
 402 0 l 5,15,-1
 146 0 l 5,0,-1
390.366210938 595 m 6,16,17
 380.366210938 595 380.366210938 595 374.751953125 601 c 260,18,19
 370.13671875 607 370.13671875 607 372.4453125 617 c 6,20,-1
 382.142578125 659 l 6,21,22
 384.219726562 668 384.219726562 668 391.60546875 674 c 4,23,24
 398.990234375 680 398.990234375 680 409.990234375 680 c 6,25,-1
 450.990234375 680 l 6,26,27
 458.990234375 680 458.990234375 680 464.60546875 674 c 4,28,29
 469.989257812 667 469.989257812 667 468.142578125 659 c 6,30,-1
 458.4453125 617 l 6,31,32
 456.13671875 607 456.13671875 607 447.751953125 601 c 260,33,34
 439.366210938 595 439.366210938 595 431.366210938 595 c 6,35,-1
 390.366210938 595 l 6,16,17
EndSplineSet
EndChar

StartChar: Agrave
Encoding: 192 192 128
Width: 586
GlyphClass: 2
Flags: W
LayerCount: 2
Back
Fore
SplineSet
509.115234375 386 m 5,0,-1
 558.059570312 598 l 5,1,-1
 523.755859375 640 l 5,2,-1
 352.755859375 640 l 5,3,-1
 302.059570312 598 l 5,4,-1
 253.115234375 386 l 5,5,-1
 509.115234375 386 l 5,0,-1
78.6923828125 3 m 5,6,-1
 216.059570312 598 l 5,7,-1
 321.682617188 683 l 5,8,-1
 577.682617188 683 l 5,9,-1
 643.059570312 598 l 5,10,-1
 505.692382812 3 l 5,11,-1
 420.692382812 3 l 5,12,-1
 499.1875 343 l 5,13,-1
 243.1875 343 l 5,14,-1
 164.692382812 3 l 5,15,-1
 78.6923828125 3 l 5,6,-1
543.610351562 726 m 5,16,-1
 356.08203125 832 l 5,17,-1
 366.009765625 875 l 5,18,-1
 407.009765625 875 l 5,19,-1
 597.538085938 769 l 5,20,-1
 587.610351562 726 l 5,21,-1
 543.610351562 726 l 5,16,-1
EndSplineSet
EndChar

StartChar: Aacute
Encoding: 193 193 129
Width: 585
GlyphClass: 2
Flags: W
LayerCount: 2
Back
Fore
SplineSet
508.115234375 386 m 5,0,-1
 557.059570312 598 l 5,1,-1
 523.755859375 640 l 5,2,-1
 353.755859375 640 l 5,3,-1
 301.059570312 598 l 5,4,-1
 252.115234375 386 l 5,5,-1
 508.115234375 386 l 5,0,-1
78.6923828125 3 m 5,6,-1
 216.059570312 598 l 5,7,-1
 320.682617188 683 l 5,8,-1
 576.682617188 683 l 5,9,-1
 642.059570312 598 l 5,10,-1
 504.692382812 3 l 5,11,-1
 419.692382812 3 l 5,12,-1
 498.1875 343 l 5,13,-1
 242.1875 343 l 5,14,-1
 163.692382812 3 l 5,15,-1
 78.6923828125 3 l 5,6,-1
330.610351562 726 m 5,16,-1
 340.538085938 769 l 5,17,-1
 578.009765625 875 l 5,18,-1
 621.009765625 875 l 5,19,-1
 611.08203125 832 l 5,20,-1
 373.610351562 726 l 5,21,-1
 330.610351562 726 l 5,16,-1
EndSplineSet
EndChar

StartChar: Acircumflex
Encoding: 194 194 130
Width: 586
GlyphClass: 2
Flags: W
LayerCount: 2
Back
Fore
SplineSet
508.653320312 384 m 5,0,-1
 557.828125 597 l 5,1,-1
 523.755859375 640 l 5,2,-1
 352.755859375 640 l 5,3,-1
 301.828125 597 l 5,4,-1
 252.653320312 384 l 5,5,-1
 508.653320312 384 l 5,0,-1
78.23046875 1 m 5,6,-1
 215.828125 597 l 5,7,-1
 321.682617188 683 l 5,8,-1
 577.682617188 683 l 5,9,-1
 642.828125 597 l 5,10,-1
 505.23046875 1 l 5,11,-1
 420.23046875 1 l 5,12,-1
 498.725585938 341 l 5,13,-1
 242.725585938 341 l 5,14,-1
 164.23046875 1 l 5,15,-1
 78.23046875 1 l 5,6,-1
288.379882812 725 m 5,16,-1
 298.076171875 767 l 5,17,-1
 487.930664062 853 l 5,18,-1
 638.076171875 767 l 5,19,-1
 628.379882812 725 l 5,20,-1
 587.379882812 725 l 5,21,-1
 455.463867188 799 l 5,22,-1
 288.379882812 725 l 5,16,-1
EndSplineSet
EndChar

StartChar: Atilde
Encoding: 195 195 131
Width: 586
GlyphClass: 2
Flags: W
LayerCount: 2
Back
Fore
SplineSet
508.653320312 384 m 5,0,-1
 557.828125 597 l 5,1,-1
 523.755859375 640 l 5,2,-1
 352.755859375 640 l 5,3,-1
 301.828125 597 l 5,4,-1
 252.653320312 384 l 5,5,-1
 508.653320312 384 l 5,0,-1
78.23046875 1 m 5,6,-1
 215.828125 597 l 5,7,-1
 321.682617188 683 l 5,8,-1
 577.682617188 683 l 5,9,-1
 642.828125 597 l 5,10,-1
 505.23046875 1 l 5,11,-1
 420.23046875 1 l 5,12,-1
 498.725585938 341 l 5,13,-1
 242.725585938 341 l 5,14,-1
 164.23046875 1 l 5,15,-1
 78.23046875 1 l 5,6,-1
522.379882812 725 m 5,16,-1
 389.463867188 799 l 5,17,-1
 271.227539062 746 l 5,18,-1
 281.155273438 789 l 5,19,-1
 422.930664062 853 l 5,20,-1
 555.615234375 778 l 5,21,-1
 675.8515625 831 l 5,22,-1
 666.155273438 789 l 5,23,-1
 522.379882812 725 l 5,16,-1
EndSplineSet
EndChar

StartChar: Adieresis
Encoding: 196 196 132
Width: 586
GlyphClass: 2
Flags: W
LayerCount: 2
Back
Fore
SplineSet
508.653320312 384 m 5,0,-1
 557.828125 597 l 5,1,-1
 523.293945312 638 l 5,2,-1
 352.293945312 638 l 5,3,-1
 301.828125 597 l 5,4,-1
 252.653320312 384 l 5,5,-1
 508.653320312 384 l 5,0,-1
78.23046875 1 m 5,6,-1
 215.828125 597 l 5,7,-1
 321.682617188 683 l 5,8,-1
 577.682617188 683 l 5,9,-1
 642.828125 597 l 5,10,-1
 505.23046875 1 l 5,11,-1
 420.23046875 1 l 5,12,-1
 498.725585938 341 l 5,13,-1
 242.725585938 341 l 5,14,-1
 164.23046875 1 l 5,15,-1
 78.23046875 1 l 5,6,-1
352.1484375 724 m 6,16,17
 342.1484375 724 342.1484375 724 337.534179688 730 c 260,18,19
 332.918945312 736 332.918945312 736 335.997070312 745 c 6,20,-1
 345.693359375 787 l 6,21,22
 347.771484375 796 347.771484375 796 354.38671875 803 c 4,23,24
 361.772460938 809 361.772460938 809 371.772460938 809 c 6,25,-1
 412.772460938 809 l 6,26,27
 420.772460938 809 420.772460938 809 428.38671875 803 c 4,28,29
 432.771484375 796 432.771484375 796 429.923828125 788 c 6,30,-1
 419.997070312 745 l 6,31,32
 417.918945312 736 417.918945312 736 411.534179688 730 c 4,33,34
 403.1484375 724 403.1484375 724 393.1484375 724 c 6,35,-1
 352.1484375 724 l 6,16,17
522.1484375 724 m 6,36,37
 513.1484375 724 513.1484375 724 507.534179688 730 c 4,38,39
 503.918945312 736 503.918945312 736 505.997070312 745 c 6,40,-1
 515.693359375 787 l 6,41,42
 517.771484375 796 517.771484375 796 524.38671875 803 c 4,43,44
 532.772460938 809 532.772460938 809 541.772460938 809 c 6,45,-1
 583.772460938 809 l 6,46,47
 591.772460938 809 591.772460938 809 596.38671875 803 c 4,48,49
 601.771484375 796 601.771484375 796 601.923828125 788 c 6,50,-1
 591.997070312 745 l 6,51,52
 589.918945312 736 589.918945312 736 579.534179688 730 c 260,53,54
 571.1484375 724 571.1484375 724 564.1484375 724 c 6,55,-1
 522.1484375 724 l 6,36,37
EndSplineSet
EndChar

StartChar: Aring
Encoding: 197 197 133
Width: 585
GlyphClass: 2
Flags: W
LayerCount: 2
Back
Fore
SplineSet
507.653320312 384 m 5,0,-1
 556.828125 597 l 5,1,-1
 523.755859375 640 l 5,2,-1
 353.755859375 640 l 5,3,-1
 300.828125 597 l 5,4,-1
 251.653320312 384 l 5,5,-1
 507.653320312 384 l 5,0,-1
78.23046875 1 m 5,6,-1
 215.828125 597 l 5,7,-1
 320.682617188 683 l 5,8,-1
 576.682617188 683 l 5,9,-1
 641.828125 597 l 5,10,-1
 504.23046875 1 l 5,11,-1
 419.23046875 1 l 5,12,-1
 497.725585938 341 l 5,13,-1
 241.725585938 341 l 5,14,-1
 163.23046875 1 l 5,15,-1
 78.23046875 1 l 5,6,-1
484.227539062 746 m 5,16,-1
 532.076171875 767 l 5,17,-1
 542.002929688 810 l 5,18,-1
 503.8515625 831 l 5,19,-1
 461.8515625 831 l 5,20,-1
 414.002929688 810 l 5,21,-1
 404.076171875 767 l 5,22,-1
 442.227539062 746 l 5,23,-1
 484.227539062 746 l 5,16,-1
394.379882812 725 m 5,24,-1
 356.227539062 746 l 5,25,-1
 375.8515625 831 l 5,26,-1
 423.930664062 853 l 5,27,-1
 551.930664062 853 l 5,28,-1
 588.8515625 831 l 5,29,-1
 569.227539062 746 l 5,30,-1
 522.379882812 725 l 5,31,-1
 394.379882812 725 l 5,24,-1
EndSplineSet
EndChar

StartChar: AE
Encoding: 198 198 134
Width: 739
GlyphClass: 2
Flags: W
LayerCount: 2
Back
Fore
SplineSet
421.653320312 384 m 1,0,-1
 480.293945312 638 l 1,1,-1
 352.293945312 638 l 1,2,-1
 301.366210938 595 l 1,3,-1
 252.653320312 384 l 1,4,-1
 421.653320312 384 l 1,0,-1
78 0 m 1,5,-1
 215.366210938 595 l 1,6,-1
 320.990234375 680 l 1,7,-1
 830.990234375 680 l 1,8,-1
 821.293945312 638 l 1,9,-1
 567.293945312 638 l 1,10,-1
 508.653320312 384 l 1,11,-1
 762.653320312 384 l 1,12,-1
 752.725585938 341 l 1,13,-1
 498.725585938 341 l 1,14,-1
 429.696289062 42 l 1,15,-1
 683.696289062 42 l 1,16,-1
 674 0 l 1,17,-1
 333 0 l 1,18,-1
 411.725585938 341 l 1,19,-1
 242.725585938 341 l 1,20,-1
 164 0 l 1,21,-1
 78 0 l 1,5,-1
EndSplineSet
EndChar

StartChar: Ccedilla
Encoding: 199 199 135
Width: 568
GlyphClass: 2
Flags: W
LayerCount: 2
Back
Fore
SplineSet
210.600585938 -149 m 5,0,-1
 215.44921875 -128 l 5,1,-1
 311.375976562 -85 l 5,2,-1
 316.224609375 -64 l 5,3,-1
 240.151367188 -21 l 5,4,-1
 245 0 l 5,5,-1
 161 0 l 5,6,-1
 94.6240234375 85 l 5,7,-1
 212.828125 597 l 5,8,-1
 318.221679688 681 l 5,9,-1
 574.221679688 681 l 5,10,-1
 639.828125 597 l 5,11,-1
 629.669921875 553 l 5,12,-1
 544.669921875 553 l 5,13,-1
 554.828125 597 l 5,14,-1
 520.293945312 638 l 5,15,-1
 349.293945312 638 l 5,16,-1
 298.828125 597 l 5,17,-1
 180.624023438 85 l 5,18,-1
 211.696289062 42 l 5,19,-1
 382.696289062 42 l 5,20,-1
 436.624023438 85 l 5,21,-1
 521.624023438 85 l 5,22,-1
 417 0 l 5,23,-1
 288 0 l 5,24,-1
 363.303710938 -42 l 5,25,-1
 348.528320312 -106 l 5,26,-1
 253.600585938 -149 l 5,27,-1
 210.600585938 -149 l 5,0,-1
EndSplineSet
EndChar

StartChar: Egrave
Encoding: 200 200 136
Width: 561
GlyphClass: 2
Flags: W
LayerCount: 2
Back
Fore
SplineSet
80.6923828125 3 m 5,0,-1
 237.682617188 683 l 5,1,-1
 663.682617188 683 l 5,2,-1
 653.755859375 640 l 5,3,-1
 312.755859375 640 l 5,4,-1
 254.115234375 386 l 5,5,-1
 510.115234375 386 l 5,6,-1
 500.1875 343 l 5,7,-1
 244.1875 343 l 5,8,-1
 175.388671875 45 l 5,9,-1
 516.388671875 45 l 5,10,-1
 506.692382812 3 l 5,11,-1
 80.6923828125 3 l 5,0,-1
545.610351562 726 m 5,12,-1
 357.08203125 832 l 5,13,-1
 367.009765625 875 l 5,14,-1
 410.009765625 875 l 5,15,-1
 598.538085938 769 l 5,16,-1
 588.610351562 726 l 5,17,-1
 545.610351562 726 l 5,12,-1
EndSplineSet
EndChar

StartChar: Eacute
Encoding: 201 201 137
Width: 561
GlyphClass: 2
Flags: W
LayerCount: 2
Back
Fore
SplineSet
80.6923828125 3 m 5,0,-1
 237.682617188 683 l 5,1,-1
 663.682617188 683 l 5,2,-1
 653.755859375 640 l 5,3,-1
 312.755859375 640 l 5,4,-1
 254.115234375 386 l 5,5,-1
 510.115234375 386 l 5,6,-1
 500.1875 343 l 5,7,-1
 244.1875 343 l 5,8,-1
 175.388671875 45 l 5,9,-1
 516.388671875 45 l 5,10,-1
 506.692382812 3 l 5,11,-1
 80.6923828125 3 l 5,0,-1
332.610351562 726 m 5,12,-1
 342.538085938 769 l 5,13,-1
 580.009765625 875 l 5,14,-1
 623.009765625 875 l 5,15,-1
 613.08203125 832 l 5,16,-1
 375.610351562 726 l 5,17,-1
 332.610351562 726 l 5,12,-1
EndSplineSet
EndChar

StartChar: Ecircumflex
Encoding: 202 202 138
Width: 561
GlyphClass: 2
Flags: W
LayerCount: 2
Back
Fore
SplineSet
80.23046875 1 m 5,0,-1
 237.682617188 683 l 5,1,-1
 663.682617188 683 l 5,2,-1
 653.755859375 640 l 5,3,-1
 312.755859375 640 l 5,4,-1
 253.653320312 384 l 5,5,-1
 509.653320312 384 l 5,6,-1
 499.725585938 341 l 5,7,-1
 243.725585938 341 l 5,8,-1
 175.158203125 44 l 5,9,-1
 516.158203125 44 l 5,10,-1
 506.23046875 1 l 5,11,-1
 80.23046875 1 l 5,0,-1
289.379882812 725 m 5,12,-1
 299.076171875 767 l 5,13,-1
 489.930664062 853 l 5,14,-1
 641.076171875 767 l 5,15,-1
 631.379882812 725 l 5,16,-1
 588.379882812 725 l 5,17,-1
 456.463867188 799 l 5,18,-1
 289.379882812 725 l 5,12,-1
EndSplineSet
EndChar

StartChar: Edieresis
Encoding: 203 203 139
Width: 562
GlyphClass: 2
Flags: W
LayerCount: 2
Back
Fore
SplineSet
80 0 m 5,0,-1
 237.221679688 681 l 5,1,-1
 664.221679688 681 l 5,2,-1
 654.293945312 638 l 5,3,-1
 313.293945312 638 l 5,4,-1
 254.653320312 384 l 5,5,-1
 510.653320312 384 l 5,6,-1
 500.725585938 341 l 5,7,-1
 244.725585938 341 l 5,8,-1
 175.696289062 42 l 5,9,-1
 516.696289062 42 l 5,10,-1
 507 0 l 5,11,-1
 80 0 l 5,0,-1
354.1484375 724 m 6,12,13
 344.1484375 724 344.1484375 724 339.302734375 729 c 260,14,15
 334.688476562 735 334.688476562 735 337.765625 744 c 6,16,-1
 347.461914062 786 l 6,17,18
 349.540039062 795 349.540039062 795 356.15625 802 c 4,19,20
 363.541015625 808 363.541015625 808 373.541015625 808 c 6,21,-1
 414.541015625 808 l 6,22,23
 422.541015625 808 422.541015625 808 430.15625 802 c 4,24,25
 434.540039062 795 434.540039062 795 431.693359375 787 c 6,26,-1
 421.765625 744 l 6,27,28
 419.688476562 735 419.688476562 735 413.302734375 729 c 4,29,30
 404.91796875 723 404.91796875 723 395.1484375 724 c 6,31,-1
 354.1484375 724 l 6,12,13
524.1484375 724 m 6,32,33
 515.1484375 724 515.1484375 724 509.302734375 729 c 4,34,35
 505.688476562 735 505.688476562 735 507.765625 744 c 6,36,-1
 517.461914062 786 l 6,37,38
 519.540039062 795 519.540039062 795 526.15625 802 c 4,39,40
 534.541015625 808 534.541015625 808 543.541015625 808 c 6,41,-1
 585.541015625 808 l 6,42,43
 593.541015625 808 593.541015625 808 598.15625 802 c 4,44,45
 603.540039062 795 603.540039062 795 603.693359375 787 c 6,46,-1
 593.765625 744 l 6,47,48
 591.688476562 735 591.688476562 735 581.302734375 729 c 260,49,50
 572.91796875 723 572.91796875 723 566.1484375 724 c 6,51,-1
 524.1484375 724 l 6,32,33
EndSplineSet
EndChar

StartChar: Igrave
Encoding: 204 204 140
Width: 323
GlyphClass: 2
Flags: W
LayerCount: 2
Back
Fore
SplineSet
118 0 m 5,0,-1
 275.221679688 681 l 5,1,-1
 361.221679688 681 l 5,2,-1
 204 0 l 5,3,-1
 118 0 l 5,0,-1
402.221679688 681 m 5,4,-1
 213.693359375 787 l 5,5,-1
 223.620117188 830 l 5,6,-1
 266.620117188 830 l 5,7,-1
 455.1484375 724 l 5,8,-1
 445.221679688 681 l 5,9,-1
 402.221679688 681 l 5,4,-1
EndSplineSet
EndChar

StartChar: Iacute
Encoding: 205 205 141
Width: 321
GlyphClass: 2
Flags: W
LayerCount: 2
Back
Fore
SplineSet
117.692382812 3 m 5,0,-1
 274.682617188 683 l 5,1,-1
 360.682617188 683 l 5,2,-1
 203.692382812 3 l 5,3,-1
 117.692382812 3 l 5,0,-1
199.610351562 726 m 5,4,-1
 209.538085938 769 l 5,5,-1
 447.009765625 875 l 5,6,-1
 490.009765625 875 l 5,7,-1
 480.08203125 832 l 5,8,-1
 241.610351562 726 l 5,9,-1
 199.610351562 726 l 5,4,-1
EndSplineSet
EndChar

StartChar: Icircumflex
Encoding: 206 206 142
Width: 407
GlyphClass: 2
Flags: W
LayerCount: 2
Back
Fore
SplineSet
160.23046875 1 m 5,0,-1
 317.682617188 683 l 5,1,-1
 403.682617188 683 l 5,2,-1
 246.23046875 1 l 5,3,-1
 160.23046875 1 l 5,0,-1
190.682617188 683 m 5,4,-1
 200.1484375 724 l 5,5,-1
 389.772460938 809 l 5,6,-1
 540.1484375 724 l 5,7,-1
 530.682617188 683 l 5,8,-1
 488.682617188 683 l 5,9,-1
 355.536132812 756 l 5,10,-1
 190.682617188 683 l 5,4,-1
EndSplineSet
EndChar

StartChar: Idieresis
Encoding: 207 207 143
Width: 323
GlyphClass: 2
Flags: W
LayerCount: 2
Back
Fore
SplineSet
118.23046875 1 m 5,0,-1
 275.682617188 683 l 5,1,-1
 361.682617188 683 l 5,2,-1
 204.23046875 1 l 5,3,-1
 118.23046875 1 l 5,0,-1
221.1484375 724 m 6,4,5
 213.1484375 724 213.1484375 724 207.534179688 730 c 260,6,7
 201.918945312 736 201.918945312 736 203.997070312 745 c 6,8,-1
 213.693359375 787 l 6,9,10
 215.771484375 796 215.771484375 796 224.38671875 803 c 4,11,12
 232.772460938 809 232.772460938 809 240.772460938 809 c 6,13,-1
 281.772460938 809 l 6,14,15
 289.772460938 809 289.772460938 809 297.38671875 803 c 4,16,17
 301.771484375 796 301.771484375 796 299.923828125 788 c 6,18,-1
 289.997070312 745 l 6,19,20
 287.918945312 736 287.918945312 736 280.534179688 730 c 4,21,22
 272.1484375 724 272.1484375 724 262.1484375 724 c 6,23,-1
 221.1484375 724 l 6,4,5
392.1484375 724 m 6,24,25
 383.1484375 724 383.1484375 724 376.534179688 730 c 4,26,27
 372.918945312 736 372.918945312 736 375.997070312 745 c 6,28,-1
 385.693359375 787 l 6,29,30
 387.771484375 796 387.771484375 796 393.38671875 803 c 4,31,32
 401.772460938 809 401.772460938 809 411.772460938 809 c 6,33,-1
 452.772460938 809 l 6,34,35
 460.772460938 809 460.772460938 809 466.38671875 803 c 4,36,37
 471.771484375 796 471.771484375 796 469.923828125 788 c 6,38,-1
 459.997070312 745 l 6,39,40
 457.918945312 736 457.918945312 736 449.534179688 730 c 260,41,42
 441.1484375 724 441.1484375 724 433.1484375 724 c 6,43,-1
 392.1484375 724 l 6,24,25
EndSplineSet
EndChar

StartChar: Eth
Encoding: 208 208 144
Width: 639
GlyphClass: 2
Flags: W
LayerCount: 2
Back
Fore
SplineSet
440.696289062 42 m 5,0,-1
 493.624023438 85 l 5,1,-1
 611.366210938 595 l 5,2,-1
 578.293945312 638 l 5,3,-1
 365.293945312 638 l 5,4,-1
 306.653320312 384 l 5,5,-1
 391.653320312 384 l 5,6,-1
 381.725585938 341 l 5,7,-1
 296.725585938 341 l 5,8,-1
 227.696289062 42 l 5,9,-1
 440.696289062 42 l 5,0,-1
134 0 m 5,10,-1
 212.725585938 341 l 5,11,-1
 126.725585938 341 l 5,12,-1
 136.653320312 384 l 5,13,-1
 222.653320312 384 l 5,14,-1
 290.990234375 680 l 5,15,-1
 630.990234375 680 l 5,16,-1
 695.366210938 595 l 5,17,-1
 577.624023438 85 l 5,18,-1
 474 0 l 5,19,-1
 134 0 l 5,10,-1
EndSplineSet
EndChar

StartChar: Ntilde
Encoding: 209 209 145
Width: 589
GlyphClass: 2
Flags: W
LayerCount: 2
Back
Fore
SplineSet
80.23046875 1 m 5,0,-1
 237.682617188 683 l 5,1,-1
 301.682617188 683 l 5,2,-1
 450.55078125 128 l 5,3,-1
 578.682617188 683 l 5,4,-1
 663.682617188 683 l 5,5,-1
 506.23046875 1 l 5,6,-1
 441.23046875 1 l 5,7,-1
 292.901367188 554 l 5,8,-1
 165.23046875 1 l 5,9,-1
 80.23046875 1 l 5,0,-1
524.379882812 725 m 5,10,-1
 392.463867188 799 l 5,11,-1
 273.227539062 746 l 5,12,-1
 283.155273438 789 l 5,13,-1
 425.930664062 853 l 5,14,-1
 557.615234375 778 l 5,15,-1
 677.8515625 831 l 5,16,-1
 668.155273438 789 l 5,17,-1
 524.379882812 725 l 5,10,-1
EndSplineSet
EndChar

StartChar: Ograve
Encoding: 210 210 146
Width: 582
GlyphClass: 2
Flags: W
LayerCount: 2
Back
Fore
SplineSet
383.388671875 45 m 5,0,-1
 436.0859375 87 l 5,1,-1
 554.059570312 598 l 5,2,-1
 520.755859375 640 l 5,3,-1
 350.755859375 640 l 5,4,-1
 298.059570312 598 l 5,5,-1
 180.0859375 87 l 5,6,-1
 213.388671875 45 l 5,7,-1
 383.388671875 45 l 5,0,-1
160.692382812 3 m 5,8,-1
 95.0859375 87 l 5,9,-1
 213.059570312 598 l 5,10,-1
 317.682617188 683 l 5,11,-1
 573.682617188 683 l 5,12,-1
 639.059570312 598 l 5,13,-1
 521.0859375 87 l 5,14,-1
 416.692382812 3 l 5,15,-1
 160.692382812 3 l 5,8,-1
540.610351562 726 m 5,16,-1
 352.08203125 832 l 5,17,-1
 362.009765625 875 l 5,18,-1
 405.009765625 875 l 5,19,-1
 593.538085938 769 l 5,20,-1
 583.610351562 726 l 5,21,-1
 540.610351562 726 l 5,16,-1
EndSplineSet
EndChar

StartChar: Oacute
Encoding: 211 211 147
Width: 582
GlyphClass: 2
Flags: W
LayerCount: 2
Back
Fore
SplineSet
383.388671875 45 m 5,0,-1
 436.0859375 87 l 5,1,-1
 554.059570312 598 l 5,2,-1
 520.755859375 640 l 5,3,-1
 350.755859375 640 l 5,4,-1
 298.059570312 598 l 5,5,-1
 180.0859375 87 l 5,6,-1
 213.388671875 45 l 5,7,-1
 383.388671875 45 l 5,0,-1
160.692382812 3 m 5,8,-1
 95.0859375 87 l 5,9,-1
 213.059570312 598 l 5,10,-1
 317.682617188 683 l 5,11,-1
 573.682617188 683 l 5,12,-1
 639.059570312 598 l 5,13,-1
 521.0859375 87 l 5,14,-1
 416.692382812 3 l 5,15,-1
 160.692382812 3 l 5,8,-1
327.610351562 726 m 5,16,-1
 337.538085938 769 l 5,17,-1
 575.009765625 875 l 5,18,-1
 618.009765625 875 l 5,19,-1
 608.08203125 832 l 5,20,-1
 370.610351562 726 l 5,21,-1
 327.610351562 726 l 5,16,-1
EndSplineSet
EndChar

StartChar: Ocircumflex
Encoding: 212 212 148
Width: 583
GlyphClass: 2
Flags: W
LayerCount: 2
Back
Fore
SplineSet
383.158203125 44 m 5,0,-1
 436.854492188 86 l 5,1,-1
 554.828125 597 l 5,2,-1
 520.755859375 640 l 5,3,-1
 349.755859375 640 l 5,4,-1
 298.828125 597 l 5,5,-1
 180.854492188 86 l 5,6,-1
 212.158203125 44 l 5,7,-1
 383.158203125 44 l 5,0,-1
161.23046875 1 m 5,8,-1
 94.8544921875 86 l 5,9,-1
 212.828125 597 l 5,10,-1
 318.682617188 683 l 5,11,-1
 574.682617188 683 l 5,12,-1
 639.828125 597 l 5,13,-1
 521.854492188 86 l 5,14,-1
 417.23046875 1 l 5,15,-1
 161.23046875 1 l 5,8,-1
285.379882812 725 m 5,16,-1
 295.076171875 767 l 5,17,-1
 484.930664062 853 l 5,18,-1
 635.076171875 767 l 5,19,-1
 625.379882812 725 l 5,20,-1
 584.379882812 725 l 5,21,-1
 452.463867188 799 l 5,22,-1
 285.379882812 725 l 5,16,-1
EndSplineSet
EndChar

StartChar: Otilde
Encoding: 213 213 149
Width: 582
GlyphClass: 2
Flags: W
LayerCount: 2
Back
Fore
SplineSet
383.158203125 44 m 5,0,-1
 435.854492188 86 l 5,1,-1
 553.828125 597 l 5,2,-1
 520.755859375 640 l 5,3,-1
 350.755859375 640 l 5,4,-1
 297.828125 597 l 5,5,-1
 179.854492188 86 l 5,6,-1
 213.158203125 44 l 5,7,-1
 383.158203125 44 l 5,0,-1
160.23046875 1 m 5,8,-1
 94.8544921875 86 l 5,9,-1
 212.828125 597 l 5,10,-1
 317.682617188 683 l 5,11,-1
 573.682617188 683 l 5,12,-1
 638.828125 597 l 5,13,-1
 520.854492188 86 l 5,14,-1
 416.23046875 1 l 5,15,-1
 160.23046875 1 l 5,8,-1
519.379882812 725 m 5,16,-1
 387.463867188 799 l 5,17,-1
 268.227539062 746 l 5,18,-1
 278.155273438 789 l 5,19,-1
 420.930664062 853 l 5,20,-1
 552.615234375 778 l 5,21,-1
 672.8515625 831 l 5,22,-1
 663.155273438 789 l 5,23,-1
 519.379882812 725 l 5,16,-1
EndSplineSet
EndChar

StartChar: Odieresis
Encoding: 214 214 150
Width: 583
GlyphClass: 2
Flags: W
LayerCount: 2
Back
Fore
SplineSet
382.696289062 42 m 5,0,-1
 436.854492188 86 l 5,1,-1
 554.828125 597 l 5,2,-1
 520.293945312 638 l 5,3,-1
 349.293945312 638 l 5,4,-1
 298.828125 597 l 5,5,-1
 180.854492188 86 l 5,6,-1
 211.696289062 42 l 5,7,-1
 382.696289062 42 l 5,0,-1
161.23046875 1 m 5,8,-1
 94.8544921875 86 l 5,9,-1
 212.828125 597 l 5,10,-1
 318.682617188 683 l 5,11,-1
 574.682617188 683 l 5,12,-1
 639.828125 597 l 5,13,-1
 521.854492188 86 l 5,14,-1
 417.23046875 1 l 5,15,-1
 161.23046875 1 l 5,8,-1
349.1484375 724 m 6,16,17
 339.1484375 724 339.1484375 724 334.534179688 730 c 260,18,19
 329.918945312 736 329.918945312 736 332.997070312 745 c 6,20,-1
 342.693359375 787 l 6,21,22
 344.771484375 796 344.771484375 796 351.38671875 803 c 4,23,24
 358.772460938 809 358.772460938 809 368.772460938 809 c 6,25,-1
 409.772460938 809 l 6,26,27
 417.772460938 809 417.772460938 809 425.38671875 803 c 4,28,29
 429.771484375 796 429.771484375 796 426.923828125 788 c 6,30,-1
 416.997070312 745 l 6,31,32
 414.918945312 736 414.918945312 736 408.534179688 730 c 4,33,34
 400.1484375 724 400.1484375 724 390.1484375 724 c 6,35,-1
 349.1484375 724 l 6,16,17
519.1484375 724 m 6,36,37
 510.1484375 724 510.1484375 724 504.534179688 730 c 4,38,39
 500.918945312 736 500.918945312 736 502.997070312 745 c 6,40,-1
 512.693359375 787 l 6,41,42
 514.771484375 796 514.771484375 796 521.38671875 803 c 4,43,44
 529.772460938 809 529.772460938 809 538.772460938 809 c 6,45,-1
 580.772460938 809 l 6,46,47
 588.772460938 809 588.772460938 809 593.38671875 803 c 4,48,49
 598.771484375 796 598.771484375 796 598.923828125 788 c 6,50,-1
 588.997070312 745 l 6,51,52
 586.918945312 736 586.918945312 736 576.534179688 730 c 260,53,54
 568.1484375 724 568.1484375 724 561.1484375 724 c 6,55,-1
 519.1484375 724 l 6,36,37
EndSplineSet
EndChar

StartChar: multiply
Encoding: 215 215 151
Width: 484
GlyphClass: 2
Flags: W
LayerCount: 2
Back
Fore
SplineSet
127.256835938 261 m 5,0,-1
 132.104492188 282 l 5,1,-1
 287.65625 410 l 5,2,-1
 190.9765625 537 l 5,3,-1
 205.751953125 601 l 5,4,-1
 269.751953125 601 l 5,5,-1
 368.431640625 474 l 5,6,-1
 524.751953125 601 l 5,7,-1
 546.751953125 601 l 5,8,-1
 536.82421875 558 l 5,9,-1
 392.043945312 442 l 5,10,-1
 482.801757812 324 l 5,11,-1
 468.256835938 261 l 5,12,-1
 403.256835938 261 l 5,13,-1
 314.268554688 378 l 5,14,-1
 169.256835938 261 l 5,15,-1
 127.256835938 261 l 5,0,-1
EndSplineSet
EndChar

StartChar: Oslash
Encoding: 216 216 152
Width: 583
GlyphClass: 2
Flags: W
LayerCount: 2
Back
Fore
SplineSet
382.696289062 42 m 5,0,-1
 436.624023438 85 l 5,1,-1
 515.349609375 426 l 5,2,-1
 200.478515625 171 l 5,3,-1
 180.624023438 85 l 5,4,-1
 211.696289062 42 l 5,5,-1
 382.696289062 42 l 5,0,-1
219.87109375 255 m 5,6,-1
 534.743164062 510 l 5,7,-1
 554.366210938 595 l 5,8,-1
 520.293945312 638 l 5,9,-1
 349.293945312 638 l 5,10,-1
 298.366210938 595 l 5,11,-1
 219.87109375 255 l 5,6,-1
161 0 m 5,12,-1
 94.6240234375 85 l 5,13,-1
 212.366210938 595 l 5,14,-1
 317.990234375 680 l 5,15,-1
 573.990234375 680 l 5,16,-1
 639.366210938 595 l 5,17,-1
 521.624023438 85 l 5,18,-1
 417 0 l 5,19,-1
 161 0 l 5,12,-1
EndSplineSet
EndChar

StartChar: Ugrave
Encoding: 217 217 153
Width: 586
GlyphClass: 2
Flags: W
LayerCount: 2
Back
Fore
SplineSet
163.692382812 3 m 5,0,-1
 98.0859375 87 l 5,1,-1
 235.682617188 683 l 5,2,-1
 320.682617188 683 l 5,3,-1
 183.0859375 87 l 5,4,-1
 216.388671875 45 l 5,5,-1
 386.388671875 45 l 5,6,-1
 439.0859375 87 l 5,7,-1
 576.682617188 683 l 5,8,-1
 661.682617188 683 l 5,9,-1
 524.0859375 87 l 5,10,-1
 419.692382812 3 l 5,11,-1
 163.692382812 3 l 5,0,-1
543.610351562 726 m 5,12,-1
 355.08203125 832 l 5,13,-1
 365.009765625 875 l 5,14,-1
 408.009765625 875 l 5,15,-1
 596.538085938 769 l 5,16,-1
 586.610351562 726 l 5,17,-1
 543.610351562 726 l 5,12,-1
EndSplineSet
EndChar

StartChar: Uacute
Encoding: 218 218 154
Width: 586
GlyphClass: 2
Flags: W
LayerCount: 2
Back
Fore
SplineSet
163.692382812 3 m 5,0,-1
 98.0859375 87 l 5,1,-1
 235.682617188 683 l 5,2,-1
 320.682617188 683 l 5,3,-1
 183.0859375 87 l 5,4,-1
 216.388671875 45 l 5,5,-1
 386.388671875 45 l 5,6,-1
 439.0859375 87 l 5,7,-1
 576.682617188 683 l 5,8,-1
 661.682617188 683 l 5,9,-1
 524.0859375 87 l 5,10,-1
 419.692382812 3 l 5,11,-1
 163.692382812 3 l 5,0,-1
330.610351562 726 m 5,12,-1
 340.538085938 769 l 5,13,-1
 578.009765625 875 l 5,14,-1
 621.009765625 875 l 5,15,-1
 611.08203125 832 l 5,16,-1
 373.610351562 726 l 5,17,-1
 330.610351562 726 l 5,12,-1
EndSplineSet
EndChar

StartChar: Ucircumflex
Encoding: 219 219 155
Width: 586
GlyphClass: 2
Flags: W
LayerCount: 2
Back
Fore
SplineSet
163.923828125 4 m 5,0,-1
 98.7783203125 90 l 5,1,-1
 236.14453125 685 l 5,2,-1
 321.14453125 685 l 5,3,-1
 183.778320312 90 l 5,4,-1
 216.620117188 46 l 5,5,-1
 386.620117188 46 l 5,6,-1
 439.778320312 90 l 5,7,-1
 577.14453125 685 l 5,8,-1
 662.14453125 685 l 5,9,-1
 524.778320312 90 l 5,10,-1
 419.923828125 4 l 5,11,-1
 163.923828125 4 l 5,0,-1
288.072265625 728 m 5,12,-1
 297.768554688 770 l 5,13,-1
 488.623046875 856 l 5,14,-1
 639.768554688 770 l 5,15,-1
 630.072265625 728 l 5,16,-1
 587.072265625 728 l 5,17,-1
 455.15625 802 l 5,18,-1
 288.072265625 728 l 5,12,-1
EndSplineSet
EndChar

StartChar: Udieresis
Encoding: 220 220 156
Width: 588
GlyphClass: 2
Flags: W
LayerCount: 2
Back
Fore
SplineSet
164.23046875 1 m 5,0,-1
 97.8544921875 86 l 5,1,-1
 235.682617188 683 l 5,2,-1
 321.682617188 683 l 5,3,-1
 183.854492188 86 l 5,4,-1
 214.696289062 42 l 5,5,-1
 385.696289062 42 l 5,6,-1
 439.854492188 86 l 5,7,-1
 577.682617188 683 l 5,8,-1
 662.682617188 683 l 5,9,-1
 524.854492188 86 l 5,10,-1
 420.23046875 1 l 5,11,-1
 164.23046875 1 l 5,0,-1
352.1484375 724 m 6,12,13
 342.1484375 724 342.1484375 724 337.534179688 730 c 260,14,15
 332.918945312 736 332.918945312 736 335.997070312 745 c 6,16,-1
 345.693359375 787 l 6,17,18
 347.771484375 796 347.771484375 796 354.38671875 803 c 4,19,20
 361.772460938 809 361.772460938 809 371.772460938 809 c 6,21,-1
 412.772460938 809 l 6,22,23
 420.772460938 809 420.772460938 809 428.38671875 803 c 4,24,25
 432.771484375 796 432.771484375 796 429.923828125 788 c 6,26,-1
 419.997070312 745 l 6,27,28
 417.918945312 736 417.918945312 736 411.534179688 730 c 4,29,30
 403.1484375 724 403.1484375 724 393.1484375 724 c 6,31,-1
 352.1484375 724 l 6,12,13
522.1484375 724 m 6,32,33
 513.1484375 724 513.1484375 724 507.534179688 730 c 4,34,35
 503.918945312 736 503.918945312 736 505.997070312 745 c 6,36,-1
 515.693359375 787 l 6,37,38
 517.771484375 796 517.771484375 796 524.38671875 803 c 4,39,40
 532.772460938 809 532.772460938 809 541.772460938 809 c 6,41,-1
 583.772460938 809 l 6,42,43
 591.772460938 809 591.772460938 809 596.38671875 803 c 4,44,45
 601.771484375 796 601.771484375 796 601.923828125 788 c 6,46,-1
 591.997070312 745 l 6,47,48
 589.918945312 736 589.918945312 736 579.534179688 730 c 260,49,50
 571.1484375 724 571.1484375 724 564.1484375 724 c 6,51,-1
 522.1484375 724 l 6,32,33
EndSplineSet
EndChar

StartChar: Yacute
Encoding: 221 221 157
Width: 546
GlyphClass: 2
Flags: W
LayerCount: 2
Back
Fore
SplineSet
167.692382812 3 m 1,0,-1
 177.388671875 45 l 1,1,-1
 305.388671875 45 l 1,2,-1
 410.012695312 130 l 1,3,-1
 439.564453125 258 l 1,4,-1
 311.564453125 258 l 1,5,-1
 196.682617188 683 l 1,6,-1
 281.682617188 683 l 1,7,-1
 385.260742188 300 l 1,8,-1
 449.260742188 300 l 1,9,-1
 537.682617188 683 l 1,10,-1
 622.682617188 683 l 1,11,-1
 495.012695312 130 l 1,12,-1
 337.692382812 3 l 1,13,-1
 167.692382812 3 l 1,0,-1
291.610351562 726 m 1,14,-1
 301.538085938 769 l 1,15,-1
 539.009765625 875 l 1,16,-1
 582.009765625 875 l 1,17,-1
 572.08203125 832 l 1,18,-1
 334.610351562 726 l 1,19,-1
 291.610351562 726 l 1,14,-1
EndSplineSet
EndChar

StartChar: Thorn
Encoding: 222 222 158
Width: 583
GlyphClass: 2
Flags: W
LayerCount: 2
Back
Fore
SplineSet
426.944335938 212 m 1,0,-1
 480.87109375 255 l 1,1,-1
 520.349609375 426 l 1,2,-1
 486.045898438 468 l 1,3,-1
 274.045898438 468 l 1,4,-1
 214.944335938 212 l 1,5,-1
 426.944335938 212 l 1,0,-1
80 0 m 1,6,-1
 236.990234375 680 l 1,7,-1
 322.990234375 680 l 1,8,-1
 283.743164062 510 l 1,9,-1
 539.743164062 510 l 1,10,-1
 605.349609375 426 l 1,11,-1
 565.87109375 255 l 1,12,-1
 461.478515625 171 l 1,13,-1
 205.478515625 171 l 1,14,-1
 166 0 l 1,15,-1
 80 0 l 1,6,-1
EndSplineSet
EndChar

StartChar: germandbls
Encoding: 223 223 159
Width: 579
GlyphClass: 2
Flags: W
LayerCount: 2
Back
Fore
SplineSet
185.375976562 -85 m 5,0,-1
 195.303710938 -42 l 5,1,-1
 302.303710938 -42 l 5,2,-1
 434.775390625 64 l 5,3,-1
 474.0234375 234 l 5,4,-1
 321.646484375 319 l 5,5,-1
 331.34375 361 l 5,6,-1
 489.125 490 l 5,7,-1
 508.518554688 574 l 5,8,-1
 395.293945312 638 l 5,9,-1
 352.293945312 638 l 5,10,-1
 301.828125 597 l 5,11,-1
 164 0 l 5,12,-1
 78 0 l 5,13,-1
 215.828125 597 l 5,14,-1
 321.221679688 681 l 5,15,-1
 405.221679688 681 l 5,16,-1
 557.828125 597 l 5,17,-1
 588.669921875 553 l 5,18,-1
 578.973632812 511 l 5,19,-1
 369.725585938 341 l 5,20,-1
 519.87109375 255 l 5,21,-1
 554.174804688 213 l 5,22,-1
 524.624023438 85 l 5,23,-1
 314.375976562 -85 l 5,24,-1
 185.375976562 -85 l 5,0,-1
EndSplineSet
EndChar

StartChar: agrave
Encoding: 224 224 160
Width: 571
GlyphClass: 2
Flags: W
LayerCount: 2
Back
Fore
SplineSet
417.158203125 44 m 5,0,-1
 446.478515625 171 l 5,1,-1
 231.478515625 171 l 5,2,-1
 180.55078125 128 l 5,3,-1
 170.854492188 86 l 5,4,-1
 202.158203125 44 l 5,5,-1
 417.158203125 44 l 5,0,-1
151.461914062 2 m 5,6,-1
 84.8544921875 86 l 5,7,-1
 94.55078125 128 l 5,8,-1
 200.63671875 215 l 5,9,-1
 456.63671875 215 l 5,10,-1
 476.260742188 300 l 5,11,-1
 441.725585938 341 l 5,12,-1
 270.725585938 341 l 5,13,-1
 220.260742188 300 l 5,14,-1
 134.260742188 300 l 5,15,-1
 240.115234375 386 l 5,16,-1
 496.115234375 386 l 5,17,-1
 561.260742188 300 l 5,18,-1
 492.461914062 2 l 5,19,-1
 151.461914062 2 l 5,6,-1
461.581054688 427 m 5,20,-1
 274.283203125 534 l 5,21,-1
 283.98046875 576 l 5,22,-1
 324.98046875 576 l 5,23,-1
 515.5078125 470 l 5,24,-1
 505.581054688 427 l 5,25,-1
 461.581054688 427 l 5,20,-1
EndSplineSet
EndChar

StartChar: aacute
Encoding: 225 225 161
Width: 571
GlyphClass: 2
Flags: W
LayerCount: 2
Back
Fore
SplineSet
417.158203125 44 m 5,0,-1
 446.478515625 171 l 5,1,-1
 231.478515625 171 l 5,2,-1
 180.55078125 128 l 5,3,-1
 170.854492188 86 l 5,4,-1
 202.158203125 44 l 5,5,-1
 417.158203125 44 l 5,0,-1
151.461914062 2 m 5,6,-1
 84.8544921875 86 l 5,7,-1
 94.55078125 128 l 5,8,-1
 200.63671875 215 l 5,9,-1
 456.63671875 215 l 5,10,-1
 476.260742188 300 l 5,11,-1
 441.725585938 341 l 5,12,-1
 270.725585938 341 l 5,13,-1
 220.260742188 300 l 5,14,-1
 134.260742188 300 l 5,15,-1
 240.115234375 386 l 5,16,-1
 496.115234375 386 l 5,17,-1
 561.260742188 300 l 5,18,-1
 492.461914062 2 l 5,19,-1
 151.461914062 2 l 5,6,-1
249.581054688 427 m 5,20,-1
 259.5078125 470 l 5,21,-1
 495.98046875 576 l 5,22,-1
 539.98046875 576 l 5,23,-1
 530.283203125 534 l 5,24,-1
 290.581054688 427 l 5,25,-1
 249.581054688 427 l 5,20,-1
EndSplineSet
EndChar

StartChar: acircumflex
Encoding: 226 226 162
Width: 570
GlyphClass: 2
Flags: W
LayerCount: 2
Back
Fore
SplineSet
416.388671875 45 m 5,0,-1
 445.940429688 173 l 5,1,-1
 230.940429688 173 l 5,2,-1
 180.012695312 130 l 5,3,-1
 169.854492188 86 l 5,4,-1
 201.388671875 45 l 5,5,-1
 416.388671875 45 l 5,0,-1
150.461914062 2 m 5,6,-1
 83.8544921875 86 l 5,7,-1
 94.0126953125 130 l 5,8,-1
 199.63671875 215 l 5,9,-1
 455.63671875 215 l 5,10,-1
 475.260742188 300 l 5,11,-1
 441.1875 343 l 5,12,-1
 270.1875 343 l 5,13,-1
 219.260742188 300 l 5,14,-1
 133.260742188 300 l 5,15,-1
 239.115234375 386 l 5,16,-1
 495.115234375 386 l 5,17,-1
 560.260742188 300 l 5,18,-1
 491.461914062 2 l 5,19,-1
 150.461914062 2 l 5,6,-1
205.581054688 427 m 5,20,-1
 215.739257812 471 l 5,21,-1
 405.362304688 556 l 5,22,-1
 555.739257812 471 l 5,23,-1
 545.581054688 427 l 5,24,-1
 504.581054688 427 l 5,25,-1
 372.895507812 502 l 5,26,-1
 205.581054688 427 l 5,20,-1
EndSplineSet
EndChar

StartChar: atilde
Encoding: 227 227 163
Width: 570
GlyphClass: 2
Flags: W
LayerCount: 2
Back
Fore
SplineSet
417.388671875 45 m 5,0,-1
 446.940429688 173 l 5,1,-1
 231.940429688 173 l 5,2,-1
 181.012695312 130 l 5,3,-1
 170.854492188 86 l 5,4,-1
 202.388671875 45 l 5,5,-1
 417.388671875 45 l 5,0,-1
151.461914062 2 m 5,6,-1
 84.8544921875 86 l 5,7,-1
 95.0126953125 130 l 5,8,-1
 200.63671875 215 l 5,9,-1
 456.63671875 215 l 5,10,-1
 476.260742188 300 l 5,11,-1
 442.1875 343 l 5,12,-1
 271.1875 343 l 5,13,-1
 220.260742188 300 l 5,14,-1
 134.260742188 300 l 5,15,-1
 240.115234375 386 l 5,16,-1
 496.115234375 386 l 5,17,-1
 561.260742188 300 l 5,18,-1
 492.461914062 2 l 5,19,-1
 151.461914062 2 l 5,6,-1
440.581054688 427 m 5,20,-1
 307.895507812 502 l 5,21,-1
 189.890625 450 l 5,22,-1
 199.586914062 492 l 5,23,-1
 341.362304688 556 l 5,24,-1
 474.047851562 481 l 5,25,-1
 594.283203125 534 l 5,26,-1
 584.586914062 492 l 5,27,-1
 440.581054688 427 l 5,20,-1
EndSplineSet
EndChar

StartChar: adieresis
Encoding: 228 228 164
Width: 570
GlyphClass: 2
Flags: W
LayerCount: 2
Back
Fore
SplineSet
415.696289062 42 m 5,0,-1
 445.478515625 171 l 5,1,-1
 230.478515625 171 l 5,2,-1
 179.08984375 126 l 5,3,-1
 169.624023438 85 l 5,4,-1
 200.696289062 42 l 5,5,-1
 415.696289062 42 l 5,0,-1
150 0 m 5,6,-1
 83.6240234375 85 l 5,7,-1
 93.08984375 126 l 5,8,-1
 198.944335938 212 l 5,9,-1
 454.944335938 212 l 5,10,-1
 474.798828125 298 l 5,11,-1
 440.725585938 341 l 5,12,-1
 269.725585938 341 l 5,13,-1
 218.798828125 298 l 5,14,-1
 132.798828125 298 l 5,15,-1
 238.653320312 384 l 5,16,-1
 494.653320312 384 l 5,17,-1
 559.798828125 298 l 5,18,-1
 491 0 l 5,19,-1
 150 0 l 5,6,-1
269.349609375 426 m 6,20,21
 259.349609375 426 259.349609375 426 254.50390625 431 c 260,22,23
 249.889648438 437 249.889648438 437 252.966796875 446 c 6,24,-1
 262.6640625 488 l 6,25,26
 264.741210938 497 264.741210938 497 271.357421875 504 c 4,27,28
 278.743164062 510 278.743164062 510 288.743164062 510 c 6,29,-1
 329.743164062 510 l 6,30,31
 337.743164062 510 337.743164062 510 345.357421875 504 c 4,32,33
 349.741210938 497 349.741210938 497 346.89453125 489 c 6,34,-1
 336.966796875 446 l 6,35,36
 334.658203125 436 334.658203125 436 328.50390625 431 c 4,37,38
 320.119140625 425 320.119140625 425 310.349609375 426 c 6,39,-1
 269.349609375 426 l 6,20,21
439.349609375 426 m 6,40,41
 430.349609375 426 430.349609375 426 424.50390625 431 c 4,42,43
 420.889648438 437 420.889648438 437 422.966796875 446 c 6,44,-1
 432.6640625 488 l 6,45,46
 434.741210938 497 434.741210938 497 441.357421875 504 c 4,47,48
 449.743164062 510 449.743164062 510 458.743164062 510 c 6,49,-1
 500.743164062 510 l 6,50,51
 508.743164062 510 508.743164062 510 513.357421875 504 c 4,52,53
 518.741210938 497 518.741210938 497 518.89453125 489 c 6,54,-1
 508.966796875 446 l 6,55,56
 506.658203125 436 506.658203125 436 496.50390625 431 c 260,57,58
 488.119140625 425 488.119140625 425 481.349609375 426 c 6,59,-1
 439.349609375 426 l 6,40,41
EndSplineSet
EndChar

StartChar: aring
Encoding: 229 229 165
Width: 571
GlyphClass: 2
Flags: W
LayerCount: 2
Back
Fore
SplineSet
417.388671875 45 m 5,0,-1
 446.940429688 173 l 5,1,-1
 231.940429688 173 l 5,2,-1
 181.012695312 130 l 5,3,-1
 170.854492188 86 l 5,4,-1
 202.388671875 45 l 5,5,-1
 417.388671875 45 l 5,0,-1
151.461914062 2 m 5,6,-1
 84.8544921875 86 l 5,7,-1
 95.0126953125 130 l 5,8,-1
 200.63671875 215 l 5,9,-1
 456.63671875 215 l 5,10,-1
 476.260742188 300 l 5,11,-1
 442.1875 343 l 5,12,-1
 271.1875 343 l 5,13,-1
 220.260742188 300 l 5,14,-1
 134.260742188 300 l 5,15,-1
 240.115234375 386 l 5,16,-1
 496.115234375 386 l 5,17,-1
 561.260742188 300 l 5,18,-1
 492.461914062 2 l 5,19,-1
 151.461914062 2 l 5,6,-1
402.890625 450 m 5,20,-1
 450.739257812 471 l 5,21,-1
 460.435546875 513 l 5,22,-1
 422.283203125 534 l 5,23,-1
 381.283203125 534 l 5,24,-1
 331.435546875 513 l 5,25,-1
 321.739257812 471 l 5,26,-1
 361.890625 450 l 5,27,-1
 402.890625 450 l 5,20,-1
311.581054688 427 m 5,28,-1
 275.890625 450 l 5,29,-1
 295.283203125 534 l 5,30,-1
 341.362304688 556 l 5,31,-1
 470.362304688 556 l 5,32,-1
 507.283203125 534 l 5,33,-1
 487.890625 450 l 5,34,-1
 440.581054688 427 l 5,35,-1
 311.581054688 427 l 5,28,-1
EndSplineSet
EndChar

StartChar: ae
Encoding: 230 230 166
Width: 651
GlyphClass: 2
Flags: W
LayerCount: 2
Back
Fore
SplineSet
287.158203125 44 m 5,0,-1
 316.478515625 171 l 5,1,-1
 230.478515625 171 l 5,2,-1
 179.55078125 128 l 5,3,-1
 169.854492188 86 l 5,4,-1
 201.158203125 44 l 5,5,-1
 287.158203125 44 l 5,0,-1
540.40625 214 m 5,6,-1
 560.029296875 299 l 5,7,-1
 527.725585938 341 l 5,8,-1
 441.725585938 341 l 5,9,-1
 412.40625 214 l 5,10,-1
 540.40625 214 l 5,6,-1
150.23046875 1 m 5,11,-1
 84.8544921875 86 l 5,12,-1
 94.55078125 128 l 5,13,-1
 199.40625 214 l 5,14,-1
 326.40625 214 l 5,15,-1
 355.725585938 341 l 5,16,-1
 269.725585938 341 l 5,17,-1
 219.029296875 299 l 5,18,-1
 134.029296875 299 l 5,19,-1
 239.115234375 386 l 5,20,-1
 580.115234375 386 l 5,21,-1
 644.029296875 299 l 5,22,-1
 614.478515625 171 l 5,23,-1
 402.478515625 171 l 5,24,-1
 373.158203125 44 l 5,25,-1
 459.158203125 44 l 5,26,-1
 510.854492188 86 l 5,27,-1
 594.854492188 86 l 5,28,-1
 491.23046875 1 l 5,29,-1
 150.23046875 1 l 5,11,-1
EndSplineSet
EndChar

StartChar: ccedilla
Encoding: 231 231 167
Width: 569
GlyphClass: 2
Flags: W
LayerCount: 2
Back
Fore
SplineSet
205.0625 -147 m 5,0,-1
 209.91015625 -126 l 5,1,-1
 305.375976562 -85 l 5,2,-1
 310.686523438 -62 l 5,3,-1
 234.3828125 -20 l 5,4,-1
 239.23046875 1 l 5,5,-1
 155.23046875 1 l 5,6,-1
 88.8544921875 86 l 5,7,-1
 138.029296875 299 l 5,8,-1
 243.653320312 384 l 5,9,-1
 499.653320312 384 l 5,10,-1
 565.029296875 299 l 5,11,-1
 555.102539062 256 l 5,12,-1
 470.102539062 256 l 5,13,-1
 480.029296875 299 l 5,14,-1
 445.725585938 341 l 5,15,-1
 274.725585938 341 l 5,16,-1
 224.029296875 299 l 5,17,-1
 174.854492188 86 l 5,18,-1
 206.158203125 44 l 5,19,-1
 377.158203125 44 l 5,20,-1
 430.854492188 86 l 5,21,-1
 515.854492188 86 l 5,22,-1
 411.23046875 1 l 5,23,-1
 282.23046875 1 l 5,24,-1
 357.303710938 -42 l 5,25,-1
 342.758789062 -105 l 5,26,-1
 248.0625 -147 l 5,27,-1
 205.0625 -147 l 5,0,-1
EndSplineSet
EndChar

StartChar: egrave
Encoding: 232 232 168
Width: 571
GlyphClass: 2
Flags: W
LayerCount: 2
Back
Fore
SplineSet
460.63671875 215 m 5,0,-1
 480.260742188 300 l 5,1,-1
 445.725585938 341 l 5,2,-1
 274.725585938 341 l 5,3,-1
 224.260742188 300 l 5,4,-1
 204.63671875 215 l 5,5,-1
 460.63671875 215 l 5,0,-1
155.461914062 2 m 5,6,-1
 88.8544921875 86 l 5,7,-1
 138.260742188 300 l 5,8,-1
 244.115234375 386 l 5,9,-1
 500.115234375 386 l 5,10,-1
 565.260742188 300 l 5,11,-1
 535.478515625 171 l 5,12,-1
 194.478515625 171 l 5,13,-1
 174.854492188 86 l 5,14,-1
 206.158203125 44 l 5,15,-1
 377.158203125 44 l 5,16,-1
 430.854492188 86 l 5,17,-1
 515.854492188 86 l 5,18,-1
 411.461914062 2 l 5,19,-1
 155.461914062 2 l 5,6,-1
465.581054688 427 m 5,20,-1
 278.283203125 534 l 5,21,-1
 287.98046875 576 l 5,22,-1
 328.98046875 576 l 5,23,-1
 519.5078125 470 l 5,24,-1
 509.581054688 427 l 5,25,-1
 465.581054688 427 l 5,20,-1
EndSplineSet
EndChar

StartChar: eacute
Encoding: 233 233 169
Width: 571
GlyphClass: 2
Flags: W
LayerCount: 2
Back
Fore
SplineSet
460.63671875 215 m 5,0,-1
 480.260742188 300 l 5,1,-1
 445.725585938 341 l 5,2,-1
 274.725585938 341 l 5,3,-1
 224.260742188 300 l 5,4,-1
 204.63671875 215 l 5,5,-1
 460.63671875 215 l 5,0,-1
155.461914062 2 m 5,6,-1
 88.8544921875 86 l 5,7,-1
 138.260742188 300 l 5,8,-1
 244.115234375 386 l 5,9,-1
 500.115234375 386 l 5,10,-1
 565.260742188 300 l 5,11,-1
 535.478515625 171 l 5,12,-1
 194.478515625 171 l 5,13,-1
 174.854492188 86 l 5,14,-1
 206.158203125 44 l 5,15,-1
 377.158203125 44 l 5,16,-1
 430.854492188 86 l 5,17,-1
 515.854492188 86 l 5,18,-1
 411.461914062 2 l 5,19,-1
 155.461914062 2 l 5,6,-1
253.581054688 427 m 5,20,-1
 263.5078125 470 l 5,21,-1
 499.98046875 576 l 5,22,-1
 543.98046875 576 l 5,23,-1
 534.283203125 534 l 5,24,-1
 294.581054688 427 l 5,25,-1
 253.581054688 427 l 5,20,-1
EndSplineSet
EndChar

StartChar: ecircumflex
Encoding: 234 234 170
Width: 571
GlyphClass: 2
Flags: W
LayerCount: 2
Back
Fore
SplineSet
460.63671875 215 m 5,0,-1
 480.260742188 300 l 5,1,-1
 446.1875 343 l 5,2,-1
 275.1875 343 l 5,3,-1
 224.260742188 300 l 5,4,-1
 204.63671875 215 l 5,5,-1
 460.63671875 215 l 5,0,-1
155.461914062 2 m 5,6,-1
 88.8544921875 86 l 5,7,-1
 138.260742188 300 l 5,8,-1
 244.115234375 386 l 5,9,-1
 500.115234375 386 l 5,10,-1
 565.260742188 300 l 5,11,-1
 535.940429688 173 l 5,12,-1
 194.940429688 173 l 5,13,-1
 174.854492188 86 l 5,14,-1
 206.388671875 45 l 5,15,-1
 377.388671875 45 l 5,16,-1
 430.854492188 86 l 5,17,-1
 515.854492188 86 l 5,18,-1
 411.461914062 2 l 5,19,-1
 155.461914062 2 l 5,6,-1
210.581054688 427 m 5,20,-1
 220.739257812 471 l 5,21,-1
 410.362304688 556 l 5,22,-1
 560.739257812 471 l 5,23,-1
 550.581054688 427 l 5,24,-1
 509.581054688 427 l 5,25,-1
 377.895507812 502 l 5,26,-1
 210.581054688 427 l 5,20,-1
EndSplineSet
EndChar

StartChar: edieresis
Encoding: 235 235 171
Width: 571
GlyphClass: 2
Flags: W
LayerCount: 2
Back
Fore
SplineSet
459.944335938 212 m 5,0,-1
 479.798828125 298 l 5,1,-1
 445.725585938 341 l 5,2,-1
 274.725585938 341 l 5,3,-1
 223.798828125 298 l 5,4,-1
 203.944335938 212 l 5,5,-1
 459.944335938 212 l 5,0,-1
155 0 m 5,6,-1
 88.6240234375 85 l 5,7,-1
 137.798828125 298 l 5,8,-1
 243.653320312 384 l 5,9,-1
 499.653320312 384 l 5,10,-1
 564.798828125 298 l 5,11,-1
 535.478515625 171 l 5,12,-1
 194.478515625 171 l 5,13,-1
 174.624023438 85 l 5,14,-1
 205.696289062 42 l 5,15,-1
 376.696289062 42 l 5,16,-1
 430.624023438 85 l 5,17,-1
 515.624023438 85 l 5,18,-1
 411 0 l 5,19,-1
 155 0 l 5,6,-1
274.349609375 426 m 6,20,21
 264.349609375 426 264.349609375 426 259.50390625 431 c 260,22,23
 254.889648438 437 254.889648438 437 257.966796875 446 c 6,24,-1
 267.6640625 488 l 6,25,26
 269.741210938 497 269.741210938 497 276.357421875 504 c 4,27,28
 283.743164062 510 283.743164062 510 293.743164062 510 c 6,29,-1
 334.743164062 510 l 6,30,31
 342.743164062 510 342.743164062 510 350.357421875 504 c 4,32,33
 354.741210938 497 354.741210938 497 351.89453125 489 c 6,34,-1
 341.966796875 446 l 6,35,36
 339.658203125 436 339.658203125 436 333.50390625 431 c 4,37,38
 325.119140625 425 325.119140625 425 315.349609375 426 c 6,39,-1
 274.349609375 426 l 6,20,21
444.349609375 426 m 6,40,41
 435.349609375 426 435.349609375 426 429.50390625 431 c 4,42,43
 425.889648438 437 425.889648438 437 427.966796875 446 c 6,44,-1
 437.6640625 488 l 6,45,46
 439.741210938 497 439.741210938 497 446.357421875 504 c 4,47,48
 454.743164062 510 454.743164062 510 463.743164062 510 c 6,49,-1
 505.743164062 510 l 6,50,51
 513.743164062 510 513.743164062 510 518.357421875 504 c 4,52,53
 523.741210938 497 523.741210938 497 523.89453125 489 c 6,54,-1
 513.966796875 446 l 6,55,56
 511.658203125 436 511.658203125 436 501.50390625 431 c 260,57,58
 493.119140625 425 493.119140625 425 486.349609375 426 c 6,59,-1
 444.349609375 426 l 6,40,41
EndSplineSet
EndChar

StartChar: igrave
Encoding: 236 236 172
Width: 354
GlyphClass: 2
Flags: W
LayerCount: 2
Back
Fore
SplineSet
131.461914062 2 m 5,0,-1
 220.115234375 386 l 5,1,-1
 306.115234375 386 l 5,2,-1
 217.461914062 2 l 5,3,-1
 131.461914062 2 l 5,0,-1
356.581054688 427 m 5,4,-1
 168.283203125 534 l 5,5,-1
 177.98046875 576 l 5,6,-1
 220.98046875 576 l 5,7,-1
 409.5078125 470 l 5,8,-1
 399.581054688 427 l 5,9,-1
 356.581054688 427 l 5,4,-1
EndSplineSet
EndChar

StartChar: iacute
Encoding: 237 237 173
Width: 354
GlyphClass: 2
Flags: W
LayerCount: 2
Back
Fore
SplineSet
132.461914062 2 m 5,0,-1
 221.115234375 386 l 5,1,-1
 307.115234375 386 l 5,2,-1
 218.461914062 2 l 5,3,-1
 132.461914062 2 l 5,0,-1
144.581054688 427 m 5,4,-1
 154.5078125 470 l 5,5,-1
 391.98046875 576 l 5,6,-1
 434.98046875 576 l 5,7,-1
 425.283203125 534 l 5,8,-1
 187.581054688 427 l 5,9,-1
 144.581054688 427 l 5,4,-1
EndSplineSet
EndChar

StartChar: icircumflex
Encoding: 238 238 174
Width: 357
GlyphClass: 2
Flags: W
LayerCount: 2
Back
Fore
SplineSet
132.461914062 2 m 5,0,-1
 221.115234375 386 l 5,1,-1
 307.115234375 386 l 5,2,-1
 218.461914062 2 l 5,3,-1
 132.461914062 2 l 5,0,-1
400.581054688 427 m 5,4,-1
 268.895507812 502 l 5,5,-1
 149.890625 450 l 5,6,-1
 159.586914062 492 l 5,7,-1
 301.362304688 556 l 5,8,-1
 415.586914062 492 l 5,9,-1
 400.581054688 427 l 5,4,-1
EndSplineSet
EndChar

StartChar: idieresis
Encoding: 239 239 175
Width: 358
GlyphClass: 2
Flags: W
LayerCount: 2
Back
Fore
SplineSet
133 0 m 5,0,-1
 221.653320312 384 l 5,1,-1
 307.653320312 384 l 5,2,-1
 219 0 l 5,3,-1
 133 0 l 5,0,-1
167.349609375 426 m 6,4,5
 157.349609375 426 157.349609375 426 152.50390625 431 c 260,6,7
 147.889648438 437 147.889648438 437 149.966796875 446 c 6,8,-1
 159.6640625 488 l 6,9,10
 161.741210938 497 161.741210938 497 169.357421875 504 c 4,11,12
 176.743164062 510 176.743164062 510 186.743164062 510 c 6,13,-1
 227.743164062 510 l 6,14,15
 235.743164062 510 235.743164062 510 243.357421875 504 c 4,16,17
 247.741210938 497 247.741210938 497 245.89453125 489 c 6,18,-1
 235.966796875 446 l 6,19,20
 233.658203125 436 233.658203125 436 226.50390625 431 c 4,21,22
 218.119140625 425 218.119140625 425 208.349609375 426 c 6,23,-1
 167.349609375 426 l 6,4,5
338.349609375 426 m 6,24,25
 329.349609375 426 329.349609375 426 322.50390625 431 c 4,26,27
 318.889648438 437 318.889648438 437 321.966796875 446 c 6,28,-1
 331.6640625 488 l 6,29,30
 333.741210938 497 333.741210938 497 339.357421875 504 c 4,31,32
 347.743164062 510 347.743164062 510 357.743164062 510 c 6,33,-1
 398.743164062 510 l 6,34,35
 406.743164062 510 406.743164062 510 412.357421875 504 c 4,36,37
 417.741210938 497 417.741210938 497 415.89453125 489 c 6,38,-1
 405.966796875 446 l 6,39,40
 403.658203125 436 403.658203125 436 395.50390625 431 c 260,41,42
 387.119140625 425 387.119140625 425 379.349609375 426 c 6,43,-1
 338.349609375 426 l 6,24,25
EndSplineSet
EndChar

StartChar: eth
Encoding: 240 240 176
Width: 575
GlyphClass: 2
Flags: W
LayerCount: 2
Back
Fore
SplineSet
376.696289062 42 m 5,0,-1
 430.854492188 86 l 5,1,-1
 480.029296875 299 l 5,2,-1
 445.725585938 341 l 5,3,-1
 274.725585938 341 l 5,4,-1
 224.029296875 299 l 5,5,-1
 174.854492188 86 l 5,6,-1
 205.696289062 42 l 5,7,-1
 376.696289062 42 l 5,0,-1
155.23046875 1 m 5,8,-1
 88.8544921875 86 l 5,9,-1
 138.029296875 299 l 5,10,-1
 243.653320312 384 l 5,11,-1
 455.653320312 384 l 5,12,-1
 421.204101562 512 l 5,13,-1
 314.204101562 512 l 5,14,-1
 323.901367188 554 l 5,15,-1
 409.901367188 554 l 5,16,-1
 386.293945312 638 l 5,17,-1
 493.293945312 638 l 5,18,-1
 515.901367188 554 l 5,19,-1
 623.901367188 554 l 5,20,-1
 614.204101562 512 l 5,21,-1
 529.204101562 512 l 5,22,-1
 574.725585938 341 l 5,23,-1
 515.854492188 86 l 5,24,-1
 411.23046875 1 l 5,25,-1
 155.23046875 1 l 5,8,-1
EndSplineSet
EndChar

StartChar: ntilde
Encoding: 241 241 177
Width: 581
GlyphClass: 2
Flags: W
LayerCount: 2
Back
Fore
SplineSet
76.4619140625 2 m 5,0,-1
 165.115234375 386 l 5,1,-1
 507.115234375 386 l 5,2,-1
 572.260742188 300 l 5,3,-1
 503.461914062 2 l 5,4,-1
 418.461914062 2 l 5,5,-1
 487.260742188 300 l 5,6,-1
 453.1875 343 l 5,7,-1
 241.1875 343 l 5,8,-1
 162.461914062 2 l 5,9,-1
 76.4619140625 2 l 5,0,-1
451.581054688 427 m 5,10,-1
 318.895507812 502 l 5,11,-1
 200.890625 450 l 5,12,-1
 210.586914062 492 l 5,13,-1
 352.362304688 556 l 5,14,-1
 485.047851562 481 l 5,15,-1
 605.283203125 534 l 5,16,-1
 595.586914062 492 l 5,17,-1
 451.581054688 427 l 5,10,-1
EndSplineSet
EndChar

StartChar: ograve
Encoding: 242 242 178
Width: 573
GlyphClass: 2
Flags: W
LayerCount: 2
Back
Fore
SplineSet
377.158203125 44 m 5,0,-1
 430.854492188 86 l 5,1,-1
 480.260742188 300 l 5,2,-1
 445.725585938 341 l 5,3,-1
 274.725585938 341 l 5,4,-1
 224.260742188 300 l 5,5,-1
 174.854492188 86 l 5,6,-1
 206.158203125 44 l 5,7,-1
 377.158203125 44 l 5,0,-1
155.461914062 2 m 5,8,-1
 88.8544921875 86 l 5,9,-1
 138.260742188 300 l 5,10,-1
 244.115234375 386 l 5,11,-1
 500.115234375 386 l 5,12,-1
 565.260742188 300 l 5,13,-1
 515.854492188 86 l 5,14,-1
 411.461914062 2 l 5,15,-1
 155.461914062 2 l 5,8,-1
465.581054688 427 m 5,16,-1
 278.283203125 534 l 5,17,-1
 287.98046875 576 l 5,18,-1
 328.98046875 576 l 5,19,-1
 519.5078125 470 l 5,20,-1
 509.581054688 427 l 5,21,-1
 465.581054688 427 l 5,16,-1
EndSplineSet
EndChar

StartChar: oacute
Encoding: 243 243 179
Width: 573
GlyphClass: 2
Flags: W
LayerCount: 2
Back
Fore
SplineSet
377.158203125 44 m 5,0,-1
 430.854492188 86 l 5,1,-1
 480.260742188 300 l 5,2,-1
 445.725585938 341 l 5,3,-1
 274.725585938 341 l 5,4,-1
 224.260742188 300 l 5,5,-1
 174.854492188 86 l 5,6,-1
 206.158203125 44 l 5,7,-1
 377.158203125 44 l 5,0,-1
155.461914062 2 m 5,8,-1
 88.8544921875 86 l 5,9,-1
 138.260742188 300 l 5,10,-1
 244.115234375 386 l 5,11,-1
 500.115234375 386 l 5,12,-1
 565.260742188 300 l 5,13,-1
 515.854492188 86 l 5,14,-1
 411.461914062 2 l 5,15,-1
 155.461914062 2 l 5,8,-1
253.581054688 427 m 5,16,-1
 263.5078125 470 l 5,17,-1
 499.98046875 576 l 5,18,-1
 543.98046875 576 l 5,19,-1
 534.283203125 534 l 5,20,-1
 294.581054688 427 l 5,21,-1
 253.581054688 427 l 5,16,-1
EndSplineSet
EndChar

StartChar: ocircumflex
Encoding: 244 244 180
Width: 573
GlyphClass: 2
Flags: W
LayerCount: 2
Back
Fore
SplineSet
377.388671875 45 m 5,0,-1
 430.854492188 86 l 5,1,-1
 480.260742188 300 l 5,2,-1
 446.1875 343 l 5,3,-1
 275.1875 343 l 5,4,-1
 224.260742188 300 l 5,5,-1
 174.854492188 86 l 5,6,-1
 206.388671875 45 l 5,7,-1
 377.388671875 45 l 5,0,-1
155.461914062 2 m 5,8,-1
 88.8544921875 86 l 5,9,-1
 138.260742188 300 l 5,10,-1
 244.115234375 386 l 5,11,-1
 500.115234375 386 l 5,12,-1
 565.260742188 300 l 5,13,-1
 515.854492188 86 l 5,14,-1
 411.461914062 2 l 5,15,-1
 155.461914062 2 l 5,8,-1
210.581054688 427 m 5,16,-1
 220.739257812 471 l 5,17,-1
 410.362304688 556 l 5,18,-1
 560.739257812 471 l 5,19,-1
 550.581054688 427 l 5,20,-1
 509.581054688 427 l 5,21,-1
 377.895507812 502 l 5,22,-1
 210.581054688 427 l 5,16,-1
EndSplineSet
EndChar

StartChar: otilde
Encoding: 245 245 181
Width: 573
GlyphClass: 2
Flags: W
LayerCount: 2
Back
Fore
SplineSet
377.388671875 45 m 5,0,-1
 430.854492188 86 l 5,1,-1
 480.260742188 300 l 5,2,-1
 446.1875 343 l 5,3,-1
 275.1875 343 l 5,4,-1
 224.260742188 300 l 5,5,-1
 174.854492188 86 l 5,6,-1
 206.388671875 45 l 5,7,-1
 377.388671875 45 l 5,0,-1
155.461914062 2 m 5,8,-1
 88.8544921875 86 l 5,9,-1
 138.260742188 300 l 5,10,-1
 244.115234375 386 l 5,11,-1
 500.115234375 386 l 5,12,-1
 565.260742188 300 l 5,13,-1
 515.854492188 86 l 5,14,-1
 411.461914062 2 l 5,15,-1
 155.461914062 2 l 5,8,-1
444.581054688 427 m 5,16,-1
 311.895507812 502 l 5,17,-1
 193.890625 450 l 5,18,-1
 203.586914062 492 l 5,19,-1
 345.362304688 556 l 5,20,-1
 478.047851562 481 l 5,21,-1
 598.283203125 534 l 5,22,-1
 588.586914062 492 l 5,23,-1
 444.581054688 427 l 5,16,-1
EndSplineSet
EndChar

StartChar: odieresis
Encoding: 246 246 182
Width: 572
GlyphClass: 2
Flags: W
LayerCount: 2
Back
Fore
SplineSet
376.696289062 42 m 5,0,-1
 429.624023438 85 l 5,1,-1
 478.798828125 298 l 5,2,-1
 445.725585938 341 l 5,3,-1
 275.725585938 341 l 5,4,-1
 222.798828125 298 l 5,5,-1
 173.624023438 85 l 5,6,-1
 206.696289062 42 l 5,7,-1
 376.696289062 42 l 5,0,-1
154 0 m 5,8,-1
 88.6240234375 85 l 5,9,-1
 137.798828125 298 l 5,10,-1
 242.653320312 384 l 5,11,-1
 498.653320312 384 l 5,12,-1
 563.798828125 298 l 5,13,-1
 514.624023438 85 l 5,14,-1
 410 0 l 5,15,-1
 154 0 l 5,8,-1
273.349609375 426 m 6,16,17
 263.349609375 426 263.349609375 426 258.50390625 431 c 260,18,19
 253.889648438 437 253.889648438 437 256.966796875 446 c 6,20,-1
 266.6640625 488 l 6,21,22
 268.741210938 497 268.741210938 497 275.357421875 504 c 4,23,24
 282.743164062 510 282.743164062 510 292.743164062 510 c 6,25,-1
 335.743164062 510 l 6,26,27
 343.743164062 510 343.743164062 510 349.357421875 504 c 4,28,29
 353.741210938 497 353.741210938 497 352.89453125 489 c 6,30,-1
 342.966796875 446 l 6,31,32
 340.658203125 436 340.658203125 436 332.50390625 431 c 4,33,34
 324.119140625 425 324.119140625 425 316.349609375 426 c 6,35,-1
 273.349609375 426 l 6,16,17
444.349609375 426 m 6,36,37
 435.349609375 426 435.349609375 426 429.50390625 431 c 4,38,39
 424.889648438 437 424.889648438 437 427.966796875 446 c 6,40,-1
 437.6640625 488 l 6,41,42
 439.741210938 497 439.741210938 497 446.357421875 504 c 4,43,44
 454.743164062 510 454.743164062 510 463.743164062 510 c 6,45,-1
 505.743164062 510 l 6,46,47
 513.743164062 510 513.743164062 510 520.357421875 504 c 4,48,49
 525.741210938 497 525.741210938 497 522.89453125 489 c 6,50,-1
 512.966796875 446 l 6,51,52
 510.658203125 436 510.658203125 436 503.50390625 431 c 260,53,54
 495.119140625 425 495.119140625 425 486.349609375 426 c 6,55,-1
 444.349609375 426 l 6,36,37
EndSplineSet
EndChar

StartChar: divide
Encoding: 247 247 183
Width: 446
GlyphClass: 2
Flags: W
LayerCount: 2
Back
Fore
SplineSet
235.025390625 260 m 5,0,-1
 259.266601562 365 l 5,1,-1
 345.266601562 365 l 5,2,-1
 321.025390625 260 l 5,3,-1
 235.025390625 260 l 5,0,-1
142.65625 410 m 5,4,-1
 152.12109375 451 l 5,5,-1
 492.12109375 451 l 5,6,-1
 482.65625 410 l 5,7,-1
 142.65625 410 l 5,4,-1
289.048828125 494 m 5,8,-1
 313.290039062 599 l 5,9,-1
 399.290039062 599 l 5,10,-1
 375.048828125 494 l 5,11,-1
 289.048828125 494 l 5,8,-1
EndSplineSet
EndChar

StartChar: oslash
Encoding: 248 248 184
Width: 575
GlyphClass: 2
Flags: W
LayerCount: 2
Back
Fore
SplineSet
378.158203125 44 m 5,0,-1
 431.854492188 86 l 5,1,-1
 466.485351562 236 l 5,2,-1
 180.703125 107 l 5,3,-1
 175.854492188 86 l 5,4,-1
 207.158203125 44 l 5,5,-1
 378.158203125 44 l 5,0,-1
190.861328125 151 m 5,6,-1
 476.181640625 278 l 5,7,-1
 481.029296875 299 l 5,8,-1
 446.725585938 341 l 5,9,-1
 275.725585938 341 l 5,10,-1
 225.029296875 299 l 5,11,-1
 190.861328125 151 l 5,6,-1
156.23046875 1 m 5,12,-1
 89.8544921875 86 l 5,13,-1
 139.029296875 299 l 5,14,-1
 245.115234375 386 l 5,15,-1
 501.115234375 386 l 5,16,-1
 566.029296875 299 l 5,17,-1
 516.854492188 86 l 5,18,-1
 412.23046875 1 l 5,19,-1
 156.23046875 1 l 5,12,-1
EndSplineSet
EndChar

StartChar: ugrave
Encoding: 249 249 185
Width: 578
GlyphClass: 2
Flags: W
LayerCount: 2
Back
Fore
SplineSet
158.461914062 2 m 5,0,-1
 91.8544921875 86 l 5,1,-1
 161.115234375 386 l 5,2,-1
 247.115234375 386 l 5,3,-1
 177.854492188 86 l 5,4,-1
 209.158203125 44 l 5,5,-1
 424.158203125 44 l 5,6,-1
 503.115234375 386 l 5,7,-1
 588.115234375 386 l 5,8,-1
 499.461914062 2 l 5,9,-1
 158.461914062 2 l 5,0,-1
468.581054688 427 m 5,10,-1
 281.283203125 534 l 5,11,-1
 290.98046875 576 l 5,12,-1
 331.98046875 576 l 5,13,-1
 522.5078125 470 l 5,14,-1
 512.581054688 427 l 5,15,-1
 468.581054688 427 l 5,10,-1
EndSplineSet
EndChar

StartChar: uacute
Encoding: 250 250 186
Width: 578
GlyphClass: 2
Flags: W
LayerCount: 2
Back
Fore
SplineSet
158.461914062 2 m 5,0,-1
 91.8544921875 86 l 5,1,-1
 161.115234375 386 l 5,2,-1
 247.115234375 386 l 5,3,-1
 177.854492188 86 l 5,4,-1
 209.158203125 44 l 5,5,-1
 424.158203125 44 l 5,6,-1
 503.115234375 386 l 5,7,-1
 588.115234375 386 l 5,8,-1
 499.461914062 2 l 5,9,-1
 158.461914062 2 l 5,0,-1
256.581054688 427 m 5,10,-1
 266.5078125 470 l 5,11,-1
 502.98046875 576 l 5,12,-1
 546.98046875 576 l 5,13,-1
 537.283203125 534 l 5,14,-1
 297.581054688 427 l 5,15,-1
 256.581054688 427 l 5,10,-1
EndSplineSet
EndChar

StartChar: ucircumflex
Encoding: 251 251 187
Width: 578
GlyphClass: 2
Flags: W
LayerCount: 2
Back
Fore
SplineSet
158.461914062 2 m 5,0,-1
 91.8544921875 86 l 5,1,-1
 161.115234375 386 l 5,2,-1
 247.115234375 386 l 5,3,-1
 177.854492188 86 l 5,4,-1
 209.388671875 45 l 5,5,-1
 424.388671875 45 l 5,6,-1
 503.115234375 386 l 5,7,-1
 588.115234375 386 l 5,8,-1
 499.461914062 2 l 5,9,-1
 158.461914062 2 l 5,0,-1
213.581054688 427 m 5,10,-1
 223.739257812 471 l 5,11,-1
 413.362304688 556 l 5,12,-1
 563.739257812 471 l 5,13,-1
 553.581054688 427 l 5,14,-1
 512.581054688 427 l 5,15,-1
 380.895507812 502 l 5,16,-1
 213.581054688 427 l 5,10,-1
EndSplineSet
EndChar

StartChar: udieresis
Encoding: 252 252 188
Width: 578
GlyphClass: 2
Flags: W
LayerCount: 2
Back
Fore
SplineSet
158 0 m 5,0,-1
 91.6240234375 85 l 5,1,-1
 160.653320312 384 l 5,2,-1
 246.653320312 384 l 5,3,-1
 177.624023438 85 l 5,4,-1
 208.696289062 42 l 5,5,-1
 423.696289062 42 l 5,6,-1
 502.653320312 384 l 5,7,-1
 587.653320312 384 l 5,8,-1
 499 0 l 5,9,-1
 158 0 l 5,0,-1
277.349609375 426 m 6,10,11
 267.349609375 426 267.349609375 426 262.50390625 431 c 260,12,13
 257.889648438 437 257.889648438 437 260.966796875 446 c 6,14,-1
 270.6640625 488 l 6,15,16
 272.741210938 497 272.741210938 497 279.357421875 504 c 4,17,18
 286.743164062 510 286.743164062 510 296.743164062 510 c 6,19,-1
 337.743164062 510 l 6,20,21
 345.743164062 510 345.743164062 510 353.357421875 504 c 4,22,23
 357.741210938 497 357.741210938 497 354.89453125 489 c 6,24,-1
 344.966796875 446 l 6,25,26
 342.658203125 436 342.658203125 436 336.50390625 431 c 4,27,28
 328.119140625 425 328.119140625 425 318.349609375 426 c 6,29,-1
 277.349609375 426 l 6,10,11
447.349609375 426 m 6,30,31
 438.349609375 426 438.349609375 426 432.50390625 431 c 4,32,33
 428.889648438 437 428.889648438 437 430.966796875 446 c 6,34,-1
 440.6640625 488 l 6,35,36
 442.741210938 497 442.741210938 497 449.357421875 504 c 4,37,38
 457.743164062 510 457.743164062 510 466.743164062 510 c 6,39,-1
 508.743164062 510 l 6,40,41
 516.743164062 510 516.743164062 510 521.357421875 504 c 4,42,43
 526.741210938 497 526.741210938 497 526.89453125 489 c 6,44,-1
 516.966796875 446 l 6,45,46
 514.658203125 436 514.658203125 436 504.50390625 431 c 260,47,48
 496.119140625 425 496.119140625 425 489.349609375 426 c 6,49,-1
 447.349609375 426 l 6,30,31
EndSplineSet
EndChar

StartChar: yacute
Encoding: 253 253 189
Width: 578
GlyphClass: 2
Flags: W
LayerCount: 2
Back
Fore
SplineSet
119.213867188 -168 m 5,0,-1
 128.91015625 -126 l 5,1,-1
 340.91015625 -126 l 5,2,-1
 394.837890625 -83 l 5,3,-1
 414.461914062 2 l 5,4,-1
 158.461914062 2 l 5,5,-1
 91.8544921875 86 l 5,6,-1
 161.115234375 386 l 5,7,-1
 247.115234375 386 l 5,8,-1
 177.854492188 86 l 5,9,-1
 209.158203125 44 l 5,10,-1
 424.158203125 44 l 5,11,-1
 503.115234375 386 l 5,12,-1
 588.115234375 386 l 5,13,-1
 479.837890625 -83 l 5,14,-1
 375.213867188 -168 l 5,15,-1
 119.213867188 -168 l 5,0,-1
256.581054688 427 m 5,16,-1
 266.5078125 470 l 5,17,-1
 502.98046875 576 l 5,18,-1
 546.98046875 576 l 5,19,-1
 537.283203125 534 l 5,20,-1
 297.581054688 427 l 5,21,-1
 256.581054688 427 l 5,16,-1
EndSplineSet
EndChar

StartChar: thorn
Encoding: 254 254 190
Width: 582
GlyphClass: 2
Flags: W
LayerCount: 2
Back
Fore
SplineSet
385.696289062 42 m 5,0,-1
 439.624023438 85 l 5,1,-1
 488.798828125 298 l 5,2,-1
 454.725585938 341 l 5,3,-1
 242.725585938 341 l 5,4,-1
 173.696289062 42 l 5,5,-1
 385.696289062 42 l 5,0,-1
38.521484375 -171 m 5,6,-1
 215.828125 597 l 5,7,-1
 301.828125 597 l 5,8,-1
 252.653320312 384 l 5,9,-1
 508.653320312 384 l 5,10,-1
 573.798828125 298 l 5,11,-1
 524.624023438 85 l 5,12,-1
 420 0 l 5,13,-1
 164 0 l 5,14,-1
 124.521484375 -171 l 5,15,-1
 38.521484375 -171 l 5,6,-1
EndSplineSet
EndChar

StartChar: ydieresis
Encoding: 255 255 191
Width: 578
GlyphClass: 2
Flags: W
LayerCount: 2
Back
Fore
SplineSet
118.521484375 -171 m 5,0,-1
 128.44921875 -128 l 5,1,-1
 340.44921875 -128 l 5,2,-1
 394.375976562 -85 l 5,3,-1
 414 0 l 5,4,-1
 158 0 l 5,5,-1
 91.6240234375 85 l 5,6,-1
 160.653320312 384 l 5,7,-1
 246.653320312 384 l 5,8,-1
 177.624023438 85 l 5,9,-1
 208.696289062 42 l 5,10,-1
 423.696289062 42 l 5,11,-1
 502.653320312 384 l 5,12,-1
 587.653320312 384 l 5,13,-1
 479.375976562 -85 l 5,14,-1
 374.521484375 -171 l 5,15,-1
 118.521484375 -171 l 5,0,-1
277.349609375 426 m 6,16,17
 267.349609375 426 267.349609375 426 262.50390625 431 c 260,18,19
 257.889648438 437 257.889648438 437 260.966796875 446 c 6,20,-1
 270.6640625 488 l 6,21,22
 272.741210938 497 272.741210938 497 279.357421875 504 c 4,23,24
 286.743164062 510 286.743164062 510 296.743164062 510 c 6,25,-1
 337.743164062 510 l 6,26,27
 345.743164062 510 345.743164062 510 353.357421875 504 c 4,28,29
 357.741210938 497 357.741210938 497 354.89453125 489 c 6,30,-1
 344.966796875 446 l 6,31,32
 342.658203125 436 342.658203125 436 336.50390625 431 c 4,33,34
 328.119140625 425 328.119140625 425 318.349609375 426 c 6,35,-1
 277.349609375 426 l 6,16,17
447.349609375 426 m 6,36,37
 438.349609375 426 438.349609375 426 432.50390625 431 c 4,38,39
 428.889648438 437 428.889648438 437 430.966796875 446 c 6,40,-1
 440.6640625 488 l 6,41,42
 442.741210938 497 442.741210938 497 449.357421875 504 c 4,43,44
 457.743164062 510 457.743164062 510 466.743164062 510 c 6,45,-1
 508.743164062 510 l 6,46,47
 516.743164062 510 516.743164062 510 521.357421875 504 c 4,48,49
 526.741210938 497 526.741210938 497 526.89453125 489 c 6,50,-1
 516.966796875 446 l 6,51,52
 514.658203125 436 514.658203125 436 504.50390625 431 c 260,53,54
 496.119140625 425 496.119140625 425 489.349609375 426 c 6,55,-1
 447.349609375 426 l 6,36,37
EndSplineSet
EndChar

StartChar: Ydieresis
Encoding: 376 376 192
Width: 471
GlyphClass: 2
Flags: W
LayerCount: 2
Back
Fore
SplineSet
130.23046875 1 m 5,0,-1
 139.696289062 42 l 5,1,-1
 267.696289062 42 l 5,2,-1
 372.55078125 128 l 5,3,-1
 402.102539062 256 l 5,4,-1
 274.102539062 256 l 5,5,-1
 159.682617188 683 l 5,6,-1
 243.682617188 683 l 5,7,-1
 348.029296875 299 l 5,8,-1
 412.029296875 299 l 5,9,-1
 500.682617188 683 l 5,10,-1
 584.682617188 683 l 5,11,-1
 456.55078125 128 l 5,12,-1
 300.23046875 1 l 5,13,-1
 130.23046875 1 l 5,0,-1
276.1484375 724 m 6,14,15
 266.1484375 724 266.1484375 724 262.534179688 730 c 260,16,17
 257.918945312 736 257.918945312 736 257.997070312 745 c 6,18,-1
 267.693359375 787 l 6,19,20
 269.771484375 796 269.771484375 796 279.38671875 803 c 4,21,22
 286.772460938 809 286.772460938 809 295.772460938 809 c 6,23,-1
 338.772460938 809 l 6,24,25
 346.772460938 809 346.772460938 809 352.38671875 803 c 4,26,27
 356.771484375 796 356.771484375 796 352.923828125 788 c 6,28,-1
 342.997070312 745 l 6,29,30
 340.918945312 736 340.918945312 736 335.534179688 730 c 4,31,32
 327.1484375 724 327.1484375 724 319.1484375 724 c 6,33,-1
 276.1484375 724 l 6,14,15
446.1484375 724 m 6,34,35
 437.1484375 724 437.1484375 724 431.534179688 730 c 4,36,37
 427.918945312 736 427.918945312 736 429.997070312 745 c 6,38,-1
 439.693359375 787 l 6,39,40
 441.771484375 796 441.771484375 796 448.38671875 803 c 4,41,42
 456.772460938 809 456.772460938 809 465.772460938 809 c 6,43,-1
 506.772460938 809 l 6,44,45
 514.772460938 809 514.772460938 809 522.38671875 803 c 4,46,47
 527.771484375 796 527.771484375 796 524.923828125 788 c 6,48,-1
 514.997070312 745 l 6,49,50
 512.918945312 736 512.918945312 736 505.534179688 730 c 260,51,52
 497.1484375 724 497.1484375 724 487.1484375 724 c 6,53,-1
 446.1484375 724 l 6,34,35
EndSplineSet
EndChar

StartChar: uni1E9E
Encoding: 7838 7838 193
Width: 583
GlyphClass: 2
Flags: W
LayerCount: 2
Back
Fore
SplineSet
-88.6240234375 -85 m 1,0,-1
 48.9736328125 511 l 1,1,-1
 153.828125 597 l 1,2,-1
 493.828125 597 l 1,3,-1
 559.973632812 511 l 1,4,-1
 550.5078125 470 l 1,5,-1
 337.114257812 373 l 1,6,-1
 329.725585938 341 l 1,7,-1
 509.471679688 106 l 1,8,-1
 485.23046875 1 l 1,9,-1
 381.375976562 -85 l 1,10,-1
 123.375976562 -85 l 1,11,-1
 58.23046875 1 l 1,12,-1
 67.6962890625 42 l 1,13,-1
 152.696289062 42 l 1,14,-1
 143.23046875 1 l 1,15,-1
 178.303710938 -42 l 1,16,-1
 346.303710938 -42 l 1,17,-1
 401.23046875 1 l 1,18,-1
 420.854492188 86 l 1,19,-1
 221.725585938 341 l 1,20,-1
 226.34375 361 l 1,21,-1
 464.5078125 470 l 1,22,-1
 473.973632812 511 l 1,23,-1
 441.901367188 554 l 1,24,-1
 185.901367188 554 l 1,25,-1
 133.973632812 511 l 1,26,-1
 -3.6240234375 -85 l 1,27,-1
 -88.6240234375 -85 l 1,0,-1
EndSplineSet
EndChar

StartChar: emdash
Encoding: 8212 8212 194
Width: 471
GlyphClass: 2
Flags: W
LayerCount: 2
Back
Fore
SplineSet
4.9482421875 251 m 1,0,-1
 14.64453125 293 l 1,1,-1
 440.64453125 293 l 1,2,-1
 430.948242188 251 l 1,3,-1
 4.9482421875 251 l 1,0,-1
EndSplineSet
EndChar

StartChar: quoteleft
Encoding: 8216 8216 195
Width: 173
GlyphClass: 2
Flags: W
LayerCount: 2
Back
Fore
SplineSet
94.8046875 363 m 2,0,1
 84.8046875 363 84.8046875 363 80.1904296875 369 c 0,2,3
 75.806640625 376 75.806640625 376 77.6533203125 384 c 2,4,-1
 102.356445312 491 l 1,5,-1
 155.052734375 533 l 1,6,-1
 197.052734375 533 l 1,7,-1
 145.356445312 491 l 1,8,-1
 135.428710938 448 l 1,9,-1
 156.428710938 448 l 2,10,11
 164.428710938 448 164.428710938 448 170.043945312 442 c 0,12,13
 175.658203125 436 175.658203125 436 172.581054688 427 c 2,14,-1
 162.653320312 384 l 2,15,16
 160.575195312 375 160.575195312 375 153.190429688 369 c 0,17,18
 145.036132812 364 145.036132812 364 136.8046875 363 c 2,19,-1
 94.8046875 363 l 2,0,1
EndSplineSet
EndChar

StartChar: quoteright
Encoding: 8217 8217 196
Width: 173
GlyphClass: 2
Flags: W
LayerCount: 2
Back
Fore
SplineSet
72.8046875 363 m 1,0,-1
 125.732421875 406 l 1,1,-1
 135.428710938 448 l 1,2,-1
 114.428710938 448 l 2,3,4
 104.428710938 448 104.428710938 448 99.814453125 454 c 0,5,6
 95.4306640625 461 95.4306640625 461 97.5078125 470 c 2,7,-1
 106.973632812 511 l 2,8,9
 109.051757812 520 109.051757812 520 116.436523438 526 c 0,10,11
 124.052734375 533 124.052734375 533 134.052734375 533 c 2,12,-1
 176.052734375 533 l 2,13,14
 184.052734375 533 184.052734375 533 189.436523438 526 c 0,15,16
 195.051757812 520 195.051757812 520 192.204101562 512 c 2,17,-1
 167.732421875 406 l 1,18,-1
 115.8046875 363 l 1,19,-1
 72.8046875 363 l 1,0,-1
EndSplineSet
EndChar

StartChar: quotesinglbase
Encoding: 8218 8218 197
Width: 173
GlyphClass: 2
Flags: W
LayerCount: 2
Back
Fore
SplineSet
-30.6240234375 -85 m 1,0,-1
 22.3037109375 -42 l 1,1,-1
 32 0 l 1,2,-1
 11 0 l 2,3,4
 1 0 1 0 -3.845703125 5 c 0,5,6
 -8.2294921875 12 -8.2294921875 12 -6.1513671875 21 c 2,7,-1
 3.3134765625 62 l 2,8,9
 5.3916015625 71 5.3916015625 71 13.23828125 79 c 0,10,11
 20.8544921875 86 20.8544921875 86 30.6240234375 85 c 2,12,-1
 72.6240234375 85 l 2,13,14
 80.6240234375 85 80.6240234375 85 86.23828125 79 c 0,15,16
 91.853515625 73 91.853515625 73 88.775390625 64 c 2,17,-1
 64.3037109375 -42 l 1,18,-1
 12.3759765625 -85 l 1,19,-1
 -30.6240234375 -85 l 1,0,-1
EndSplineSet
EndChar

StartChar: quotereversed
Encoding: 8219 8219 198
Width: 173
GlyphClass: 2
Flags: W
LayerCount: 2
Back
Fore
SplineSet
115.8046875 363 m 1,0,-1
 82.732421875 406 l 1,1,-1
 107.204101562 512 l 2,2,3
 109.051757812 520 109.051757812 520 116.436523438 526 c 0,4,5
 124.052734375 533 124.052734375 533 134.052734375 533 c 2,6,-1
 176.052734375 533 l 2,7,8
 184.052734375 533 184.052734375 533 189.436523438 526 c 0,9,10
 195.051757812 520 195.051757812 520 191.973632812 511 c 2,11,-1
 182.5078125 470 l 2,12,13
 180.430664062 461 180.430664062 461 172.814453125 454 c 0,14,15
 164.66015625 449 164.66015625 449 156.428710938 448 c 2,16,-1
 135.428710938 448 l 1,17,-1
 125.732421875 406 l 1,18,-1
 157.8046875 363 l 1,19,-1
 115.8046875 363 l 1,0,-1
EndSplineSet
EndChar

StartChar: quotedblleft
Encoding: 8220 8220 199
Width: 286
GlyphClass: 2
Flags: W
LayerCount: 2
Back
Fore
SplineSet
78.8046875 363 m 2,0,1
 69.8046875 363 69.8046875 363 64.1904296875 369 c 0,2,3
 60.806640625 376 60.806640625 376 62.6533203125 384 c 2,4,-1
 87.3564453125 491 l 1,5,-1
 139.052734375 533 l 1,6,-1
 181.052734375 533 l 1,7,-1
 129.356445312 491 l 1,8,-1
 119.428710938 448 l 1,9,-1
 140.428710938 448 l 2,10,11
 148.428710938 448 148.428710938 448 154.043945312 442 c 0,12,13
 159.658203125 436 159.658203125 436 156.581054688 427 c 2,14,-1
 146.653320312 384 l 2,15,16
 144.575195312 375 144.575195312 375 137.190429688 369 c 0,17,18
 129.036132812 364 129.036132812 364 120.8046875 363 c 2,19,-1
 78.8046875 363 l 2,0,1
205.8046875 363 m 2,20,21
 195.8046875 363 195.8046875 363 191.190429688 369 c 0,22,23
 186.806640625 376 186.806640625 376 190.653320312 384 c 2,24,-1
 215.356445312 491 l 1,25,-1
 266.052734375 533 l 1,26,-1
 309.052734375 533 l 1,27,-1
 256.356445312 491 l 1,28,-1
 246.428710938 448 l 1,29,-1
 268.428710938 448 l 2,30,31
 276.428710938 448 276.428710938 448 282.043945312 442 c 0,32,33
 286.658203125 436 286.658203125 436 284.581054688 427 c 2,34,-1
 274.653320312 384 l 2,35,36
 272.575195312 375 272.575195312 375 265.190429688 369 c 0,37,38
 257.036132812 364 257.036132812 364 248.8046875 363 c 2,39,-1
 205.8046875 363 l 2,20,21
EndSplineSet
EndChar

StartChar: quotedblright
Encoding: 8221 8221 200
Width: 286
GlyphClass: 2
Flags: W
LayerCount: 2
Back
Fore
SplineSet
57.8046875 363 m 1,0,-1
 109.732421875 406 l 1,1,-1
 119.428710938 448 l 1,2,-1
 98.4287109375 448 l 2,3,4
 89.4287109375 448 89.4287109375 448 83.814453125 454 c 0,5,6
 80.4306640625 461 80.4306640625 461 82.5078125 470 c 2,7,-1
 91.9736328125 511 l 2,8,9
 94.0517578125 520 94.0517578125 520 100.436523438 526 c 0,10,11
 109.052734375 533 109.052734375 533 118.052734375 533 c 2,12,-1
 160.052734375 533 l 2,13,14
 168.052734375 533 168.052734375 533 173.436523438 526 c 0,15,16
 179.051757812 520 179.051757812 520 176.204101562 512 c 2,17,-1
 151.732421875 406 l 1,18,-1
 99.8046875 363 l 1,19,-1
 57.8046875 363 l 1,0,-1
185.8046875 363 m 1,20,-1
 236.732421875 406 l 1,21,-1
 246.428710938 448 l 1,22,-1
 225.428710938 448 l 2,23,24
 215.428710938 448 215.428710938 448 210.814453125 454 c 0,25,26
 206.430664062 461 206.430664062 461 210.5078125 470 c 2,27,-1
 219.973632812 511 l 2,28,29
 222.051757812 520 222.051757812 520 227.436523438 526 c 0,30,31
 235.052734375 533 235.052734375 533 245.052734375 533 c 2,32,-1
 288.052734375 533 l 2,33,34
 296.052734375 533 296.052734375 533 301.436523438 526 c 0,35,36
 306.051757812 520 306.051757812 520 304.204101562 512 c 2,37,-1
 279.732421875 406 l 1,38,-1
 226.8046875 363 l 1,39,-1
 185.8046875 363 l 1,20,-1
EndSplineSet
EndChar

StartChar: quotedblbase
Encoding: 8222 8222 201
Width: 286
GlyphClass: 2
Flags: W
LayerCount: 2
Back
Fore
SplineSet
-45.6240234375 -85 m 1,0,-1
 6.3037109375 -42 l 1,1,-1
 16 0 l 1,2,-1
 -5 0 l 2,3,4
 -14 0 -14 0 -19.845703125 5 c 0,5,6
 -23.2294921875 12 -23.2294921875 12 -21.1513671875 21 c 2,7,-1
 -11.6865234375 62 l 2,8,9
 -9.6083984375 71 -9.6083984375 71 -2.76171875 79 c 0,10,11
 5.8544921875 86 5.8544921875 86 14.6240234375 85 c 2,12,-1
 56.6240234375 85 l 2,13,14
 64.6240234375 85 64.6240234375 85 70.23828125 79 c 0,15,16
 75.853515625 73 75.853515625 73 72.775390625 64 c 2,17,-1
 48.3037109375 -42 l 1,18,-1
 -3.6240234375 -85 l 1,19,-1
 -45.6240234375 -85 l 1,0,-1
82.3759765625 -85 m 1,20,-1
 133.303710938 -42 l 1,21,-1
 143 0 l 1,22,-1
 122 0 l 2,23,24
 112 0 112 0 107.154296875 5 c 0,25,26
 102.770507812 12 102.770507812 12 106.848632812 21 c 2,27,-1
 116.313476562 62 l 2,28,29
 118.391601562 71 118.391601562 71 124.23828125 79 c 0,30,31
 131.854492188 86 131.854492188 86 141.624023438 85 c 2,32,-1
 184.624023438 85 l 2,33,34
 192.624023438 85 192.624023438 85 198.23828125 79 c 0,35,36
 202.853515625 73 202.853515625 73 200.775390625 64 c 2,37,-1
 176.303710938 -42 l 1,38,-1
 123.375976562 -85 l 1,39,-1
 82.3759765625 -85 l 1,20,-1
EndSplineSet
EndChar

StartChar: dagger
Encoding: 8224 8224 202
Width: 397
GlyphClass: 2
Flags: W
LayerCount: 2
Back
Fore
SplineSet
65.3759765625 -85 m 1,0,-1
 183.349609375 426 l 1,1,-1
 56.349609375 426 l 1,2,-1
 66.5078125 470 l 1,3,-1
 193.5078125 470 l 1,4,-1
 222.828125 597 l 1,5,-1
 308.828125 597 l 1,6,-1
 279.5078125 470 l 1,7,-1
 406.5078125 470 l 1,8,-1
 396.349609375 426 l 1,9,-1
 269.349609375 426 l 1,10,-1
 151.375976562 -85 l 1,11,-1
 65.3759765625 -85 l 1,0,-1
EndSplineSet
EndChar

StartChar: bullet
Encoding: 8226 8226 203
Width: 248
GlyphClass: 2
Flags: W
LayerCount: 2
Back
Fore
SplineSet
60.478515625 171 m 2,0,1
 42.478515625 171 42.478515625 171 33.4794921875 184 c 256,2,3
 24.25 196 24.25 196 28.1748046875 213 c 2,4,-1
 48.029296875 299 l 2,5,6
 51.9541015625 316 51.9541015625 316 66.724609375 328 c 0,7,8
 81.7255859375 341 81.7255859375 341 99.7255859375 341 c 2,9,-1
 184.725585938 341 l 2,10,11
 201.725585938 341 201.725585938 341 211.724609375 328 c 0,12,13
 221.954101562 316 221.954101562 316 218.029296875 299 c 2,14,-1
 198.174804688 213 l 2,15,16
 194.01953125 195 194.01953125 195 178.479492188 184 c 0,17,18
 163.708984375 172 163.708984375 172 145.478515625 171 c 2,19,-1
 60.478515625 171 l 2,0,1
EndSplineSet
EndChar

StartChar: ellipsis
Encoding: 8230 8230 204
Width: 397
GlyphClass: 2
Flags: W
LayerCount: 2
Back
Fore
SplineSet
-23.5390625 -11 m 2,0,1
 -32.5390625 -11 -32.5390625 -11 -38.154296875 -5 c 0,2,3
 -41.76953125 1 -41.76953125 1 -39.4609375 11 c 2,4,-1
 -29.9951171875 52 l 2,5,6
 -27.9169921875 61 -27.9169921875 61 -21.30078125 68 c 0,7,8
 -12.6845703125 75 -12.6845703125 75 -3.916015625 74 c 2,9,-1
 39.083984375 74 l 2,10,11
 47.083984375 74 47.083984375 74 51.69921875 68 c 0,12,13
 57.0830078125 61 57.0830078125 61 54.236328125 53 c 2,14,-1
 44.5390625 11 l 2,15,16
 42.23046875 1 42.23046875 1 34.845703125 -5 c 0,17,18
 27.4609375 -11 27.4609375 -11 19.4609375 -11 c 2,19,-1
 -23.5390625 -11 l 2,0,1
103.4609375 -11 m 2,20,21
 93.4609375 -11 93.4609375 -11 88.845703125 -5 c 256,22,23
 84.23046875 1 84.23046875 1 87.5390625 11 c 2,24,-1
 97.0048828125 52 l 2,25,26
 99.0830078125 61 99.0830078125 61 105.69921875 68 c 256,27,28
 113.315429688 75 113.315429688 75 123.083984375 74 c 2,29,-1
 166.083984375 74 l 2,30,31
 174.083984375 74 174.083984375 74 179.69921875 68 c 256,32,33
 185.083007812 61 185.083007812 61 183.236328125 53 c 2,34,-1
 173.5390625 11 l 2,35,36
 171.23046875 1 171.23046875 1 162.845703125 -5 c 256,37,38
 154.4609375 -11 154.4609375 -11 146.4609375 -11 c 2,39,-1
 103.4609375 -11 l 2,20,21
231.4609375 -11 m 2,40,41
 222.4609375 -11 222.4609375 -11 216.845703125 -5 c 0,42,43
 213.23046875 1 213.23046875 1 215.5390625 11 c 2,44,-1
 225.004882812 52 l 2,45,46
 227.083007812 61 227.083007812 61 233.69921875 68 c 0,47,48
 242.315429688 75 242.315429688 75 251.083984375 74 c 2,49,-1
 294.083984375 74 l 2,50,51
 302.083984375 74 302.083984375 74 307.69921875 68 c 0,52,53
 312.083007812 61 312.083007812 61 310.236328125 53 c 2,54,-1
 300.5390625 11 l 2,55,56
 298.23046875 1 298.23046875 1 290.845703125 -5 c 0,57,58
 282.4609375 -11 282.4609375 -11 274.4609375 -11 c 2,59,-1
 231.4609375 -11 l 2,40,41
EndSplineSet
EndChar

StartChar: guilsinglleft
Encoding: 8249 8249 205
Width: 288
GlyphClass: 2
Flags: W
LayerCount: 2
Back
Fore
SplineSet
104.384765625 6 m 1,0,-1
 36.2568359375 261 l 1,1,-1
 192.431640625 474 l 1,2,-1
 277.431640625 474 l 1,3,-1
 90.560546875 219 l 1,4,-1
 148.384765625 6 l 1,5,-1
 104.384765625 6 l 1,0,-1
EndSplineSet
EndChar

StartChar: guilsinglright
Encoding: 8250 8250 206
Width: 282
GlyphClass: 2
Flags: W
LayerCount: 2
Back
Fore
SplineSet
-6.615234375 6 m 1,0,-1
 179.256835938 261 l 1,1,-1
 123.431640625 474 l 1,2,-1
 165.431640625 474 l 1,3,-1
 234.560546875 219 l 1,4,-1
 78.384765625 6 l 1,5,-1
 -6.615234375 6 l 1,0,-1
EndSplineSet
EndChar

StartChar: Euro
Encoding: 8364 8364 207
Width: 471
GlyphClass: 2
Flags: W
LayerCount: 2
Back
Fore
SplineSet
64.3037109375 -42 m 1,0,-1
 -0.3037109375 42 l 1,1,-1
 29.478515625 171 l 1,2,-1
 -13.521484375 171 l 1,3,-1
 -3.8251953125 213 l 1,4,-1
 39.1748046875 213 l 1,5,-1
 59.029296875 299 l 1,6,-1
 16.029296875 299 l 1,7,-1
 25.7255859375 341 l 1,8,-1
 68.7255859375 341 l 1,9,-1
 98.5078125 470 l 1,10,-1
 201.901367188 554 l 1,11,-1
 415.901367188 554 l 1,12,-1
 481.5078125 470 l 1,13,-1
 396.5078125 470 l 1,14,-1
 362.973632812 511 l 1,15,-1
 234.973632812 511 l 1,16,-1
 182.5078125 470 l 1,17,-1
 152.725585938 341 l 1,18,-1
 282.725585938 341 l 1,19,-1
 273.029296875 299 l 1,20,-1
 143.029296875 299 l 1,21,-1
 123.174804688 213 l 1,22,-1
 253.174804688 213 l 1,23,-1
 243.478515625 171 l 1,24,-1
 113.478515625 171 l 1,25,-1
 83.6962890625 42 l 1,26,-1
 117.23046875 1 l 1,27,-1
 245.23046875 1 l 1,28,-1
 297.696289062 42 l 1,29,-1
 382.696289062 42 l 1,30,-1
 278.303710938 -42 l 1,31,-1
 64.3037109375 -42 l 1,0,-1
EndSplineSet
EndChar

StartChar: trademark
Encoding: 8482 8482 208
Width: 509
GlyphClass: 2
Flags: W
LayerCount: 2
Back
Fore
SplineSet
102.262695312 326 m 1,0,-1
 141.510742188 496 l 1,1,-1
 56.5107421875 496 l 1,2,-1
 66.20703125 538 l 1,3,-1
 280.20703125 538 l 1,4,-1
 270.510742188 496 l 1,5,-1
 184.510742188 496 l 1,6,-1
 145.262695312 326 l 1,7,-1
 102.262695312 326 l 1,0,-1
272.262695312 326 m 1,8,-1
 321.20703125 538 l 1,9,-1
 364.20703125 538 l 1,10,-1
 396.510742188 496 l 1,11,-1
 396.279296875 495 l 1,12,-1
 413.662109375 475 l 1,13,-1
 493.20703125 538 l 1,14,-1
 534.20703125 538 l 1,15,-1
 485.262695312 326 l 1,16,-1
 444.262695312 326 l 1,17,-1
 473.814453125 454 l 1,18,-1
 394.0390625 390 l 1,19,-1
 344.814453125 454 l 1,20,-1
 315.262695312 326 l 1,21,-1
 272.262695312 326 l 1,8,-1
EndSplineSet
EndChar

StartChar: uniFB00
Encoding: 64256 64256 209
Width: 546
GlyphClass: 2
Flags: W
LayerCount: 2
Back
Fore
SplineSet
-81.6240234375 -85 m 1,0,-1
 55.9736328125 511 l 1,1,-1
 159.828125 597 l 1,2,-1
 329.828125 597 l 1,3,-1
 319.901367188 554 l 1,4,-1
 191.901367188 554 l 1,5,-1
 139.973632812 511 l 1,6,-1
 91.029296875 299 l 1,7,-1
 261.029296875 299 l 1,8,-1
 309.973632812 511 l 1,9,-1
 414.828125 597 l 1,10,-1
 583.828125 597 l 1,11,-1
 573.901367188 554 l 1,12,-1
 447.901367188 554 l 1,13,-1
 394.973632812 511 l 1,14,-1
 346.029296875 299 l 1,15,-1
 515.029296875 299 l 1,16,-1
 505.102539062 256 l 1,17,-1
 336.102539062 256 l 1,18,-1
 257.375976562 -85 l 1,19,-1
 172.375976562 -85 l 1,20,-1
 251.102539062 256 l 1,21,-1
 81.1025390625 256 l 1,22,-1
 2.3759765625 -85 l 1,23,-1
 -81.6240234375 -85 l 1,0,-1
EndSplineSet
EndChar

StartChar: uniFB01
Encoding: 64257 64257 210
Width: 361
GlyphClass: 2
Flags: W
LayerCount: 2
Back
Fore
SplineSet
-56.6240234375 -85 m 1,0,-1
 80.9736328125 511 l 1,1,-1
 185.828125 597 l 1,2,-1
 355.828125 597 l 1,3,-1
 345.901367188 554 l 1,4,-1
 217.901367188 554 l 1,5,-1
 165.973632812 511 l 1,6,-1
 117.029296875 299 l 1,7,-1
 330.029296875 299 l 1,8,-1
 241.375976562 -85 l 1,9,-1
 155.375976562 -85 l 1,10,-1
 234.102539062 256 l 1,11,-1
 107.102539062 256 l 1,12,-1
 28.3759765625 -85 l 1,13,-1
 -56.6240234375 -85 l 1,0,-1
EndSplineSet
EndChar

StartChar: uniFB02
Encoding: 64258 64258 211
Width: 471
GlyphClass: 2
Flags: W
LayerCount: 2
Back
Fore
SplineSet
-72.6240234375 -85 m 1,0,-1
 64.9736328125 511 l 1,1,-1
 169.828125 597 l 1,2,-1
 467.828125 597 l 1,3,-1
 339.696289062 42 l 1,4,-1
 373.23046875 1 l 1,5,-1
 353.375976562 -85 l 1,6,-1
 310.375976562 -85 l 1,7,-1
 245.23046875 1 l 1,8,-1
 372.901367188 554 l 1,9,-1
 201.901367188 554 l 1,10,-1
 149.973632812 511 l 1,11,-1
 101.029296875 299 l 1,12,-1
 273.029296875 299 l 1,13,-1
 263.102539062 256 l 1,14,-1
 91.1025390625 256 l 1,15,-1
 12.3759765625 -85 l 1,16,-1
 -72.6240234375 -85 l 1,0,-1
EndSplineSet
EndChar

StartChar: uniFB03
Encoding: 64259 64259 212
Width: 583
GlyphClass: 2
Flags: W
LayerCount: 2
Back
Fore
SplineSet
-88.6240234375 -85 m 1,0,-1
 48.9736328125 511 l 1,1,-1
 153.828125 597 l 1,2,-1
 325.828125 597 l 1,3,-1
 315.901367188 554 l 1,4,-1
 185.901367188 554 l 1,5,-1
 133.973632812 511 l 1,6,-1
 85.029296875 299 l 1,7,-1
 257.029296875 299 l 1,8,-1
 305.973632812 511 l 1,9,-1
 409.828125 597 l 1,10,-1
 579.828125 597 l 1,11,-1
 569.901367188 554 l 1,12,-1
 441.901367188 554 l 1,13,-1
 389.973632812 511 l 1,14,-1
 341.029296875 299 l 1,15,-1
 554.029296875 299 l 1,16,-1
 465.375976562 -85 l 1,17,-1
 381.375976562 -85 l 1,18,-1
 460.102539062 256 l 1,19,-1
 331.102539062 256 l 1,20,-1
 252.375976562 -85 l 1,21,-1
 168.375976562 -85 l 1,22,-1
 247.102539062 256 l 1,23,-1
 75.1025390625 256 l 1,24,-1
 -3.6240234375 -85 l 1,25,-1
 -88.6240234375 -85 l 1,0,-1
EndSplineSet
EndChar

StartChar: uniFB04
Encoding: 64260 64260 213
Width: 696
GlyphClass: 2
Flags: W
LayerCount: 2
Back
Fore
SplineSet
-104.624023438 -85 m 1,0,-1
 32.9736328125 511 l 1,1,-1
 138.828125 597 l 1,2,-1
 308.828125 597 l 1,3,-1
 298.901367188 554 l 1,4,-1
 169.901367188 554 l 1,5,-1
 118.973632812 511 l 1,6,-1
 70.029296875 299 l 1,7,-1
 240.029296875 299 l 1,8,-1
 288.973632812 511 l 1,9,-1
 393.828125 597 l 1,10,-1
 691.828125 597 l 1,11,-1
 563.696289062 42 l 1,12,-1
 597.23046875 1 l 1,13,-1
 577.375976562 -85 l 1,14,-1
 534.375976562 -85 l 1,15,-1
 470.23046875 1 l 1,16,-1
 597.901367188 554 l 1,17,-1
 426.901367188 554 l 1,18,-1
 373.973632812 511 l 1,19,-1
 325.029296875 299 l 1,20,-1
 495.029296875 299 l 1,21,-1
 485.102539062 256 l 1,22,-1
 315.102539062 256 l 1,23,-1
 236.375976562 -85 l 1,24,-1
 151.375976562 -85 l 1,25,-1
 230.102539062 256 l 1,26,-1
 60.1025390625 256 l 1,27,-1
 -18.6240234375 -85 l 1,28,-1
 -104.624023438 -85 l 1,0,-1
EndSplineSet
EndChar

StartChar: uniFB06
Encoding: 64262 64262 214
Width: 696
GlyphClass: 2
Flags: W
LayerCount: 2
Back
Fore
SplineSet
-12.390625 -58 m 1,0,-1
 -78.7666015625 27 l 1,1,-1
 7.2333984375 27 l 1,2,-1
 38.3056640625 -16 l 1,3,-1
 209.305664062 -16 l 1,4,-1
 262.233398438 27 l 1,5,-1
 272.161132812 70 l 1,6,-1
 238.625976562 111 l 1,7,-1
 -16.3740234375 111 l 1,8,-1
 -48.984375 156 l 1,9,-1
 -29.591796875 240 l 1,10,-1
 75.8017578125 324 l 1,11,-1
 458.801757812 324 l 1,12,-1
 478.65625 410 l 1,13,-1
 564.65625 410 l 1,14,-1
 544.801757812 324 l 1,15,-1
 671.801757812 324 l 1,16,-1
 662.104492188 282 l 1,17,-1
 535.104492188 282 l 1,18,-1
 476.233398438 27 l 1,19,-1
 507.305664062 -16 l 1,20,-1
 593.305664062 -16 l 1,21,-1
 583.609375 -58 l 1,22,-1
 456.609375 -58 l 1,23,-1
 390.233398438 27 l 1,24,-1
 449.104492188 282 l 1,25,-1
 107.104492188 282 l 1,26,-1
 56.408203125 240 l 1,27,-1
 46.4814453125 197 l 1,28,-1
 78.015625 156 l 1,29,-1
 335.015625 156 l 1,30,-1
 366.625976562 111 l 1,31,-1
 347.233398438 27 l 1,32,-1
 242.609375 -58 l 1,33,-1
 -12.390625 -58 l 1,0,-1
EndSplineSet
EndChar
